<svg xmlns="http://www.w3.org/2000/svg" xmlns:xlink="http://www.w3.org/1999/xlink" width="100%" zoomAndPan="magnify" viewBox="0 0 187.5 74.999997" height="100" preserveAspectRatio="xMidYMid meet" version="1.0"><defs><g/><clipPath id="id1"><path d="M 162 26 L 187 26 L 187 41 L 162 41 Z M 162 26 " clip-rule="nonzero"/></clipPath><clipPath id="id2"><path d="M 5.355469 16.195312 L 41.710938 16.195312 L 41.710938 58.140625 L 5.355469 58.140625 Z M 5.355469 16.195312 " clip-rule="nonzero"/></clipPath><clipPath id="id3"><path d="M 36 28 L 61.605469 28 L 61.605469 53 L 36 53 Z M 36 28 " clip-rule="nonzero"/></clipPath></defs><g fill="rgb(35.289001%, 4.309082%, 30.198669%)" fill-opacity="1"><g transform="translate(60.436654, 40.54067)"><g><path d="M 23.882812 -21.789062 C 22.820312 -19.277344 21.144531 -13.871094 16.125 -12.199219 C 17.347656 -16.414062 18.121094 -18.894531 19.054688 -21.53125 C 19.085938 -22.367188 15.964844 -22.691406 15.449219 -21.691406 C 11.746094 -17.1875 4.925781 -18.601562 3.863281 -14.128906 C 3.316406 -11.941406 4.957031 -9.6875 7.949219 -9.785156 C 8.820312 -9.914062 9.011719 -11.457031 8.527344 -11.617188 C 7.304688 -11.875 7.113281 -12.714844 7.371094 -13.777344 C 7.917969 -16.15625 11.875 -15.996094 14.484375 -18.796875 C 13.484375 -15.675781 12.808594 -12.84375 11.167969 -7.242188 C 10.332031 -4.441406 9.527344 -2.027344 7.820312 -1.996094 C 5.761719 -1.964844 5.183594 -4.472656 6.792969 -6.4375 C 6.921875 -7.304688 5.503906 -8.144531 4.828125 -7.851562 C 0.902344 -5.632812 1.929688 0.355469 7.371094 0.320312 C 12.261719 0.289062 13.484375 -2.960938 15.289062 -9.558594 C 16.898438 -9.558594 17.734375 -8.464844 18.121094 -6.277344 C 18.765625 -2.800781 18.765625 2.992188 23.011719 3.636719 C 24.652344 3.765625 25.585938 1.738281 25.007812 1.160156 C 21.984375 0.289062 21.917969 -4.054688 21.210938 -7.082031 C 20.886719 -8.65625 20.246094 -10.136719 18.828125 -10.78125 C 22.882812 -12.261719 25.78125 -16.832031 27.292969 -21.402344 C 27.230469 -22.144531 24.621094 -22.722656 23.882812 -21.789062 Z M 23.882812 -21.789062 "/></g></g></g><g fill="rgb(35.289001%, 4.309082%, 30.198669%)" fill-opacity="1"><g transform="translate(87.085603, 40.54067)"><g><path d="M 4.472656 -15.578125 C 5.761719 -15.578125 6.664062 -16.382812 6.792969 -17.542969 C 6.953125 -18.667969 6.242188 -19.472656 5.085938 -19.472656 C 3.894531 -19.503906 2.992188 -18.699219 2.800781 -17.542969 C 2.640625 -16.414062 3.410156 -15.578125 4.472656 -15.578125 Z M 2.027344 0.289062 C 5.375 0.226562 7.789062 -3.539062 9.140625 -6.4375 C 9.332031 -6.855469 8.207031 -7.53125 8.015625 -7.113281 C 6.921875 -4.472656 4.796875 -1.964844 3.316406 -1.964844 C 2.640625 -1.929688 2.671875 -2.800781 2.929688 -4.085938 C 3.410156 -6.277344 4.085938 -8.367188 5.34375 -12.84375 C 5.117188 -13.613281 2.476562 -14 1.964844 -13.261719 C 0.835938 -9.367188 0.0625 -6.757812 -0.644531 -3.734375 C -1.222656 -1.253906 -0.644531 0.355469 2.027344 0.289062 Z M 2.027344 0.289062 "/></g></g></g><g fill="rgb(35.289001%, 4.309082%, 30.198669%)" fill-opacity="1"><g transform="translate(94.874304, 40.54067)"><g><path d="M 2.058594 -13.132812 C 1.191406 -10.265625 0 -7.175781 -0.449219 -3.957031 C -0.835938 -1.0625 0.289062 0.226562 2.605469 0.289062 C 4.890625 0.386719 6.757812 -0.578125 8.304688 -1.996094 C 10.910156 -1.351562 14.226562 -1.480469 16.542969 -6.46875 C 16.738281 -6.886719 15.609375 -7.5 15.417969 -7.113281 C 14 -3.796875 11.910156 -2.832031 9.589844 -3.28125 C 11.585938 -5.664062 12.777344 -9.042969 13.164062 -12.746094 C 12.972656 -13.9375 10.105469 -13.871094 9.753906 -13.164062 C 9.589844 -10.394531 8.5625 -7.144531 7.242188 -4.988281 C 6.277344 -5.503906 5.085938 -4.214844 5.890625 -3.152344 C 5.117188 -2.347656 4.410156 -1.996094 3.703125 -2.058594 C 1.738281 -2.253906 4.3125 -9.078125 5.4375 -12.777344 C 5.3125 -13.710938 2.640625 -13.9375 2.058594 -13.132812 Z M 2.058594 -13.132812 "/></g></g></g><g fill="rgb(35.289001%, 4.309082%, 30.198669%)" fill-opacity="1"><g transform="translate(110.065494, 40.54067)"><g><path d="M 4.472656 -15.578125 C 5.761719 -15.578125 6.664062 -16.382812 6.792969 -17.542969 C 6.953125 -18.667969 6.242188 -19.472656 5.085938 -19.472656 C 3.894531 -19.503906 2.992188 -18.699219 2.800781 -17.542969 C 2.640625 -16.414062 3.410156 -15.578125 4.472656 -15.578125 Z M 2.027344 0.289062 C 5.375 0.226562 7.789062 -3.539062 9.140625 -6.4375 C 9.332031 -6.855469 8.207031 -7.53125 8.015625 -7.113281 C 6.921875 -4.472656 4.796875 -1.964844 3.316406 -1.964844 C 2.640625 -1.929688 2.671875 -2.800781 2.929688 -4.085938 C 3.410156 -6.277344 4.085938 -8.367188 5.34375 -12.84375 C 5.117188 -13.613281 2.476562 -14 1.964844 -13.261719 C 0.835938 -9.367188 0.0625 -6.757812 -0.644531 -3.734375 C -1.222656 -1.253906 -0.644531 0.355469 2.027344 0.289062 Z M 2.027344 0.289062 "/></g></g></g><g fill="rgb(35.289001%, 4.309082%, 30.198669%)" fill-opacity="1"><g transform="translate(117.854196, 40.54067)"><g><path d="M 7.660156 -13.613281 C 4.023438 -13.003906 0.257812 -9.300781 -0.449219 -4.988281 C -1.03125 -1.382812 0.773438 0.320312 3.121094 0.289062 C 5.730469 0.226562 7.144531 -1.769531 8.273438 -3.734375 C 7.886719 -1.351562 8.753906 0.128906 10.300781 0.128906 C 13.324219 0.128906 15.835938 -2.960938 17.507812 -6.46875 C 17.703125 -6.855469 16.542969 -7.5 16.382812 -7.113281 C 15.222656 -4.3125 13.035156 -2.125 11.84375 -2.09375 C 11.105469 -2.09375 10.910156 -2.832031 11.265625 -4.441406 C 11.554688 -6.019531 12.132812 -7.949219 12.488281 -9.171875 C 12.359375 -9.847656 9.976562 -10.523438 9.398438 -9.785156 C 8.304688 -5.664062 5.085938 -0.773438 3.507812 -2.316406 C 2.769531 -3.058594 2.960938 -5.246094 3.957031 -7.339844 C 4.957031 -9.460938 6.726562 -11.105469 8.59375 -11.363281 C 10.074219 -11.554688 11.875 -11.105469 13.195312 -10.042969 C 13.710938 -9.785156 15.03125 -11.265625 14.707031 -11.78125 C 12.90625 -13.613281 9.785156 -13.96875 7.660156 -13.613281 Z M 7.660156 -13.613281 "/></g></g></g><g fill="rgb(35.289001%, 4.309082%, 30.198669%)" fill-opacity="1"><g transform="translate(134.043106, 40.54067)"><g><path d="M 7.980469 -13.648438 C 5.730469 -13.355469 3.1875 -11.941406 1.449219 -9.429688 C -1.480469 -5.3125 -1.382812 0.386719 3.121094 0.289062 C 5.632812 0.226562 7.210938 -1.835938 8.207031 -3.636719 C 7.722656 -2.027344 7.175781 -0.289062 6.792969 0.867188 C 3.605469 1.898438 0.160156 3.1875 -0.226562 6.277344 C -0.484375 8.402344 0.996094 9.589844 3.152344 9.527344 C 6.726562 9.496094 8.144531 7.273438 9.625 1.867188 C 13.132812 0.355469 15.128906 -1.898438 17.316406 -6.46875 C 17.507812 -6.855469 16.351562 -7.5 16.1875 -7.144531 C 14.546875 -3.476562 12.617188 -1.222656 10.171875 -0.226562 C 11.167969 -3.765625 11.714844 -6.148438 12.585938 -9.171875 C 12.519531 -9.816406 9.976562 -10.492188 9.527344 -9.816406 C 9.109375 -8.496094 8.527344 -7.082031 8.015625 -6.019531 C 6.5 -2.929688 4.539062 -1.417969 3.539062 -2.285156 C 2.769531 -3.027344 2.929688 -5.183594 3.992188 -7.339844 C 5.117188 -9.589844 6.886719 -11.234375 8.882812 -11.394531 C 10.300781 -11.523438 11.972656 -11.105469 13.261719 -10.074219 C 13.777344 -9.71875 15.09375 -11.265625 14.804688 -11.78125 C 12.875 -13.484375 10.105469 -13.902344 7.980469 -13.648438 Z M 6.277344 2.929688 C 6.082031 3.605469 5.921875 4.25 5.730469 4.859375 C 4.667969 8.109375 1.929688 7.597656 2.929688 5.535156 C 3.378906 4.601562 4.761719 3.574219 6.277344 2.929688 Z M 6.277344 2.929688 "/></g></g></g><g fill="rgb(35.289001%, 4.309082%, 30.198669%)" fill-opacity="1"><g transform="translate(150.006731, 40.54067)"><g><path d="M 8.175781 -13.648438 C 4.410156 -13.777344 1.03125 -11.136719 0.160156 -6.921875 C -0.644531 -3.316406 1.09375 0.160156 5.988281 0.320312 C 9.042969 0.417969 12.90625 -0.644531 15.511719 -6.46875 C 15.675781 -6.855469 14.546875 -7.5 14.355469 -7.113281 C 12.488281 -2.863281 9.078125 -1.738281 6.886719 -1.964844 C 4.632812 -2.1875 3.445312 -3.507812 3.636719 -5.566406 C 7.371094 -4.699219 10.429688 -5.824219 11.617188 -8.238281 C 12.84375 -10.589844 11.78125 -13.519531 8.175781 -13.648438 Z M 7.757812 -11.363281 C 8.980469 -11.328125 9.011719 -10.171875 8.496094 -9.109375 C 7.851562 -7.691406 6.242188 -6.855469 3.863281 -7.210938 C 4.441406 -9.527344 6.242188 -11.457031 7.757812 -11.363281 Z M 7.757812 -11.363281 "/></g></g></g><g clip-path="url(#id1)"><g fill="rgb(35.289001%, 4.309082%, 30.198669%)" fill-opacity="1"><g transform="translate(164.168009, 40.54067)"><g><path d="M 17.121094 0.289062 C 20.246094 0.191406 22.59375 -3.636719 23.914062 -6.46875 C 24.105469 -6.855469 22.949219 -7.5 22.789062 -7.113281 C 21.628906 -4.378906 19.632812 -1.964844 18.410156 -1.964844 C 16.738281 -1.929688 18.894531 -7.175781 19.441406 -9.496094 C 20.050781 -12.132812 19.375 -13.710938 16.929688 -13.710938 C 14.835938 -13.742188 13.066406 -12.070312 11.84375 -10.492188 C 12.199219 -12.421875 11.296875 -13.710938 9.589844 -13.710938 C 7.660156 -13.742188 5.632812 -11.84375 4.507812 -10.265625 L 5.214844 -12.808594 C 5.054688 -13.742188 2.382812 -14 1.867188 -13.292969 C 0.613281 -8.5625 -0.386719 -4.988281 -1.511719 -0.707031 C -1.640625 0.417969 1.769531 0.386719 2.058594 -0.355469 C 2.640625 -2.863281 3.152344 -5.054688 3.894531 -7.53125 C 4.988281 -9.429688 6.566406 -11.070312 7.5625 -11.070312 C 8.496094 -11.105469 8.433594 -10.042969 8.207031 -9.207031 C 7.371094 -5.824219 6.726562 -3.21875 6.082031 -0.515625 C 6.210938 0.417969 9.269531 0.320312 9.625 -0.386719 C 10.105469 -2.222656 10.78125 -5.34375 11.363281 -7.433594 C 12.070312 -9.171875 13.96875 -11.105469 15.09375 -11.136719 C 16.125 -11.136719 15.933594 -10.007812 15.707031 -9.078125 C 15.289062 -7.371094 14.515625 -4.570312 14.289062 -3.28125 C 13.871094 -1.09375 14.613281 0.386719 17.121094 0.289062 Z M 17.121094 0.289062 "/></g></g></g></g><path fill="rgb(82.749939%, 96.469116%, 85.879517%)" d="M 21.863281 42.777344 C 21.789062 43.234375 21.679688 44.4375 22.125 44.5625 C 22.75 44.6875 22.863281 43.566406 23.046875 43.152344 C 23.269531 42.613281 23.753906 41.617188 23.085938 41.492188 C 22.671875 41.417969 21.976562 42.117188 21.863281 42.777344 " fill-opacity="1" fill-rule="nonzero"/><path fill="rgb(82.749939%, 96.469116%, 85.879517%)" d="M 37.164062 49.46875 C 37.121094 49.695312 37.183594 49.816406 37.289062 49.867188 C 37.550781 49.648438 37.800781 49.421875 38.046875 49.1875 C 37.894531 48.851562 37.253906 49.015625 37.164062 49.46875 " fill-opacity="1" fill-rule="nonzero"/><path fill="rgb(82.749939%, 96.469116%, 85.879517%)" d="M 42.347656 38.921875 C 42.347656 38.921875 42.3125 38.914062 42.308594 38.921875 C 42.089844 39.316406 41.570312 39.960938 42.234375 39.960938 C 42.789062 39.917969 42.828125 39.046875 42.347656 38.921875 " fill-opacity="1" fill-rule="nonzero"/><path fill="rgb(82.749939%, 96.469116%, 85.879517%)" d="M 39.3125 39.046875 C 38.945312 39.460938 39.203125 39.253906 39.574219 39.585938 C 39.792969 39.792969 40.054688 40.457031 40.3125 40.539062 C 40.71875 40.746094 40.828125 40.207031 41.3125 40.414062 C 41.644531 40.5 41.753906 41.246094 42.160156 40.871094 C 42.160156 40.871094 42.191406 40.84375 42.199219 40.828125 C 42.363281 40.519531 41.3125 39.753906 41.015625 39.089844 C 40.761719 38.523438 39.722656 38.589844 39.3125 39.046875 " fill-opacity="1" fill-rule="nonzero"/><path fill="rgb(82.749939%, 96.469116%, 85.879517%)" d="M 38.648438 38.796875 C 38.832031 39.089844 39.242188 38.761719 39.128906 38.589844 C 39.054688 38.476562 38.425781 38.507812 38.648438 38.796875 " fill-opacity="1" fill-rule="nonzero"/><path fill="rgb(82.749939%, 96.469116%, 85.879517%)" d="M 37.355469 35.9375 C 37.316406 36.226562 37.058594 36.269531 36.835938 36.269531 C 37.058594 37.265625 38.21875 36.859375 37.652344 36.042969 C 37.601562 35.972656 37.429688 35.894531 37.355469 35.9375 " fill-opacity="1" fill-rule="nonzero"/><path fill="rgb(82.749939%, 96.469116%, 85.879517%)" d="M 36.46875 33.90625 C 36.441406 33.894531 36.355469 33.90625 36.355469 33.90625 C 35.839844 33.988281 36.246094 35.316406 36.46875 35.359375 C 36.835938 35.441406 36.707031 34.019531 36.46875 33.90625 " fill-opacity="1" fill-rule="nonzero"/><path fill="rgb(82.749939%, 96.469116%, 85.879517%)" d="M 36.652344 35.480469 L 36.652344 35.523438 C 36.691406 35.773438 36.761719 35.9375 36.984375 35.894531 C 37.058594 35.5625 36.835938 35.359375 36.652344 35.480469 " fill-opacity="1" fill-rule="nonzero"/><path fill="rgb(82.749939%, 96.469116%, 85.879517%)" d="M 36.320312 35.730469 C 36.097656 35.773438 35.875 36.019531 35.839844 36.269531 C 36.136719 36.394531 36.394531 36.101562 36.320312 35.730469 " fill-opacity="1" fill-rule="nonzero"/><path fill="rgb(82.749939%, 96.469116%, 85.879517%)" d="M 36.394531 38.300781 L 36.355469 38.34375 C 36.28125 38.589844 36.171875 39.296875 36.28125 39.503906 C 36.578125 40.042969 36.652344 39.296875 36.617188 38.964844 C 36.875 39.046875 36.949219 39.460938 37.097656 39.710938 C 37.242188 39.296875 36.800781 38.757812 37.167969 38.425781 C 36.949219 37.886719 36.691406 38.714844 36.394531 38.300781 " fill-opacity="1" fill-rule="nonzero"/><path fill="rgb(82.749939%, 96.469116%, 85.879517%)" d="M 35.839844 40.332031 C 35.847656 40.332031 35.867188 40.332031 35.875 40.332031 C 36.46875 40.332031 35.320312 39.878906 34.953125 39.792969 C 34.914062 39.792969 33.953125 39.835938 33.917969 39.878906 C 33.363281 40.582031 35.65625 40.332031 35.839844 40.332031 " fill-opacity="1" fill-rule="nonzero"/><path fill="rgb(82.749939%, 96.469116%, 85.879517%)" d="M 35.136719 37.429688 C 34.953125 37.597656 34.617188 37.472656 34.472656 37.636719 C 34.210938 37.886719 34.324219 38.011719 34.359375 38.300781 C 34.398438 38.964844 34.546875 38.796875 34.914062 39.007812 C 35.617188 39.421875 35.800781 39.007812 36.097656 38.21875 C 36.136719 38.09375 36.320312 37.347656 36.320312 37.304688 C 36.28125 36.976562 35.882812 36.582031 35.65625 36.601562 C 35.335938 36.625 35.394531 37.222656 35.136719 37.429688 " fill-opacity="1" fill-rule="nonzero"/><path fill="rgb(82.749939%, 96.469116%, 85.879517%)" d="M 37.761719 28.390625 C 37.800781 28.351562 37.910156 28.226562 37.945312 28.183594 C 38.167969 28.265625 38.945312 28.308594 38.6875 27.8125 C 38.6875 27.769531 37.945312 27.523438 37.835938 27.398438 L 37.835938 27.3125 C 37.726562 27.480469 37.6875 28.144531 37.761719 28.390625 " fill-opacity="1" fill-rule="nonzero"/><path fill="rgb(82.749939%, 96.469116%, 85.879517%)" d="M 29.109375 36.1875 C 28.628906 36.1875 28.703125 37.304688 29.371094 36.890625 C 29.332031 36.765625 29.296875 36.519531 29.183594 36.394531 L 29.148438 36.476562 C 29.148438 36.351562 29.148438 36.269531 29.109375 36.1875 " fill-opacity="1" fill-rule="nonzero"/><path fill="rgb(82.749939%, 96.469116%, 85.879517%)" d="M 33.621094 39.753906 C 33.769531 39.667969 33.84375 39.378906 33.804688 39.253906 C 33.769531 38.757812 33.25 38.882812 33.25 38.300781 L 33.214844 38.257812 C 33.101562 37.96875 32.769531 37.84375 32.546875 37.597656 C 32.328125 37.347656 32.253906 36.851562 31.882812 37.058594 C 31.921875 37.472656 32.328125 37.886719 32.546875 38.21875 C 32.769531 38.632812 32.917969 39.007812 33.25 39.378906 C 33.433594 39.546875 33.25 39.878906 33.621094 39.753906 " fill-opacity="1" fill-rule="nonzero"/><path fill="rgb(82.749939%, 96.469116%, 85.879517%)" d="M 39.203125 25.988281 C 39.203125 25.988281 39.203125 25.988281 39.207031 25.984375 C 38.839844 25.542969 38.453125 25.117188 38.046875 24.714844 C 38.054688 24.785156 38.070312 24.851562 38.09375 24.910156 C 38.167969 25.160156 38.945312 26.113281 39.203125 25.988281 " fill-opacity="1" fill-rule="nonzero"/><path fill="rgb(82.749939%, 96.469116%, 85.879517%)" d="M 20.347656 33.078125 C 20.117188 32.597656 20.0625 32.023438 19.875 31.554688 C 20.027344 31.675781 20.207031 31.796875 20.347656 31.957031 C 20.71875 32.332031 20.792969 32.910156 21.089844 33.324219 C 21.308594 33.617188 21.53125 33.863281 21.679688 34.238281 C 21.765625 34.402344 21.769531 35.007812 21.839844 35.320312 C 21.082031 34.925781 20.714844 33.929688 20.347656 33.078125 Z M 35.507812 24.617188 C 35.875 24.289062 36.394531 24.578125 36.761719 24.410156 C 36.859375 24.375 37.203125 24.125 37.320312 24.027344 C 36.351562 23.167969 36.535156 22.796875 35.289062 22.410156 C 35.15625 22.371094 35.289062 22.410156 33.730469 21.757812 C 32.058594 21.054688 29.851562 22.132812 28.148438 21.21875 C 27.335938 20.804688 26.707031 20.722656 25.785156 20.929688 C 25.488281 21.011719 25.117188 21.054688 24.785156 21.136719 C 24.121094 21.34375 24.121094 21.675781 23.675781 22.089844 C 23.601562 21.675781 23.640625 21.34375 23.230469 21.300781 C 22.679688 21.21875 22.898438 21.511719 22.789062 21.800781 C 22.714844 22.046875 23.011719 22.089844 22.789062 22.296875 C 22.75 22.296875 22.308594 22.257812 22.234375 22.257812 C 21.976562 22.296875 21.640625 22.378906 21.382812 22.421875 C 20.828125 22.546875 20.273438 22.503906 19.792969 22.835938 C 19.128906 23.292969 18.980469 23.707031 18.390625 22.917969 C 18.90625 22.878906 19.609375 22.917969 18.90625 22.378906 C 18.539062 22.132812 17.945312 21.964844 17.5 21.882812 C 17.375 21.867188 17.261719 21.855469 17.148438 21.855469 C 16.539062 22.199219 15.949219 22.578125 15.386719 22.992188 C 15.097656 23.3125 14.511719 23.714844 14.542969 23.996094 C 14.582031 24.535156 14.804688 24.203125 15.023438 24.371094 C 15.210938 24.496094 15.320312 24.617188 15.507812 24.785156 C 15.726562 25.035156 15.726562 25.28125 16.097656 25.160156 C 16.320312 25.117188 16.539062 24.785156 16.539062 24.578125 C 16.539062 24.164062 16.132812 24.121094 16.207031 23.707031 C 16.207031 23.542969 16.652344 23.003906 16.761719 22.960938 C 17.539062 22.710938 16.464844 23.789062 16.800781 24.203125 C 17.132812 24.578125 17.871094 23.914062 17.28125 24.742188 C 17.242188 24.742188 16.949219 24.910156 16.910156 24.910156 C 16.875 24.949219 16.949219 25.242188 16.835938 25.367188 C 16.726562 25.488281 16.394531 25.53125 16.28125 25.574219 C 15.691406 25.65625 15.285156 25.488281 15.023438 25.035156 C 14.765625 25.488281 14.472656 25.90625 14.101562 26.234375 C 13.917969 26.359375 13.472656 26.445312 13.363281 26.566406 C 13.027344 26.980469 13.324219 26.816406 13.398438 27.230469 C 13.546875 28.183594 13.25 27.769531 12.660156 27.8125 C 11.328125 27.933594 12.253906 30.632812 13.4375 29.554688 C 13.878906 29.140625 13.84375 28.601562 14.398438 28.265625 C 14.988281 27.894531 15.359375 27.933594 15.839844 28.476562 C 16.058594 28.722656 16.652344 29.882812 16.652344 28.929688 C 16.652344 28.308594 15.691406 28.265625 15.875 27.6875 C 16.726562 27.851562 16.835938 28.722656 17.316406 29.34375 C 18.167969 30.464844 17.292969 29.140625 18.15625 28.671875 C 18.371094 28.558594 18.277344 27.976562 18.574219 27.730469 C 18.832031 27.523438 19.019531 27.894531 19.351562 27.769531 C 19.238281 26.816406 20.3125 27.605469 20.570312 27.933594 C 21.089844 28.683594 20.792969 28.683594 20.199219 28.601562 C 19.832031 28.558594 19.460938 28.601562 19.089844 28.601562 C 18.613281 28.640625 17.722656 29.179688 18.539062 29.71875 C 18.722656 29.800781 19.164062 29.71875 19.3125 29.675781 C 19.660156 29.582031 19.761719 29.636719 19.84375 29.664062 C 20.570312 29.898438 19.71875 30.464844 19.609375 30.796875 C 19.5625 30.898438 19.546875 30.992188 19.550781 31.070312 C 19.289062 30.859375 19.039062 31.003906 18.613281 31.003906 C 18.167969 30.960938 18.167969 30.753906 17.796875 30.589844 C 17.058594 30.300781 17.464844 31.003906 16.984375 31.167969 C 16.652344 31.253906 16.023438 30.382812 15.914062 30.175781 C 15.691406 29.761719 15.746094 29.339844 15.0625 29.636719 C 14.570312 29.851562 13.84375 29.84375 13.140625 29.96875 C 12.734375 30.050781 12.179688 30.007812 11.917969 30.464844 C 11.660156 30.921875 11.734375 31.417969 11.476562 31.914062 C 11.21875 32.414062 10.773438 32.578125 10.476562 32.996094 C 10.109375 33.574219 10.515625 34.03125 10.589844 34.652344 C 10.625 35.027344 10.476562 35.523438 10.550781 35.855469 C 10.699219 36.394531 11.21875 36.726562 11.550781 37.015625 C 11.957031 37.386719 12.253906 37.929688 12.769531 37.929688 C 13.324219 37.929688 13.546875 37.304688 14.027344 37.140625 C 14.472656 37.015625 15.023438 37.347656 15.246094 37.804688 C 15.507812 38.300781 15.246094 38.757812 15.394531 39.214844 C 15.507812 39.710938 15.839844 40.042969 15.914062 40.539062 C 15.988281 41.121094 15.914062 41.492188 15.839844 41.992188 C 15.652344 43.152344 16.097656 43.773438 16.394531 44.851562 C 16.578125 45.640625 16.6875 47.132812 17.6875 47.132812 C 18.574219 47.132812 19.644531 45.222656 20.128906 44.519531 C 20.460938 44.023438 20.273438 43.566406 20.460938 43.070312 C 20.644531 42.613281 21.199219 42.53125 21.421875 41.992188 C 21.789062 40.996094 20.828125 40.375 21.421875 39.335938 C 21.976562 38.34375 23.160156 37.761719 23.566406 36.644531 C 24.007812 35.441406 23.160156 35.5625 22.382812 35.480469 C 22.332031 35.476562 22.285156 35.46875 22.242188 35.460938 C 22.566406 35.265625 23.007812 34.757812 23.269531 34.609375 C 23.640625 34.402344 24.601562 33.824219 24.710938 33.367188 C 24.859375 32.828125 24.277344 32.273438 23.859375 32.332031 C 23.648438 32.359375 23.601562 32.621094 23.453125 32.746094 C 23.195312 32.457031 22.234375 31.335938 22.75 31.253906 C 23.085938 31.167969 23.230469 31.625 23.492188 31.792969 C 23.601562 31.875 23.824219 31.832031 23.933594 31.875 C 24.007812 31.957031 24.265625 32.164062 24.339844 32.207031 C 24.894531 32.414062 25.636719 32.125 26.152344 32.457031 C 26.449219 32.664062 26.449219 33.117188 26.707031 33.285156 C 26.855469 33.410156 27.078125 33.203125 27.113281 33.242188 C 27.371094 33.410156 27.226562 33.449219 27.371094 33.699219 C 27.632812 34.195312 27.816406 34.570312 27.890625 35.109375 C 27.964844 35.605469 28.039062 36.644531 28.628906 36.0625 C 28.925781 35.6875 28.777344 35.234375 28.890625 34.816406 C 29 34.28125 29.480469 33.824219 29.886719 33.492188 C 30.367188 33.035156 30.773438 32.871094 31.179688 33.535156 C 31.367188 33.824219 31.367188 34.03125 31.625 34.28125 C 31.847656 34.527344 31.992188 34.488281 32.140625 34.859375 C 32.289062 35.359375 32.214844 35.855469 32.402344 36.394531 C 32.546875 36.808594 32.660156 37.71875 33.101562 37.84375 C 33.25 37.71875 33.214844 37.636719 33.25 37.472656 C 33.324219 36.890625 32.695312 36.519531 32.546875 36.0625 C 32.289062 35.066406 32.882812 35.234375 33.289062 35.773438 C 33.546875 36.0625 33.363281 36.394531 33.804688 36.1875 C 33.992188 36.101562 34.136719 35.6875 34.175781 35.523438 C 34.285156 34.695312 33.433594 34.402344 33.507812 33.824219 C 33.621094 33.242188 34.285156 33.324219 34.65625 33.242188 C 35.210938 33.117188 35.394531 32.871094 35.691406 32.246094 C 35.949219 31.707031 35.914062 31.460938 35.691406 30.921875 C 35.582031 30.671875 35.285156 30.425781 35.210938 30.175781 C 35.136719 29.84375 35.210938 29.554688 35.027344 29.304688 C 34.617188 30.007812 34.25 28.890625 34.65625 28.515625 C 34.878906 28.929688 35.0625 28.683594 35.359375 28.804688 C 35.691406 28.972656 35.765625 29.222656 35.988281 29.511719 C 36.28125 30.007812 36.835938 30.382812 36.542969 29.46875 C 36.429688 29.179688 36.097656 29.015625 36.136719 28.722656 C 36.171875 28.351562 36.46875 28.351562 36.691406 28.101562 C 36.984375 27.730469 36.984375 27.4375 36.875 26.941406 C 36.761719 26.484375 36.542969 25.613281 36.136719 25.40625 C 35.839844 25.242188 34.730469 25.367188 35.507812 24.617188 " fill-opacity="1" fill-rule="nonzero"/><path fill="rgb(82.749939%, 96.469116%, 85.879517%)" d="M 12.855469 26.417969 C 12.964844 26.539062 13.140625 26.375 13.25 26.332031 C 13.363281 26.277344 13.472656 26.292969 13.59375 26.261719 C 14.125 26.113281 13.644531 25.613281 13.507812 25.324219 C 13.429688 25.148438 13.339844 24.988281 13.246094 24.847656 C 13.160156 24.941406 13.070312 25.035156 12.980469 25.128906 C 13.121094 25.277344 13.257812 25.445312 13.226562 25.628906 C 13.1875 25.835938 12.609375 26.167969 12.855469 26.417969 " fill-opacity="1" fill-rule="nonzero"/><path fill="rgb(82.749939%, 96.469116%, 85.879517%)" d="M 12.523438 26.058594 C 12.757812 25.867188 12.699219 25.542969 12.675781 25.457031 C 12.488281 25.671875 12.304688 25.886719 12.125 26.109375 C 12.125 26.109375 12.128906 26.109375 12.128906 26.113281 C 12.289062 26.234375 12.375 26.179688 12.523438 26.058594 " fill-opacity="1" fill-rule="nonzero"/><g clip-path="url(#id2)"><path fill="rgb(82.749939%, 96.469116%, 85.879517%)" d="M 29.871094 54.859375 C 26.3125 55.644531 22.5 55.351562 19.070312 54 C 15.640625 52.660156 12.601562 50.246094 10.472656 47.179688 C 8.335938 44.117188 7.132812 40.382812 7.066406 36.597656 C 6.988281 32.8125 8.050781 28.992188 10.121094 25.777344 C 12.175781 22.558594 15.210938 19.945312 18.746094 18.40625 C 22.273438 16.855469 26.289062 16.382812 30.121094 17.078125 C 33.957031 17.757812 37.59375 19.625 40.421875 22.375 C 37.695312 19.523438 34.09375 17.496094 30.203125 16.660156 C 26.316406 15.804688 22.160156 16.132812 18.417969 17.613281 C 14.671875 19.085938 11.371094 21.714844 9.058594 25.0625 C 6.730469 28.410156 5.425781 32.480469 5.359375 36.597656 C 5.28125 40.714844 6.445312 44.875 8.703125 48.371094 C 10.949219 51.871094 14.242188 54.699219 18.09375 56.371094 C 21.933594 58.050781 26.289062 58.558594 30.453125 57.796875 C 32.53125 57.421875 34.5625 56.730469 36.453125 55.757812 C 38.339844 54.789062 40.109375 53.503906 41.613281 52.046875 L 39.230469 49.59375 C 36.707031 52.242188 33.445312 54.078125 29.871094 54.859375 " fill-opacity="1" fill-rule="nonzero"/></g><path fill="rgb(82.749939%, 96.469116%, 85.879517%)" d="M 37.597656 42.625 C 37.441406 42.6875 37.539062 42.785156 37.308594 42.839844 C 37.230469 42.867188 37.109375 42.644531 36.996094 42.671875 C 36.695312 42.671875 36.601562 42.824219 36.34375 43.082031 C 35.851562 43.6875 35.75 43.882812 35.035156 43.953125 C 33.558594 44.085938 34.175781 45.050781 33.578125 46.179688 C 33.269531 46.808594 33.03125 46.902344 33.75 47.125 C 34.289062 47.28125 34.609375 47.117188 35.085938 46.886719 C 35.402344 46.761719 35.921875 46.5 36.28125 46.589844 C 36.925781 46.804688 36.660156 47.394531 37.371094 47.363281 C 37.28125 47.769531 36.96875 48.148438 37.332031 48.488281 C 37.402344 48.539062 38.191406 48.773438 38.300781 48.789062 C 38.351562 48.792969 38.40625 48.792969 38.453125 48.789062 C 38.8125 48.425781 39.144531 48.042969 39.472656 47.652344 L 38.085938 47.003906 C 37.859375 46.890625 37.703125 46.6875 37.664062 46.453125 C 37.628906 46.21875 37.714844 45.980469 37.890625 45.808594 L 38.109375 45.601562 C 38.445312 45.277344 39.039062 45.164062 39.445312 45.164062 C 39.511719 45.164062 39.578125 45.167969 39.644531 45.171875 L 40.875 45.273438 C 40.777344 45.039062 40.675781 44.804688 40.65625 44.589844 C 40.558594 44.199219 40.640625 43.875 40.617188 43.496094 C 40.5625 43.070312 40.347656 42.707031 40.332031 42.285156 L 40.300781 42.238281 C 39.859375 42.179688 39.722656 44.878906 38.941406 43.476562 C 38.726562 43.113281 39.125 42.371094 38.640625 42.097656 C 38.296875 41.882812 37.847656 42.453125 37.597656 42.625 " fill-opacity="1" fill-rule="nonzero"/><g clip-path="url(#id3)"><path fill="rgb(82.749939%, 96.469116%, 85.879517%)" d="M 61.441406 50.636719 L 58.257812 43.988281 C 58.644531 43.800781 59.074219 43.480469 59.476562 43.058594 C 59.539062 42.996094 59.535156 42.886719 59.464844 42.828125 L 58.097656 41.613281 C 58.027344 41.550781 57.921875 41.5625 57.867188 41.628906 C 57.695312 41.839844 57.550781 42.046875 57.429688 42.253906 L 56.9375 41.222656 C 57.316406 41.039062 57.734375 40.722656 58.128906 40.308594 C 58.195312 40.246094 58.1875 40.136719 58.121094 40.074219 L 56.753906 38.863281 C 56.683594 38.804688 56.578125 38.808594 56.523438 38.878906 C 56.359375 39.078125 56.21875 39.28125 56.097656 39.476562 L 55.277344 37.761719 C 55.976562 36.972656 56.808594 36.023438 57.3125 35.453125 C 57.375 35.378906 57.441406 35.304688 57.503906 35.230469 C 59.621094 32.832031 60.722656 30 59.765625 29.148438 C 58.804688 28.296875 56.140625 29.742188 54.03125 32.144531 C 53.964844 32.21875 53.902344 32.292969 53.835938 32.371094 L 53.832031 32.367188 C 53.332031 32.9375 52.496094 33.882812 51.796875 34.675781 L 50.003906 34.070312 C 50.183594 33.925781 50.367188 33.761719 50.542969 33.574219 C 50.605469 33.507812 50.601562 33.402344 50.53125 33.339844 L 49.164062 32.128906 C 49.09375 32.070312 48.992188 32.074219 48.933594 32.144531 C 48.570312 32.589844 48.3125 33.046875 48.171875 33.449219 L 47.09375 33.085938 C 47.285156 32.9375 47.472656 32.765625 47.660156 32.574219 C 47.71875 32.503906 47.714844 32.402344 47.644531 32.339844 L 46.28125 31.128906 C 46.210938 31.066406 46.105469 31.070312 46.050781 31.144531 C 45.683594 31.59375 45.417969 32.0625 45.285156 32.46875 L 38.316406 30.113281 C 37.949219 29.992188 37.398438 30.074219 37.085938 30.300781 L 36.304688 30.863281 C 36.226562 30.921875 36.230469 31.007812 36.308594 31.058594 L 48.539062 38.726562 C 46.355469 41.621094 44.554688 44.175781 43.347656 46.089844 L 39.589844 45.777344 C 39.191406 45.742188 38.714844 45.859375 38.523438 46.042969 L 38.308594 46.246094 C 38.238281 46.316406 38.25 46.40625 38.34375 46.453125 L 42.105469 48.21875 C 41.703125 49.007812 41.554688 49.511719 41.710938 49.652344 C 41.867188 49.789062 42.34375 49.574219 43.074219 49.074219 L 45.289062 52.617188 C 45.339844 52.703125 45.433594 52.703125 45.492188 52.621094 L 45.671875 52.386719 C 45.828125 52.171875 45.886719 51.683594 45.804688 51.289062 L 45.027344 47.566406 C 46.773438 46.117188 49.074219 44.003906 51.664062 41.5 L 60.753906 52.75 C 60.816406 52.824219 60.902344 52.816406 60.949219 52.734375 L 61.410156 51.886719 C 61.597656 51.542969 61.609375 50.988281 61.441406 50.636719 " fill-opacity="1" fill-rule="nonzero"/></g><g fill="rgb(82.749939%, 96.469116%, 85.879517%)" fill-opacity="1"><g transform="translate(63.552181, 57.33857)"><g><path d="M 3.582031 0 L 4.324219 0 L 2.539062 -4.457031 L 1.769531 -4.457031 L -0.0195312 0 L 0.726562 0 L 1.09375 -0.957031 L 3.214844 -0.957031 Z M 1.332031 -1.570312 L 2.15625 -3.71875 L 2.984375 -1.570312 Z M 1.332031 -1.570312 "/></g></g></g><g fill="rgb(82.749939%, 96.469116%, 85.879517%)" fill-opacity="1"><g transform="translate(69.975878, 57.33857)"><g><path d="M 2.699219 -2.511719 L 2.699219 -1.871094 L 3.742188 -1.871094 L 3.742188 -1.082031 C 3.453125 -0.773438 3.070312 -0.617188 2.601562 -0.617188 C 2.152344 -0.617188 1.769531 -0.773438 1.46875 -1.082031 C 1.164062 -1.390625 1.015625 -1.769531 1.015625 -2.226562 C 1.015625 -2.679688 1.171875 -3.058594 1.480469 -3.371094 C 1.789062 -3.679688 2.175781 -3.839844 2.625 -3.839844 C 3.097656 -3.839844 3.488281 -3.667969 3.796875 -3.328125 L 4.308594 -3.773438 C 4.101562 -4 3.84375 -4.175781 3.546875 -4.3125 C 3.246094 -4.445312 2.933594 -4.515625 2.625 -4.515625 C 1.992188 -4.515625 1.449219 -4.289062 1.003906 -3.851562 C 0.558594 -3.40625 0.339844 -2.863281 0.339844 -2.226562 C 0.339844 -1.585938 0.550781 -1.046875 0.992188 -0.605469 C 1.425781 -0.160156 1.960938 0.0585938 2.601562 0.0585938 C 3.078125 0.0585938 3.46875 -0.0703125 3.792969 -0.34375 L 3.828125 0 L 4.421875 0 L 4.421875 -2.511719 Z M 2.699219 -2.511719 "/></g></g></g><g fill="rgb(82.749939%, 96.469116%, 85.879517%)" fill-opacity="1"><g transform="translate(76.934394, 57.33857)"><g><path d="M 3.109375 -3.828125 L 3.109375 -4.457031 L 0.535156 -4.457031 L 0.535156 0 L 3.109375 0 L 3.109375 -0.628906 L 1.21875 -0.628906 L 1.21875 -1.914062 L 2.859375 -1.914062 L 2.859375 -2.542969 L 1.21875 -2.542969 L 1.21875 -3.828125 Z M 3.109375 -3.828125 "/></g></g></g><g fill="rgb(82.749939%, 96.469116%, 85.879517%)" fill-opacity="1"><g transform="translate(82.425143, 57.33857)"><g><path d="M 3.695312 -4.457031 L 3.695312 -1.074219 L 1.175781 -4.457031 L 0.5 -4.457031 L 0.5 0 L 1.183594 0 L 1.183594 -3.394531 L 3.695312 0 L 4.378906 0 L 4.378906 -4.457031 Z M 3.695312 -4.457031 "/></g></g></g><g fill="rgb(82.749939%, 96.469116%, 85.879517%)" fill-opacity="1"><g transform="translate(89.419308, 57.33857)"><g><path d="M 2.6875 0.0585938 C 2.996094 0.0585938 3.304688 -0.0078125 3.605469 -0.144531 C 3.902344 -0.273438 4.160156 -0.457031 4.367188 -0.683594 L 3.855469 -1.128906 C 3.535156 -0.785156 3.148438 -0.617188 2.6875 -0.617188 C 2.234375 -0.617188 1.847656 -0.773438 1.539062 -1.082031 C 1.230469 -1.390625 1.074219 -1.777344 1.074219 -2.226562 C 1.074219 -2.679688 1.230469 -3.058594 1.539062 -3.371094 C 1.847656 -3.679688 2.234375 -3.839844 2.6875 -3.839844 C 3.15625 -3.839844 3.546875 -3.667969 3.855469 -3.328125 L 4.367188 -3.773438 C 4.160156 -4 3.902344 -4.175781 3.605469 -4.3125 C 3.304688 -4.445312 2.996094 -4.515625 2.6875 -4.515625 C 2.050781 -4.515625 1.507812 -4.289062 1.0625 -3.851562 C 0.617188 -3.40625 0.398438 -2.863281 0.398438 -2.226562 C 0.398438 -1.585938 0.617188 -1.046875 1.0625 -0.605469 C 1.507812 -0.160156 2.050781 0.0585938 2.6875 0.0585938 Z M 2.6875 0.0585938 "/></g></g></g><g fill="rgb(82.749939%, 96.469116%, 85.879517%)" fill-opacity="1"><g transform="translate(96.10447, 57.33857)"><g><path d="M 0.535156 0 L 1.21875 0 L 1.21875 -4.457031 L 0.535156 -4.457031 Z M 0.535156 0 "/></g></g></g><g fill="rgb(82.749939%, 96.469116%, 85.879517%)" fill-opacity="1"><g transform="translate(99.967007, 57.33857)"><g><path d="M 3.582031 0 L 4.324219 0 L 2.539062 -4.457031 L 1.769531 -4.457031 L -0.0195312 0 L 0.726562 0 L 1.09375 -0.957031 L 3.214844 -0.957031 Z M 1.332031 -1.570312 L 2.15625 -3.71875 L 2.984375 -1.570312 Z M 1.332031 -1.570312 "/></g></g></g><g fill="rgb(82.749939%, 96.469116%, 85.879517%)" fill-opacity="1"><g transform="translate(106.390707, 57.33857)"><g/></g></g><g fill="rgb(82.749939%, 96.469116%, 85.879517%)" fill-opacity="1"><g transform="translate(110.134394, 57.33857)"><g><path d="M 0.5 0 L 1.816406 0 C 2.464844 0 3 -0.214844 3.429688 -0.640625 C 3.851562 -1.070312 4.066406 -1.597656 4.066406 -2.226562 C 4.066406 -2.851562 3.851562 -3.382812 3.429688 -3.808594 C 3 -4.238281 2.464844 -4.457031 1.816406 -4.457031 L 0.5 -4.457031 Z M 1.183594 -0.640625 L 1.183594 -3.816406 L 1.792969 -3.816406 C 2.253906 -3.816406 2.625 -3.660156 2.921875 -3.363281 C 3.214844 -3.058594 3.363281 -2.679688 3.363281 -2.226562 C 3.363281 -1.769531 3.214844 -1.390625 2.921875 -1.09375 C 2.625 -0.789062 2.253906 -0.640625 1.792969 -0.640625 Z M 1.183594 -0.640625 "/></g></g></g><g fill="rgb(82.749939%, 96.469116%, 85.879517%)" fill-opacity="1"><g transform="translate(116.653171, 57.33857)"><g><path d="M 3.109375 -3.828125 L 3.109375 -4.457031 L 0.535156 -4.457031 L 0.535156 0 L 3.109375 0 L 3.109375 -0.628906 L 1.21875 -0.628906 L 1.21875 -1.914062 L 2.859375 -1.914062 L 2.859375 -2.542969 L 1.21875 -2.542969 L 1.21875 -3.828125 Z M 3.109375 -3.828125 "/></g></g></g><g fill="rgb(82.749939%, 96.469116%, 85.879517%)" fill-opacity="1"><g transform="translate(122.143922, 57.33857)"><g/></g></g><g fill="rgb(82.749939%, 96.469116%, 85.879517%)" fill-opacity="1"><g transform="translate(125.887609, 57.33857)"><g><path d="M 3.546875 -4.457031 L 2.140625 -0.75 L 0.730469 -4.457031 L -0.0351562 -4.457031 L 1.753906 0 L 2.519531 0 L 4.308594 -4.457031 Z M 3.546875 -4.457031 "/></g></g></g><g fill="rgb(82.749939%, 96.469116%, 85.879517%)" fill-opacity="1"><g transform="translate(132.275659, 57.33857)"><g><path d="M 0.535156 0 L 1.21875 0 L 1.21875 -4.457031 L 0.535156 -4.457031 Z M 0.535156 0 "/></g></g></g><g fill="rgb(82.749939%, 96.469116%, 85.879517%)" fill-opacity="1"><g transform="translate(136.138196, 57.33857)"><g><path d="M 3.582031 0 L 4.324219 0 L 2.539062 -4.457031 L 1.769531 -4.457031 L -0.0195312 0 L 0.726562 0 L 1.09375 -0.957031 L 3.214844 -0.957031 Z M 1.332031 -1.570312 L 2.15625 -3.71875 L 2.984375 -1.570312 Z M 1.332031 -1.570312 "/></g></g></g><g fill="rgb(82.749939%, 96.469116%, 85.879517%)" fill-opacity="1"><g transform="translate(142.561895, 57.33857)"><g><path d="M 2.699219 -2.511719 L 2.699219 -1.871094 L 3.742188 -1.871094 L 3.742188 -1.082031 C 3.453125 -0.773438 3.070312 -0.617188 2.601562 -0.617188 C 2.152344 -0.617188 1.769531 -0.773438 1.46875 -1.082031 C 1.164062 -1.390625 1.015625 -1.769531 1.015625 -2.226562 C 1.015625 -2.679688 1.171875 -3.058594 1.480469 -3.371094 C 1.789062 -3.679688 2.175781 -3.839844 2.625 -3.839844 C 3.097656 -3.839844 3.488281 -3.667969 3.796875 -3.328125 L 4.308594 -3.773438 C 4.101562 -4 3.84375 -4.175781 3.546875 -4.3125 C 3.246094 -4.445312 2.933594 -4.515625 2.625 -4.515625 C 1.992188 -4.515625 1.449219 -4.289062 1.003906 -3.851562 C 0.558594 -3.40625 0.339844 -2.863281 0.339844 -2.226562 C 0.339844 -1.585938 0.550781 -1.046875 0.992188 -0.605469 C 1.425781 -0.160156 1.960938 0.0585938 2.601562 0.0585938 C 3.078125 0.0585938 3.46875 -0.0703125 3.792969 -0.34375 L 3.828125 0 L 4.421875 0 L 4.421875 -2.511719 Z M 2.699219 -2.511719 "/></g></g></g><g fill="rgb(82.749939%, 96.469116%, 85.879517%)" fill-opacity="1"><g transform="translate(149.520413, 57.33857)"><g><path d="M 3.109375 -3.828125 L 3.109375 -4.457031 L 0.535156 -4.457031 L 0.535156 0 L 3.109375 0 L 3.109375 -0.628906 L 1.21875 -0.628906 L 1.21875 -1.914062 L 2.859375 -1.914062 L 2.859375 -2.542969 L 1.21875 -2.542969 L 1.21875 -3.828125 Z M 3.109375 -3.828125 "/></g></g></g><g fill="rgb(82.749939%, 96.469116%, 85.879517%)" fill-opacity="1"><g transform="translate(155.011164, 57.33857)"><g><path d="M 3.695312 -4.457031 L 3.695312 -1.074219 L 1.175781 -4.457031 L 0.5 -4.457031 L 0.5 0 L 1.183594 0 L 1.183594 -3.394531 L 3.695312 0 L 4.378906 0 L 4.378906 -4.457031 Z M 3.695312 -4.457031 "/></g></g></g><g fill="rgb(82.749939%, 96.469116%, 85.879517%)" fill-opacity="1"><g transform="translate(162.005331, 57.33857)"><g><path d="M 1.71875 0.0585938 C 2.121094 0.0585938 2.464844 -0.0546875 2.738281 -0.285156 C 3.011719 -0.511719 3.148438 -0.820312 3.148438 -1.210938 C 3.148438 -1.425781 3.109375 -1.609375 3.03125 -1.769531 C 2.953125 -1.929688 2.851562 -2.0625 2.726562 -2.15625 C 2.601562 -2.253906 2.464844 -2.335938 2.316406 -2.40625 C 2.164062 -2.476562 2.015625 -2.542969 1.867188 -2.601562 C 1.710938 -2.65625 1.574219 -2.714844 1.449219 -2.773438 C 1.324219 -2.835938 1.222656 -2.910156 1.148438 -3.007812 C 1.070312 -3.101562 1.035156 -3.207031 1.035156 -3.339844 C 1.035156 -3.511719 1.09375 -3.644531 1.210938 -3.738281 C 1.332031 -3.832031 1.484375 -3.878906 1.667969 -3.878906 C 1.980469 -3.878906 2.242188 -3.75 2.441406 -3.488281 L 2.921875 -3.929688 C 2.78125 -4.105469 2.597656 -4.25 2.375 -4.355469 C 2.15625 -4.460938 1.917969 -4.515625 1.667969 -4.515625 C 1.300781 -4.515625 0.988281 -4.402344 0.738281 -4.183594 C 0.480469 -3.957031 0.355469 -3.660156 0.355469 -3.285156 C 0.355469 -3.085938 0.390625 -2.910156 0.46875 -2.761719 C 0.546875 -2.609375 0.648438 -2.488281 0.773438 -2.402344 C 0.898438 -2.3125 1.035156 -2.234375 1.1875 -2.164062 C 1.335938 -2.089844 1.484375 -2.03125 1.640625 -1.972656 C 1.789062 -1.914062 1.925781 -1.855469 2.050781 -1.792969 C 2.175781 -1.730469 2.277344 -1.644531 2.351562 -1.550781 C 2.429688 -1.449219 2.472656 -1.335938 2.472656 -1.207031 C 2.472656 -1.015625 2.402344 -0.863281 2.265625 -0.753906 C 2.121094 -0.648438 1.941406 -0.59375 1.722656 -0.59375 C 1.496094 -0.59375 1.296875 -0.648438 1.128906 -0.765625 C 0.960938 -0.878906 0.835938 -1.035156 0.753906 -1.234375 L 0.171875 -0.878906 C 0.304688 -0.59375 0.503906 -0.367188 0.777344 -0.195312 C 1.050781 -0.0234375 1.367188 0.0585938 1.71875 0.0585938 Z M 1.71875 0.0585938 "/></g></g></g></svg>