<svg xmlns="http://www.w3.org/2000/svg" xmlns:xlink="http://www.w3.org/1999/xlink" width="64" zoomAndPan="magnify" viewBox="0 0 48 48" height="64" preserveAspectRatio="xMidYMid meet" version="1.0"><defs><clipPath id="id1"><path d="M 0.488281 6.039062 L 30.878906 6.039062 L 30.878906 41.269531 L 0.488281 41.269531 Z M 0.488281 6.039062 " clip-rule="nonzero"/></clipPath><clipPath id="id2"><path d="M 26 16 L 47.507812 16 L 47.507812 37 L 26 37 Z M 26 16 " clip-rule="nonzero"/></clipPath></defs><path fill="rgb(82.749939%, 96.469116%, 85.879517%)" d="M 14.289062 28.367188 C 14.226562 28.75 14.132812 29.757812 14.503906 29.863281 C 15.03125 29.96875 15.121094 29.027344 15.277344 28.679688 C 15.460938 28.226562 15.871094 27.390625 15.308594 27.289062 C 14.964844 27.222656 14.382812 27.808594 14.289062 28.367188 " fill-opacity="1" fill-rule="nonzero"/><path fill="rgb(82.749939%, 96.469116%, 85.879517%)" d="M 27.078125 33.988281 C 27.042969 34.175781 27.09375 34.277344 27.183594 34.320312 C 27.398438 34.136719 27.609375 33.945312 27.8125 33.75 C 27.6875 33.46875 27.152344 33.605469 27.078125 33.988281 " fill-opacity="1" fill-rule="nonzero"/><path fill="rgb(82.749939%, 96.469116%, 85.879517%)" d="M 31.410156 25.128906 C 31.410156 25.128906 31.382812 25.121094 31.378906 25.128906 C 31.195312 25.460938 30.761719 26 31.316406 26 C 31.78125 25.964844 31.8125 25.234375 31.410156 25.128906 " fill-opacity="1" fill-rule="nonzero"/><path fill="rgb(82.749939%, 96.469116%, 85.879517%)" d="M 28.875 25.234375 C 28.566406 25.582031 28.78125 25.40625 29.089844 25.6875 C 29.277344 25.859375 29.492188 26.417969 29.710938 26.488281 C 30.050781 26.660156 30.140625 26.207031 30.542969 26.382812 C 30.824219 26.453125 30.914062 27.078125 31.253906 26.765625 C 31.253906 26.765625 31.28125 26.742188 31.285156 26.730469 C 31.425781 26.46875 30.542969 25.824219 30.296875 25.269531 C 30.085938 24.792969 29.214844 24.847656 28.875 25.234375 " fill-opacity="1" fill-rule="nonzero"/><path fill="rgb(82.749939%, 96.469116%, 85.879517%)" d="M 28.320312 25.023438 C 28.472656 25.269531 28.8125 24.992188 28.71875 24.847656 C 28.65625 24.753906 28.132812 24.78125 28.320312 25.023438 " fill-opacity="1" fill-rule="nonzero"/><path fill="rgb(82.749939%, 96.469116%, 85.879517%)" d="M 27.238281 22.621094 C 27.207031 22.863281 26.988281 22.898438 26.804688 22.898438 C 26.988281 23.734375 27.960938 23.394531 27.484375 22.707031 C 27.445312 22.652344 27.300781 22.585938 27.238281 22.621094 " fill-opacity="1" fill-rule="nonzero"/><path fill="rgb(82.749939%, 96.469116%, 85.879517%)" d="M 26.496094 20.914062 C 26.472656 20.90625 26.402344 20.914062 26.402344 20.914062 C 25.96875 20.984375 26.3125 22.097656 26.496094 22.132812 C 26.804688 22.203125 26.695312 21.007812 26.496094 20.914062 " fill-opacity="1" fill-rule="nonzero"/><path fill="rgb(82.749939%, 96.469116%, 85.879517%)" d="M 26.648438 22.238281 L 26.648438 22.273438 C 26.679688 22.480469 26.742188 22.621094 26.925781 22.585938 C 26.988281 22.308594 26.804688 22.132812 26.648438 22.238281 " fill-opacity="1" fill-rule="nonzero"/><path fill="rgb(82.749939%, 96.469116%, 85.879517%)" d="M 26.371094 22.449219 C 26.1875 22.480469 26 22.691406 25.96875 22.898438 C 26.21875 23.003906 26.433594 22.761719 26.371094 22.449219 " fill-opacity="1" fill-rule="nonzero"/><path fill="rgb(82.749939%, 96.469116%, 85.879517%)" d="M 26.433594 24.605469 L 26.402344 24.640625 C 26.339844 24.847656 26.25 25.441406 26.339844 25.617188 C 26.589844 26.070312 26.648438 25.441406 26.621094 25.164062 C 26.835938 25.234375 26.898438 25.582031 27.019531 25.789062 C 27.144531 25.441406 26.773438 24.988281 27.082031 24.710938 C 26.898438 24.257812 26.679688 24.953125 26.433594 24.605469 " fill-opacity="1" fill-rule="nonzero"/><path fill="rgb(82.749939%, 96.469116%, 85.879517%)" d="M 25.96875 26.3125 C 25.976562 26.3125 25.992188 26.3125 26 26.3125 C 26.496094 26.3125 25.539062 25.929688 25.230469 25.859375 C 25.199219 25.859375 24.394531 25.894531 24.363281 25.929688 C 23.898438 26.519531 25.816406 26.3125 25.96875 26.3125 " fill-opacity="1" fill-rule="nonzero"/><path fill="rgb(82.749939%, 96.469116%, 85.879517%)" d="M 25.382812 23.875 C 25.230469 24.015625 24.949219 23.910156 24.828125 24.050781 C 24.609375 24.257812 24.703125 24.363281 24.734375 24.605469 C 24.765625 25.164062 24.890625 25.023438 25.199219 25.199219 C 25.785156 25.546875 25.9375 25.199219 26.1875 24.535156 C 26.21875 24.433594 26.371094 23.804688 26.371094 23.769531 C 26.339844 23.492188 26.007812 23.164062 25.816406 23.179688 C 25.550781 23.199219 25.597656 23.699219 25.382812 23.875 " fill-opacity="1" fill-rule="nonzero"/><path fill="rgb(82.749939%, 96.469116%, 85.879517%)" d="M 27.578125 16.285156 C 27.609375 16.25 27.699219 16.144531 27.730469 16.109375 C 27.917969 16.179688 28.566406 16.214844 28.351562 15.796875 C 28.351562 15.761719 27.730469 15.554688 27.640625 15.449219 L 27.640625 15.378906 C 27.546875 15.519531 27.515625 16.074219 27.578125 16.285156 " fill-opacity="1" fill-rule="nonzero"/><path fill="rgb(82.749939%, 96.469116%, 85.879517%)" d="M 20.347656 22.832031 C 19.945312 22.832031 20.007812 23.769531 20.5625 23.421875 C 20.53125 23.316406 20.5 23.109375 20.40625 23.003906 L 20.375 23.074219 C 20.375 22.96875 20.375 22.898438 20.347656 22.832031 " fill-opacity="1" fill-rule="nonzero"/><path fill="rgb(82.749939%, 96.469116%, 85.879517%)" d="M 24.117188 25.824219 C 24.238281 25.753906 24.300781 25.511719 24.269531 25.40625 C 24.238281 24.988281 23.808594 25.09375 23.808594 24.605469 L 23.777344 24.570312 C 23.683594 24.328125 23.40625 24.222656 23.21875 24.015625 C 23.035156 23.804688 22.972656 23.386719 22.664062 23.5625 C 22.695312 23.910156 23.035156 24.257812 23.21875 24.535156 C 23.40625 24.882812 23.527344 25.199219 23.808594 25.511719 C 23.960938 25.652344 23.808594 25.929688 24.117188 25.824219 " fill-opacity="1" fill-rule="nonzero"/><path fill="rgb(82.749939%, 96.469116%, 85.879517%)" d="M 28.78125 14.265625 C 28.785156 14.265625 28.785156 14.265625 28.785156 14.261719 C 28.480469 13.890625 28.15625 13.535156 27.816406 13.195312 C 27.824219 13.253906 27.835938 13.308594 27.855469 13.359375 C 27.917969 13.566406 28.566406 14.367188 28.78125 14.265625 " fill-opacity="1" fill-rule="nonzero"/><path fill="rgb(82.749939%, 96.469116%, 85.879517%)" d="M 13.023438 20.21875 C 12.828125 19.816406 12.785156 19.335938 12.625 18.9375 C 12.753906 19.042969 12.902344 19.144531 13.023438 19.277344 C 13.332031 19.59375 13.394531 20.078125 13.640625 20.425781 C 13.824219 20.671875 14.011719 20.878906 14.132812 21.195312 C 14.207031 21.332031 14.210938 21.839844 14.269531 22.101562 C 13.632812 21.773438 13.328125 20.9375 13.023438 20.21875 Z M 25.691406 13.117188 C 26 12.835938 26.433594 13.082031 26.742188 12.941406 C 26.824219 12.910156 27.109375 12.699219 27.207031 12.621094 C 26.398438 11.894531 26.550781 11.585938 25.511719 11.261719 C 25.398438 11.226562 25.511719 11.261719 24.207031 10.710938 C 22.8125 10.121094 20.964844 11.027344 19.542969 10.261719 C 18.863281 9.914062 18.335938 9.84375 17.5625 10.015625 C 17.316406 10.085938 17.007812 10.121094 16.730469 10.191406 C 16.171875 10.363281 16.171875 10.644531 15.804688 10.992188 C 15.742188 10.644531 15.773438 10.363281 15.433594 10.328125 C 14.96875 10.261719 15.152344 10.503906 15.0625 10.746094 C 15 10.957031 15.246094 10.992188 15.0625 11.164062 C 15.03125 11.164062 14.660156 11.132812 14.597656 11.132812 C 14.382812 11.164062 14.101562 11.234375 13.886719 11.269531 C 13.421875 11.375 12.960938 11.339844 12.558594 11.617188 C 12 12 11.878906 12.351562 11.382812 11.6875 C 11.816406 11.652344 12.402344 11.6875 11.816406 11.234375 C 11.507812 11.027344 11.011719 10.886719 10.640625 10.816406 C 10.539062 10.804688 10.441406 10.796875 10.347656 10.792969 C 9.835938 11.082031 9.34375 11.402344 8.875 11.75 C 8.632812 12.015625 8.144531 12.355469 8.167969 12.59375 C 8.199219 13.046875 8.386719 12.765625 8.570312 12.90625 C 8.726562 13.011719 8.820312 13.117188 8.972656 13.253906 C 9.160156 13.464844 9.160156 13.671875 9.46875 13.566406 C 9.652344 13.535156 9.839844 13.253906 9.839844 13.082031 C 9.839844 12.730469 9.5 12.699219 9.5625 12.351562 C 9.5625 12.210938 9.929688 11.757812 10.023438 11.722656 C 10.671875 11.511719 9.777344 12.417969 10.054688 12.765625 C 10.332031 13.082031 10.949219 12.523438 10.457031 13.21875 C 10.425781 13.21875 10.179688 13.359375 10.148438 13.359375 C 10.117188 13.394531 10.179688 13.636719 10.085938 13.742188 C 9.992188 13.847656 9.714844 13.882812 9.621094 13.917969 C 9.128906 13.984375 8.789062 13.847656 8.570312 13.464844 C 8.355469 13.847656 8.109375 14.195312 7.800781 14.472656 C 7.644531 14.578125 7.273438 14.648438 7.179688 14.75 C 6.902344 15.101562 7.148438 14.960938 7.210938 15.308594 C 7.335938 16.109375 7.085938 15.761719 6.59375 15.796875 C 5.480469 15.902344 6.253906 18.164062 7.242188 17.257812 C 7.613281 16.910156 7.582031 16.457031 8.046875 16.179688 C 8.539062 15.867188 8.847656 15.902344 9.25 16.355469 C 9.4375 16.5625 9.929688 17.539062 9.929688 16.738281 C 9.929688 16.214844 9.128906 16.179688 9.28125 15.691406 C 9.992188 15.832031 10.085938 16.5625 10.488281 17.085938 C 11.199219 18.027344 10.46875 16.910156 11.191406 16.519531 C 11.367188 16.421875 11.292969 15.9375 11.539062 15.726562 C 11.753906 15.554688 11.910156 15.867188 12.1875 15.761719 C 12.09375 14.960938 12.992188 15.621094 13.207031 15.902344 C 13.640625 16.527344 13.394531 16.527344 12.898438 16.457031 C 12.589844 16.421875 12.28125 16.457031 11.96875 16.457031 C 11.570312 16.492188 10.828125 16.945312 11.507812 17.398438 C 11.660156 17.46875 12.03125 17.398438 12.15625 17.363281 C 12.445312 17.28125 12.53125 17.328125 12.597656 17.351562 C 13.207031 17.550781 12.496094 18.027344 12.402344 18.304688 C 12.367188 18.390625 12.351562 18.464844 12.355469 18.535156 C 12.136719 18.355469 11.925781 18.476562 11.570312 18.476562 C 11.199219 18.441406 11.199219 18.269531 10.890625 18.128906 C 10.269531 17.886719 10.609375 18.476562 10.207031 18.617188 C 9.929688 18.6875 9.40625 17.957031 9.3125 17.78125 C 9.128906 17.433594 9.175781 17.078125 8.601562 17.328125 C 8.191406 17.507812 7.582031 17.503906 6.996094 17.605469 C 6.65625 17.675781 6.191406 17.640625 5.976562 18.027344 C 5.757812 18.40625 5.820312 18.824219 5.605469 19.242188 C 5.386719 19.660156 5.019531 19.800781 4.769531 20.148438 C 4.460938 20.636719 4.800781 21.019531 4.863281 21.542969 C 4.894531 21.855469 4.769531 22.273438 4.832031 22.550781 C 4.957031 23.003906 5.386719 23.28125 5.667969 23.527344 C 6.007812 23.839844 6.253906 24.292969 6.6875 24.292969 C 7.148438 24.292969 7.335938 23.769531 7.738281 23.632812 C 8.109375 23.527344 8.570312 23.804688 8.757812 24.1875 C 8.972656 24.605469 8.757812 24.988281 8.878906 25.371094 C 8.972656 25.789062 9.25 26.070312 9.3125 26.488281 C 9.375 26.972656 9.3125 27.289062 9.25 27.703125 C 9.097656 28.679688 9.46875 29.203125 9.714844 30.109375 C 9.867188 30.769531 9.960938 32.023438 10.796875 32.023438 C 11.539062 32.023438 12.433594 30.421875 12.835938 29.828125 C 13.113281 29.410156 12.960938 29.027344 13.113281 28.609375 C 13.269531 28.226562 13.734375 28.15625 13.917969 27.703125 C 14.226562 26.871094 13.421875 26.347656 13.917969 25.476562 C 14.382812 24.640625 15.371094 24.152344 15.710938 23.214844 C 16.082031 22.203125 15.371094 22.308594 14.722656 22.238281 C 14.679688 22.234375 14.640625 22.226562 14.601562 22.21875 C 14.875 22.054688 15.246094 21.628906 15.460938 21.507812 C 15.773438 21.332031 16.574219 20.84375 16.667969 20.460938 C 16.792969 20.011719 16.304688 19.542969 15.957031 19.59375 C 15.777344 19.617188 15.742188 19.835938 15.617188 19.941406 C 15.402344 19.695312 14.597656 18.757812 15.03125 18.6875 C 15.308594 18.617188 15.433594 19 15.648438 19.140625 C 15.742188 19.207031 15.925781 19.171875 16.019531 19.207031 C 16.082031 19.277344 16.296875 19.453125 16.359375 19.488281 C 16.824219 19.660156 17.441406 19.417969 17.875 19.695312 C 18.121094 19.871094 18.121094 20.253906 18.335938 20.394531 C 18.460938 20.496094 18.644531 20.324219 18.675781 20.359375 C 18.894531 20.496094 18.769531 20.53125 18.894531 20.742188 C 19.109375 21.160156 19.265625 21.472656 19.324219 21.925781 C 19.386719 22.34375 19.449219 23.214844 19.945312 22.726562 C 20.191406 22.414062 20.066406 22.027344 20.160156 21.679688 C 20.253906 21.230469 20.65625 20.84375 20.996094 20.566406 C 21.394531 20.183594 21.738281 20.042969 22.078125 20.601562 C 22.230469 20.84375 22.230469 21.019531 22.445312 21.230469 C 22.632812 21.4375 22.757812 21.402344 22.878906 21.714844 C 23.003906 22.132812 22.941406 22.550781 23.097656 23.003906 C 23.21875 23.351562 23.3125 24.117188 23.683594 24.222656 C 23.808594 24.117188 23.777344 24.050781 23.808594 23.910156 C 23.867188 23.421875 23.34375 23.109375 23.21875 22.726562 C 23.003906 21.890625 23.496094 22.027344 23.835938 22.480469 C 24.054688 22.726562 23.898438 23.003906 24.269531 22.832031 C 24.425781 22.761719 24.546875 22.414062 24.578125 22.273438 C 24.671875 21.578125 23.960938 21.332031 24.023438 20.84375 C 24.117188 20.359375 24.671875 20.425781 24.980469 20.359375 C 25.445312 20.253906 25.597656 20.042969 25.847656 19.523438 C 26.0625 19.070312 26.03125 18.859375 25.847656 18.40625 C 25.753906 18.199219 25.507812 17.992188 25.445312 17.78125 C 25.382812 17.503906 25.445312 17.257812 25.289062 17.050781 C 24.949219 17.640625 24.640625 16.703125 24.980469 16.386719 C 25.167969 16.738281 25.320312 16.527344 25.570312 16.632812 C 25.847656 16.773438 25.910156 16.980469 26.09375 17.222656 C 26.339844 17.640625 26.804688 17.957031 26.558594 17.1875 C 26.464844 16.945312 26.1875 16.804688 26.21875 16.5625 C 26.25 16.25 26.496094 16.25 26.679688 16.039062 C 26.925781 15.726562 26.925781 15.484375 26.835938 15.066406 C 26.742188 14.683594 26.558594 13.949219 26.21875 13.777344 C 25.96875 13.636719 25.042969 13.742188 25.691406 13.117188 " fill-opacity="1" fill-rule="nonzero"/><path fill="rgb(82.749939%, 96.469116%, 85.879517%)" d="M 6.757812 14.625 C 6.851562 14.730469 6.996094 14.589844 7.085938 14.554688 C 7.179688 14.507812 7.273438 14.519531 7.375 14.496094 C 7.820312 14.367188 7.417969 13.949219 7.304688 13.707031 C 7.238281 13.558594 7.160156 13.425781 7.085938 13.308594 C 7.011719 13.386719 6.9375 13.464844 6.863281 13.542969 C 6.980469 13.667969 7.09375 13.8125 7.066406 13.960938 C 7.035156 14.136719 6.550781 14.414062 6.757812 14.625 " fill-opacity="1" fill-rule="nonzero"/><path fill="rgb(82.749939%, 96.469116%, 85.879517%)" d="M 6.480469 14.324219 C 6.675781 14.164062 6.625 13.894531 6.609375 13.820312 C 6.449219 14 6.296875 14.179688 6.148438 14.367188 C 6.285156 14.472656 6.355469 14.425781 6.480469 14.324219 " fill-opacity="1" fill-rule="nonzero"/><g clip-path="url(#id1)"><path fill="rgb(82.749939%, 96.469116%, 85.879517%)" d="M 20.984375 38.511719 C 18.007812 39.171875 14.820312 38.925781 11.953125 37.789062 C 9.085938 36.664062 6.546875 34.640625 4.765625 32.0625 C 2.980469 29.488281 1.972656 26.355469 1.917969 23.175781 C 1.855469 19.996094 2.742188 16.789062 4.46875 14.089844 C 6.191406 11.386719 8.726562 9.1875 11.679688 7.898438 C 14.632812 6.59375 17.984375 6.199219 21.191406 6.78125 C 24.398438 7.351562 27.4375 8.917969 29.800781 11.230469 C 27.523438 8.835938 24.511719 7.132812 21.257812 6.429688 C 18.011719 5.714844 14.535156 5.988281 11.410156 7.234375 C 8.277344 8.46875 5.519531 10.675781 3.582031 13.488281 C 1.636719 16.296875 0.546875 19.71875 0.492188 23.175781 C 0.425781 26.632812 1.398438 30.125 3.285156 33.0625 C 5.164062 36.003906 7.917969 38.378906 11.136719 39.78125 C 14.347656 41.195312 17.988281 41.621094 21.46875 40.980469 C 23.207031 40.664062 24.902344 40.085938 26.484375 39.265625 C 28.058594 38.453125 29.539062 37.375 30.796875 36.152344 L 28.804688 34.09375 C 26.695312 36.316406 23.96875 37.855469 20.984375 38.511719 " fill-opacity="1" fill-rule="nonzero"/></g><path fill="rgb(82.749939%, 96.469116%, 85.879517%)" d="M 27.441406 28.238281 C 27.308594 28.292969 27.390625 28.371094 27.199219 28.417969 C 27.132812 28.441406 27.035156 28.253906 26.9375 28.277344 C 26.6875 28.277344 26.609375 28.40625 26.390625 28.621094 C 25.980469 29.128906 25.898438 29.292969 25.296875 29.351562 C 24.0625 29.464844 24.582031 30.273438 24.078125 31.222656 C 23.820312 31.75 23.625 31.832031 24.222656 32.015625 C 24.671875 32.148438 24.941406 32.007812 25.339844 31.816406 C 25.605469 31.714844 26.039062 31.492188 26.339844 31.566406 C 26.878906 31.746094 26.65625 32.242188 27.25 32.21875 C 27.175781 32.558594 26.914062 32.875 27.21875 33.164062 C 27.277344 33.207031 27.9375 33.402344 28.027344 33.414062 C 28.070312 33.417969 28.113281 33.417969 28.15625 33.414062 C 28.453125 33.109375 28.734375 32.789062 29.007812 32.460938 L 27.847656 31.914062 C 27.65625 31.820312 27.527344 31.652344 27.496094 31.453125 C 27.46875 31.257812 27.539062 31.054688 27.683594 30.914062 L 27.867188 30.738281 C 28.148438 30.464844 28.644531 30.371094 28.984375 30.371094 C 29.042969 30.371094 29.097656 30.371094 29.152344 30.375 L 30.179688 30.464844 C 30.097656 30.265625 30.015625 30.066406 29.996094 29.886719 C 29.914062 29.558594 29.984375 29.289062 29.964844 28.96875 C 29.917969 28.609375 29.738281 28.304688 29.726562 27.953125 L 29.699219 27.914062 C 29.332031 27.863281 29.214844 30.132812 28.5625 28.953125 C 28.382812 28.648438 28.71875 28.027344 28.3125 27.792969 C 28.023438 27.613281 27.648438 28.089844 27.441406 28.238281 " fill-opacity="1" fill-rule="nonzero"/><g clip-path="url(#id2)"><path fill="rgb(82.749939%, 96.469116%, 85.879517%)" d="M 47.371094 34.96875 L 44.710938 29.382812 C 45.035156 29.222656 45.394531 28.957031 45.730469 28.601562 C 45.78125 28.550781 45.777344 28.457031 45.71875 28.40625 L 44.578125 27.386719 C 44.519531 27.335938 44.429688 27.34375 44.382812 27.402344 C 44.242188 27.578125 44.121094 27.75 44.015625 27.925781 L 43.605469 27.058594 C 43.921875 26.90625 44.273438 26.640625 44.605469 26.292969 C 44.65625 26.238281 44.652344 26.148438 44.59375 26.09375 L 43.453125 25.078125 C 43.394531 25.027344 43.308594 25.03125 43.261719 25.09375 C 43.121094 25.257812 43.007812 25.429688 42.90625 25.59375 L 42.21875 24.15625 C 42.800781 23.492188 43.5 22.691406 43.921875 22.214844 L 43.917969 22.214844 C 43.972656 22.152344 44.027344 22.089844 44.082031 22.027344 C 45.851562 20.011719 46.773438 17.636719 45.972656 16.921875 C 45.167969 16.203125 42.941406 17.417969 41.175781 19.4375 C 41.121094 19.5 41.066406 19.558594 41.011719 19.625 L 41.011719 19.621094 C 40.59375 20.101562 39.894531 20.898438 39.3125 21.5625 L 37.8125 21.054688 C 37.960938 20.933594 38.113281 20.792969 38.261719 20.636719 C 38.316406 20.582031 38.308594 20.492188 38.253906 20.441406 L 37.109375 19.421875 C 37.050781 19.371094 36.964844 19.378906 36.914062 19.4375 C 36.613281 19.808594 36.398438 20.195312 36.28125 20.53125 L 35.378906 20.226562 C 35.539062 20.101562 35.695312 19.957031 35.851562 19.796875 C 35.902344 19.738281 35.898438 19.652344 35.839844 19.601562 L 34.699219 18.582031 C 34.640625 18.53125 34.554688 18.535156 34.503906 18.59375 C 34.199219 18.972656 33.976562 19.367188 33.867188 19.710938 L 28.039062 17.730469 C 27.734375 17.628906 27.273438 17.695312 27.011719 17.886719 L 26.359375 18.359375 C 26.292969 18.410156 26.296875 18.480469 26.363281 18.523438 L 36.585938 24.964844 C 34.761719 27.394531 33.257812 29.539062 32.246094 31.148438 L 29.105469 30.882812 C 28.773438 30.855469 28.371094 30.957031 28.214844 31.109375 L 28.035156 31.28125 C 27.972656 31.339844 27.984375 31.414062 28.0625 31.453125 L 31.207031 32.933594 C 30.871094 33.601562 30.75 34.023438 30.878906 34.140625 C 31.007812 34.253906 31.40625 34.074219 32.015625 33.65625 L 33.871094 36.628906 C 33.914062 36.699219 33.992188 36.703125 34.039062 36.632812 L 34.1875 36.4375 C 34.320312 36.257812 34.371094 35.84375 34.300781 35.511719 L 33.648438 32.386719 C 35.109375 31.167969 37.035156 29.394531 39.199219 27.292969 L 46.796875 36.742188 C 46.847656 36.804688 46.921875 36.796875 46.960938 36.726562 L 47.347656 36.015625 C 47.5 35.730469 47.511719 35.261719 47.371094 34.96875 " fill-opacity="1" fill-rule="nonzero"/></g></svg>