<svg xmlns="http://www.w3.org/2000/svg" xmlns:xlink="http://www.w3.org/1999/xlink" width="800" zoomAndPan="magnify" viewBox="0 0 600 749.999995" height="1000" preserveAspectRatio="xMidYMid meet" version="1.0"><defs><clipPath id="id1"><path d="M 3.886719 0 L 558 0 L 558 276 L 3.886719 276 Z M 3.886719 0 " clip-rule="nonzero"/></clipPath></defs><path fill="rgb(60.778809%, 23.919678%, 15.689087%)" d="M 473.132812 434.960938 L 444.628906 556.179688 L 405.230469 547.582031 L 404.523438 411.21875 Z M 558.332031 446.316406 L 546.730469 579.746094 L 493.503906 578.117188 L 488.058594 455.660156 L 558.332031 446.316406 " fill-opacity="1" fill-rule="evenodd"/><path fill="rgb(15.689087%, 26.269531%, 47.44873%)" d="M 552.035156 293.78125 L 436.632812 278.25 L 384.078125 415.710938 L 403.707031 433.191406 L 448.660156 439.984375 L 485.757812 455.234375 L 536.015625 458.703125 L 591.292969 441.648438 L 552.035156 293.78125 " fill-opacity="1" fill-rule="evenodd"/><path fill="rgb(98.81897%, 90.979004%, 80.778503%)" d="M 467.296875 109.757812 L 456.898438 117.152344 C 456.898438 117.152344 431.964844 121.609375 420.296875 149.953125 C 408.660156 178.328125 372.515625 212.898438 372.515625 212.898438 L 394.300781 252.984375 L 419.304688 232.074219 L 437.625 258.082031 C 437.625 258.082031 431.363281 277.648438 437.625 283.132812 C 444.628906 289.253906 456.96875 286.566406 479.605469 294.773438 C 488.835938 298.132812 498.597656 305.175781 508.074219 306.660156 C 529.859375 310.09375 547.121094 299.726562 553.945312 294.066406 C 558.71875 290.066406 588.5 273.898438 592.707031 256.382812 C 597.375 236.886719 596.703125 212.191406 581.992188 177.300781 C 569.542969 147.933594 561.265625 128.121094 545 122.070312 C 537.324219 119.203125 506.660156 107.777344 506.660156 107.777344 L 467.296875 109.757812 " fill-opacity="1" fill-rule="evenodd"/><path fill="rgb(60.778809%, 23.919678%, 15.689087%)" d="M 511.753906 58.804688 C 511.753906 58.804688 505.5625 20.945312 478.828125 23.882812 C 448.800781 27.136719 450.074219 62.875 453.789062 77.734375 C 457.078125 91.003906 468.183594 93.515625 468.183594 93.515625 C 468.183594 93.515625 470.691406 100.910156 468.183594 108.695312 C 466.273438 114.605469 476.742188 118.070312 481.089844 118.957031 C 488.554688 120.441406 506.589844 108.695312 506.589844 108.695312 C 506.589844 108.695312 503.511719 102.46875 503.511719 99.105469 C 503.511719 94.96875 506.589844 83.890625 506.589844 83.890625 C 523.566406 84.386719 525.757812 69.207031 525.191406 65.175781 C 522.929688 48.15625 511.753906 58.804688 511.753906 58.804688 " fill-opacity="1" fill-rule="evenodd"/><path fill="rgb(15.289307%, 9.799194%, 9.799194%)" d="M 435.363281 629.707031 L 434.902344 663.566406 C 434.902344 663.566406 353.839844 666.503906 348.324219 660.101562 C 342.84375 653.695312 401.867188 625.105469 401.867188 625.105469 Z M 533.929688 657.234375 L 537.253906 690.527344 C 537.253906 690.527344 457.042969 696.15625 450.25 690.882812 C 443.425781 685.574219 496.40625 658.824219 496.40625 658.824219 L 533.929688 657.234375 " fill-opacity="1" fill-rule="evenodd"/><path fill="rgb(98.81897%, 90.979004%, 80.778503%)" d="M 451.488281 554.871094 L 435.363281 629.246094 L 401.089844 625.777344 L 400.207031 546.167969 Z M 546.625 579.003906 L 490.5 577.871094 L 496.863281 658.859375 L 533.398438 657.515625 L 546.625 579.003906 " fill-opacity="1" fill-rule="evenodd"/><g clip-path="url(#id1)"><path fill="rgb(15.289307%, 9.799194%, 9.799194%)" d="M 29.457031 69.773438 C 47.105469 59.441406 135.167969 88.882812 148.21875 100.875 C 157.097656 109.015625 155.433594 127.519531 161.199219 130.171875 C 192.003906 144.289062 349.738281 211.445312 349.738281 211.445312 L 407.8125 161.273438 L 428.21875 180.769531 L 395.433594 233.808594 L 397.234375 266.078125 C 397.234375 266.078125 363.355469 276.800781 355.398438 275.207031 C 319.960938 268.023438 147.085938 240.355469 147.085938 240.355469 C 144.1875 248.632812 141.039062 257.585938 141.039062 257.585938 C 118.582031 271.738281 31.507812 247.890625 25.355469 243.785156 C -9.234375 220.824219 2.367188 85.625 29.457031 69.773438 Z M 425.316406 21.832031 C 425.316406 33.898438 434.335938 43.699219 445.511719 43.699219 C 447.808594 43.699219 450.003906 43.273438 452.054688 42.496094 C 452.160156 45.253906 452.371094 51.339844 452.371094 51.339844 C 454.917969 49.289062 463.511719 34.460938 467.296875 30.253906 C 469.417969 27.882812 471.472656 25.6875 474.722656 25.15625 C 491.382812 22.363281 500.648438 39.523438 507.542969 51.339844 C 509.347656 54.488281 509.242188 66.945312 509.242188 66.945312 C 509.242188 66.945312 512.285156 61.601562 512.707031 60.398438 C 514.652344 54.667969 522.789062 54.667969 524.238281 64.324219 C 524.519531 66.09375 527.171875 60.609375 528.375 54.453125 C 529.226562 49.960938 528.800781 44.722656 528.550781 43.449219 C 528.515625 43.0625 528.410156 42.636719 528.375 42.28125 C 530.957031 43.484375 533.859375 44.191406 536.898438 44.191406 C 548.074219 44.191406 557.128906 34.992188 557.128906 23.707031 C 557.128906 12.382812 548.074219 3.21875 536.898438 3.21875 C 526.253906 3.21875 517.484375 11.535156 516.703125 22.113281 C 513.734375 17.550781 509.808594 13.089844 505.140625 10.933594 C 493.152344 5.34375 475.46875 7.148438 464.644531 14.824219 C 461.957031 6.191406 454.390625 -0.0351562 445.511719 -0.0351562 C 434.335938 -0.0351562 425.316406 9.765625 425.316406 21.832031 " fill-opacity="1" fill-rule="evenodd"/></g><path fill="rgb(60.778809%, 23.919678%, 15.689087%)" d="M 449.828125 202.390625 C 449.828125 202.390625 444.097656 174.71875 438.828125 166.652344 C 433.558594 158.585938 428.710938 166.972656 428.960938 173.410156 C 429.171875 179.816406 425.742188 185.722656 422.203125 183.707031 C 418.703125 181.65625 393.167969 153.632812 388.535156 157.59375 C 383.902344 161.558594 386.058594 175.710938 385.035156 183.566406 C 384.007812 191.386719 384.257812 194.746094 387.050781 202.707031 C 389.84375 210.667969 411.878906 225.105469 417.324219 229.988281 C 422.769531 234.90625 449.828125 202.390625 449.828125 202.390625 " fill-opacity="1" fill-rule="evenodd"/><path fill="rgb(15.289307%, 9.799194%, 9.799194%)" d="M 259.90625 321.238281 C 268.21875 319.011719 273.453125 315.789062 273.453125 312.21875 C 273.453125 310.234375 272.496094 303.476562 272.496094 301.707031 C 272.496094 294.914062 253.398438 289.359375 229.84375 289.359375 C 206.328125 289.359375 187.226562 294.914062 187.226562 301.707031 C 187.226562 303.726562 188.183594 310.449219 188.183594 312.21875 C 188.183594 316.746094 196.636719 320.707031 209.191406 322.867188 L 48.34375 747.175781 L 76.496094 750.183594 L 224.363281 324.460938 C 226.449219 324.53125 228.609375 324.601562 230.800781 324.601562 C 231.261719 324.601562 231.753906 324.601562 232.214844 324.566406 L 248.871094 669.511719 L 263.195312 670.890625 L 244.382812 327.996094 L 455.132812 725.839844 L 481.480469 721.84375 L 259.90625 321.238281 " fill-opacity="1" fill-rule="evenodd"/><path fill="rgb(78.819275%, 30.589294%, 41.178894%)" d="M 262.417969 279.097656 C 262.417969 274.5 259.484375 259.601562 254.105469 257.304688 C 247.316406 254.4375 203.636719 249.34375 203.636719 249.34375 C 203.636719 249.34375 191.402344 260.488281 190.589844 269.652344 C 189.773438 278.78125 196.140625 296.292969 199.148438 296.96875 C 202.152344 297.605469 237.730469 304.785156 239.003906 304.785156 C 251.949219 304.785156 262.417969 293.289062 262.417969 279.097656 " fill-opacity="1" fill-rule="evenodd"/><path fill="rgb(98.81897%, 90.979004%, 80.778503%)" d="M 267.546875 202.636719 C 266.699219 199.839844 305.496094 211.835938 305.496094 211.835938 C 305.496094 211.835938 308.289062 223.015625 305.496094 232.394531 L 266.308594 222.167969 C 266.308594 222.167969 268.394531 205.433594 267.546875 202.636719 Z M 34.054688 234.976562 C 49.6875 235.507812 63.585938 200.691406 65.070312 157.242188 C 66.558594 113.789062 55.097656 78.089844 39.464844 77.558594 C 23.835938 77.027344 9.933594 111.84375 8.449219 155.292969 C 6.964844 198.746094 18.421875 234.445312 34.054688 234.976562 " fill-opacity="1" fill-rule="evenodd"/><path fill="rgb(78.819275%, 30.589294%, 41.178894%)" d="M 506.449219 165.203125 C 499.339844 162.761719 491.523438 166.582031 489.082031 173.765625 C 486.609375 180.910156 490.390625 188.730469 497.535156 191.171875 C 504.644531 193.613281 512.425781 189.792969 514.867188 182.644531 C 517.339844 175.460938 513.558594 167.679688 506.449219 165.203125 " fill-opacity="1" fill-rule="evenodd"/><path fill="rgb(15.689087%, 26.269531%, 47.44873%)" d="M 481.585938 170.757812 C 483.246094 171.003906 485.902344 171.605469 489.226562 172.492188 C 489.507812 172.5625 489.789062 172.382812 489.898438 172.136719 C 489.96875 171.820312 489.789062 171.535156 489.542969 171.464844 C 486.148438 170.4375 483.425781 169.730469 481.726562 169.449219 C 480.667969 169.234375 479.957031 169.269531 479.605469 169.378906 C 479.285156 169.484375 479.109375 169.695312 479.039062 169.90625 C 478.96875 170.191406 479.003906 170.617188 479.464844 171.039062 C 479.957031 171.535156 481.304688 172.3125 483.320312 173.269531 C 485.828125 174.472656 489.472656 176.027344 493.789062 177.65625 C 495.980469 178.503906 498.386719 179.355469 500.894531 180.238281 C 508.21875 182.714844 514.832031 184.664062 519.003906 185.617188 C 521.160156 186.113281 522.71875 186.324219 523.425781 186.253906 C 524.132812 186.183594 524.414062 185.828125 524.519531 185.546875 C 524.589844 185.335938 524.628906 185.015625 524.378906 184.699219 C 524.203125 184.414062 523.636719 183.917969 522.644531 183.425781 C 521.125 182.574219 518.578125 181.441406 515.289062 180.132812 C 514.9375 179.992188 514.511719 180.167969 514.371094 180.523438 C 514.230469 180.875 514.40625 181.300781 514.757812 181.441406 C 517.625 182.644531 519.886719 183.671875 521.410156 184.449219 C 519.429688 184.097656 516.351562 183.28125 512.601562 182.148438 C 509.3125 181.160156 505.492188 179.921875 501.460938 178.503906 C 497.429688 177.160156 493.644531 175.746094 490.425781 174.542969 C 486.429688 172.984375 483.320312 171.675781 481.585938 170.757812 " fill-opacity="1" fill-rule="evenodd"/><path fill="rgb(15.289307%, 9.799194%, 9.799194%)" d="M 387.476562 183.671875 C 387.441406 183.707031 387.441406 183.777344 387.511719 183.882812 C 387.511719 183.882812 387.511719 183.847656 387.511719 183.847656 C 387.511719 183.847656 387.511719 183.882812 387.511719 183.917969 C 387.617188 184.097656 387.792969 184.308594 387.828125 184.414062 L 388.5 186.113281 L 390.054688 190.820312 C 390.339844 191.738281 390.65625 192.625 390.976562 193.4375 C 391.507812 194.78125 392.074219 195.984375 392.746094 197.152344 C 393.839844 199.097656 395.148438 200.867188 396.8125 202.8125 C 397.09375 203.097656 397.058594 203.519531 396.777344 203.804688 C 396.492188 204.050781 396.035156 204.050781 395.785156 203.734375 C 393.945312 201.824219 392.460938 200.019531 391.257812 198.035156 C 390.515625 196.796875 389.84375 195.523438 389.3125 194.074219 C 388.960938 193.226562 388.675781 192.304688 388.429688 191.3125 L 387.226562 186.503906 L 386.765625 184.804688 C 386.695312 184.625 386.554688 184.238281 386.484375 184.132812 C 386.449219 183.988281 386.449219 183.882812 386.449219 183.882812 C 386.449219 183.8125 387.121094 182.964844 387.476562 183.671875 Z M 386.484375 162.335938 L 386.519531 162.371094 C 386.449219 162.335938 386.378906 162.300781 386.414062 162.265625 C 386.449219 162.265625 386.449219 162.265625 386.449219 162.300781 C 386.484375 162.300781 386.484375 162.300781 386.484375 162.335938 Z M 391.542969 179.566406 C 391.082031 178.292969 390.65625 176.914062 390.304688 175.5 C 389.914062 173.695312 389.457031 171.890625 389.03125 170.085938 C 388.710938 168.882812 388.429688 167.714844 388.074219 166.511719 C 388.039062 166.335938 387.015625 163.609375 386.589844 162.546875 C 386.554688 162.476562 386.519531 162.40625 386.519531 162.371094 L 386.625 162.40625 C 386.589844 162.371094 386.554688 162.335938 386.484375 162.335938 C 386.484375 162.265625 386.449219 162.230469 386.449219 162.265625 L 386.414062 162.265625 C 386.238281 162.054688 386.238281 161.734375 386.449219 161.523438 C 386.554688 161.378906 386.945312 161.167969 387.296875 161.59375 C 387.332031 161.664062 387.441406 161.839844 387.546875 162.089844 C 388.113281 163.148438 389.277344 165.945312 389.347656 166.121094 C 389.84375 167.609375 390.304688 169.09375 390.730469 170.578125 C 391.1875 172.066406 391.578125 173.550781 392 175.039062 C 392.355469 176.417969 392.78125 177.691406 393.238281 178.929688 C 393.980469 180.875 394.902344 182.679688 395.890625 184.414062 C 398.4375 188.695312 401.726562 192.445312 405.476562 196.515625 C 405.722656 196.796875 405.722656 197.257812 405.441406 197.507812 C 405.15625 197.789062 404.734375 197.753906 404.449219 197.472656 C 400.523438 193.402344 397.058594 189.652344 394.371094 185.335938 C 393.273438 183.53125 392.320312 181.621094 391.542969 179.566406 Z M 399.746094 175.605469 C 399.109375 173.835938 398.507812 172.03125 397.800781 170.367188 C 397.308594 169.058594 396.8125 167.785156 396.28125 166.511719 C 395.925781 165.660156 395.539062 164.8125 395.148438 163.964844 C 394.972656 163.539062 394.546875 163.21875 394.300781 162.867188 C 394.125 162.582031 393.980469 162.335938 393.945312 162.015625 C 393.910156 161.699219 394.125 161.453125 394.40625 161.414062 C 394.691406 161.378906 394.972656 161.59375 395.007812 161.875 C 395.007812 161.980469 395.078125 162.089844 395.183594 162.195312 C 395.503906 162.617188 396 162.972656 396.246094 163.433594 C 396.671875 164.246094 397.09375 165.09375 397.519531 165.945312 C 398.121094 167.21875 398.6875 168.492188 399.25 169.730469 C 400.136719 171.710938 400.914062 173.765625 401.726562 175.886719 C 402.503906 177.902344 403.25 179.921875 404.203125 181.832031 C 404.980469 183.496094 405.867188 185.085938 406.960938 186.503906 C 407.527344 187.28125 408.199219 187.988281 408.90625 188.660156 C 410.605469 190.289062 412.585938 191.738281 414.246094 193.296875 C 414.53125 193.542969 414.53125 194.003906 414.28125 194.285156 C 414.035156 194.570312 413.574219 194.570312 413.292969 194.320312 C 411.59375 192.800781 409.578125 191.421875 407.8125 189.828125 C 407.03125 189.121094 406.289062 188.378906 405.652344 187.5625 C 404.0625 185.546875 402.824219 183.28125 401.761719 180.910156 C 401.019531 179.179688 400.347656 177.375 399.746094 175.605469 Z M 469.878906 63.652344 C 469.808594 63.652344 469.773438 63.582031 469.808594 63.511719 L 469.84375 63.546875 C 469.84375 63.582031 469.914062 63.652344 469.878906 63.652344 Z M 473.664062 65.035156 C 474.015625 64.960938 474.265625 64.574219 474.160156 64.21875 C 474.089844 63.832031 473.734375 63.582031 473.34375 63.6875 C 473.308594 63.6875 473.273438 63.652344 473.238281 63.617188 C 473.203125 63.582031 473.132812 63.546875 473.097656 63.511719 C 472.957031 63.371094 472.78125 63.265625 472.636719 63.15625 C 472.425781 63.085938 472.214844 63.015625 472 63.015625 C 471.789062 63.015625 471.578125 63.015625 471.398438 63.050781 C 470.941406 63.15625 470.515625 63.441406 470.019531 63.476562 C 469.984375 63.476562 469.914062 63.476562 469.84375 63.476562 C 469.914062 63.300781 470.089844 63.015625 470.199219 62.839844 C 470.445312 62.378906 470.761719 61.917969 471.046875 61.496094 C 471.542969 60.824219 471.964844 60.222656 472.035156 60.042969 C 472.179688 59.726562 472.285156 59.40625 472.355469 59.089844 C 472.390625 58.769531 472.425781 58.453125 472.390625 58.132812 C 472.390625 57.992188 472.355469 57.886719 472.285156 57.746094 C 472.25 57.671875 472.214844 57.601562 472.179688 57.53125 C 472.179688 57.425781 472.144531 57.285156 472.070312 57.179688 C 471.929688 56.929688 471.613281 56.859375 471.363281 57 C 471.082031 57.144531 471.046875 57.390625 471.046875 57.636719 C 471.046875 57.78125 471.152344 58.027344 471.1875 58.167969 C 471.152344 58.382812 471.117188 58.558594 471.046875 58.769531 C 470.976562 58.949219 470.871094 59.125 470.761719 59.300781 C 470.691406 59.371094 470.515625 59.550781 470.304688 59.796875 C 469.949219 60.1875 469.492188 60.679688 469.101562 61.246094 C 468.640625 61.882812 468.289062 62.519531 468.144531 63.050781 C 468.003906 63.652344 468.074219 64.148438 468.324219 64.503906 C 468.605469 64.890625 469.136719 65.28125 470.164062 65.175781 C 470.339844 65.140625 470.550781 65.105469 470.726562 65.035156 C 470.941406 64.960938 471.152344 64.855469 471.398438 64.75 C 471.578125 64.679688 471.753906 64.574219 471.964844 64.574219 C 472.105469 64.574219 472.179688 64.644531 472.25 64.714844 C 472.390625 64.820312 472.566406 64.925781 472.707031 64.996094 C 472.992188 65.070312 473.273438 65.140625 473.664062 65.035156 Z M 465.175781 53.464844 C 465.175781 54.667969 464.644531 55.65625 463.9375 55.65625 C 463.265625 55.65625 462.699219 54.667969 462.699219 53.464844 C 462.699219 52.261719 463.265625 51.269531 463.9375 51.269531 C 464.644531 51.269531 465.175781 52.261719 465.175781 53.464844 Z M 485.546875 54.488281 C 485.546875 55.691406 484.980469 56.683594 484.273438 56.683594 C 483.601562 56.683594 483.035156 55.691406 483.035156 54.488281 C 483.035156 53.285156 483.601562 52.332031 484.273438 52.332031 C 484.980469 52.332031 485.546875 53.285156 485.546875 54.488281 Z M 466.980469 43.132812 C 466.980469 43.132812 466.980469 43.167969 466.945312 43.132812 Z M 467.050781 43.132812 C 467.050781 43.167969 467.015625 43.167969 466.980469 43.132812 C 467.015625 43.132812 467.015625 43.132812 467.015625 43.132812 Z M 467.050781 43.132812 C 467.050781 43.097656 467.050781 43.097656 467.015625 43.132812 C 466.945312 43.097656 466.875 43.0625 466.800781 42.988281 C 466.835938 43.0625 466.910156 43.097656 466.945312 43.132812 C 466.34375 43.273438 464.929688 43.875 464.785156 43.910156 C 464.007812 44.191406 463.335938 44.617188 462.628906 45.078125 C 461.992188 45.503906 461.355469 45.960938 460.71875 46.457031 C 459.695312 47.199219 458.667969 48.015625 457.605469 48.652344 C 457.289062 48.863281 456.863281 48.792969 456.652344 48.472656 C 456.40625 48.15625 456.511719 47.730469 456.828125 47.484375 C 457.820312 46.777344 458.667969 45.890625 459.621094 45.113281 C 460.257812 44.546875 460.929688 43.980469 461.675781 43.519531 C 462.488281 43.023438 463.40625 42.671875 464.363281 42.425781 C 464.539062 42.386719 466.164062 42.035156 466.835938 42.035156 C 467.261719 42.035156 467.546875 42.175781 467.582031 42.28125 C 467.757812 42.53125 467.722656 42.847656 467.472656 43.023438 C 467.332031 43.132812 467.191406 43.167969 467.050781 43.132812 Z M 478.648438 74.515625 C 477.730469 75.117188 476.777344 75.578125 475.75 75.929688 C 474.722656 76.285156 473.664062 76.496094 472.566406 76.640625 C 470.480469 76.816406 468.324219 76.605469 466.164062 76.003906 C 465.8125 75.929688 465.566406 75.542969 465.671875 75.152344 C 465.777344 74.800781 466.128906 74.550781 466.519531 74.621094 C 468.5 75.082031 470.480469 75.117188 472.355469 74.871094 C 473.34375 74.726562 474.265625 74.515625 475.183594 74.234375 C 476.105469 73.949219 477.023438 73.632812 477.871094 73.171875 C 478.15625 73.03125 480.066406 71.898438 480.59375 71.261719 L 480.628906 71.261719 C 480.667969 71.121094 480.703125 70.976562 480.808594 70.871094 C 481.054688 70.695312 481.375 70.695312 481.585938 70.941406 C 481.761719 71.121094 481.796875 71.507812 481.480469 71.96875 C 480.949219 72.746094 478.933594 74.339844 478.648438 74.515625 Z M 486.429688 91.464844 C 487.03125 91.324219 487.632812 91.144531 488.234375 90.933594 C 488.515625 90.828125 489.082031 90.757812 489.472656 90.613281 C 489.472656 90.613281 489.472656 90.578125 489.507812 90.578125 C 489.613281 90.296875 489.933594 90.191406 490.214844 90.296875 C 490.460938 90.402344 490.535156 90.578125 490.605469 90.6875 C 490.675781 90.863281 490.640625 91.039062 490.535156 91.179688 C 490.5 91.324219 490.285156 91.5 490.003906 91.640625 C 489.648438 91.816406 489.011719 91.996094 488.730469 92.171875 C 488.128906 92.453125 487.527344 92.703125 486.890625 92.949219 C 486.289062 93.199219 485.617188 93.375 484.980469 93.550781 C 484.414062 93.695312 483.8125 93.835938 483.210938 93.90625 C 482.363281 94.046875 481.445312 94.117188 480.558594 94.152344 C 478.367188 94.222656 476.140625 94.046875 473.980469 93.835938 C 473.59375 93.800781 473.308594 93.445312 473.34375 93.054688 C 473.34375 92.703125 473.699219 92.382812 474.089844 92.417969 C 475.855469 92.527344 477.625 92.527344 479.429688 92.453125 C 480.488281 92.382812 481.515625 92.3125 482.539062 92.171875 C 483.246094 92.101562 483.957031 91.996094 484.628906 91.851562 C 485.226562 91.78125 485.828125 91.640625 486.429688 91.464844 Z M 518.722656 67.511719 C 518.332031 67.722656 517.976562 67.96875 517.625 68.21875 C 517.269531 68.464844 516.917969 68.714844 516.5625 68.960938 C 516.210938 69.207031 515.855469 69.492188 515.503906 69.738281 C 515.113281 70.519531 514.902344 71.367188 514.722656 72.214844 C 514.617188 72.640625 514.582031 73.066406 514.476562 73.488281 C 514.441406 73.878906 514.335938 74.339844 514.265625 74.761719 C 514.050781 76.109375 513.839844 77.453125 513.523438 78.726562 C 513.449219 79.117188 513.0625 79.363281 512.671875 79.292969 C 512.320312 79.222656 512.070312 78.832031 512.140625 78.480469 C 512.285156 77.382812 512.355469 76.214844 512.460938 75.082031 C 512.496094 74.691406 512.53125 74.304688 512.566406 73.914062 C 512.636719 73.523438 512.707031 73.136719 512.816406 72.746094 C 512.921875 72.285156 513.097656 71.863281 513.273438 71.4375 C 513.0625 71.613281 512.816406 71.757812 512.601562 71.933594 C 511.71875 72.605469 510.832031 73.277344 509.949219 73.984375 C 509.667969 74.234375 509.207031 74.199219 508.960938 73.914062 C 508.710938 73.632812 508.746094 73.171875 509.03125 72.921875 C 510.269531 71.757812 511.507812 70.625 512.851562 69.527344 C 513.273438 69.171875 513.734375 68.820312 514.195312 68.5 C 514.652344 68.183594 515.113281 67.863281 515.609375 67.546875 C 515.996094 67.296875 516.421875 67.085938 516.847656 66.875 C 517.269531 66.660156 517.695312 66.484375 518.121094 66.308594 C 518.332031 66.238281 518.613281 66.164062 518.898438 66.164062 C 519.003906 66.128906 519.109375 66.128906 519.179688 66.128906 C 519.25 66.023438 519.355469 65.917969 519.464844 65.847656 C 519.746094 65.742188 520.03125 65.847656 520.171875 66.128906 C 520.242188 66.273438 520.242188 66.414062 520.242188 66.554688 C 520.207031 66.765625 520.101562 66.945312 519.886719 67.085938 C 519.640625 67.261719 519.003906 67.332031 518.722656 67.511719 Z M 494.601562 52.296875 C 494.421875 52.261719 494.246094 52.046875 494.140625 51.765625 C 494.035156 51.515625 493.964844 51.09375 493.859375 50.914062 C 493.574219 50.5625 493.257812 50.242188 492.9375 49.925781 C 492.585938 49.605469 492.265625 49.324219 491.914062 49.039062 C 491.488281 48.652344 490.992188 48.296875 490.535156 47.945312 C 489.824219 47.378906 489.117188 46.847656 488.375 46.351562 C 487.136719 45.539062 485.828125 44.757812 484.519531 44.226562 C 484.167969 44.050781 483.992188 43.664062 484.132812 43.308594 C 484.238281 42.953125 484.664062 42.777344 485.015625 42.882812 C 486.464844 43.378906 487.953125 44.050781 489.332031 44.902344 C 490.144531 45.394531 490.921875 45.925781 491.664062 46.527344 C 492.160156 46.917969 492.621094 47.34375 493.042969 47.800781 C 493.398438 48.15625 493.75 48.507812 494.070312 48.933594 C 494.386719 49.324219 494.671875 49.75 494.917969 50.207031 C 495.023438 50.347656 495.097656 50.597656 495.132812 50.878906 C 495.167969 50.988281 495.203125 51.164062 495.203125 51.304688 C 495.273438 51.339844 495.34375 51.375 495.378906 51.445312 C 495.554688 51.695312 495.484375 52.011719 495.273438 52.191406 C 495.023438 52.402344 494.777344 52.367188 494.601562 52.296875 Z M 485.371094 296.683594 C 485.441406 296.683594 485.476562 296.683594 485.441406 296.753906 C 485.441406 296.753906 485.441406 296.71875 485.40625 296.71875 Z M 439.640625 260.167969 C 439.285156 259.992188 438.863281 260.132812 438.722656 260.488281 C 438.542969 260.839844 438.6875 261.230469 439.003906 261.40625 C 439.851562 261.832031 440.632812 262.398438 441.410156 263.035156 C 443.285156 264.484375 445.050781 266.324219 446.855469 267.597656 C 449.96875 269.863281 453.042969 272.164062 456.121094 274.464844 C 458.84375 276.550781 461.601562 278.675781 464.328125 280.796875 C 466.128906 282.210938 467.933594 283.628906 469.773438 285.078125 C 471.152344 286.175781 472.566406 287.308594 473.945312 288.40625 C 476.03125 290.101562 478.121094 291.835938 480.171875 293.535156 L 483.460938 296.292969 C 483.742188 296.507812 484.238281 297.109375 484.59375 297.425781 C 484.839844 297.640625 485.085938 297.78125 485.226562 297.78125 C 485.40625 297.816406 485.582031 297.746094 485.722656 297.605469 C 485.792969 297.53125 485.9375 297.355469 485.902344 297.074219 C 485.902344 296.753906 485.652344 296.542969 485.335938 296.542969 C 485.300781 296.542969 485.300781 296.542969 485.265625 296.542969 C 484.910156 296.222656 484.484375 295.65625 484.203125 295.410156 L 481.019531 292.542969 C 479.003906 290.738281 476.988281 288.96875 474.972656 287.203125 C 473.59375 286.035156 472.214844 284.867188 470.835938 283.734375 C 468.960938 282.210938 467.085938 280.691406 465.210938 279.203125 C 463.300781 277.71875 461.390625 276.234375 459.480469 274.78125 C 455.625 271.878906 451.734375 269.085938 447.773438 266.324219 C 445.972656 265.050781 444.203125 263.28125 442.328125 261.867188 C 441.445312 261.195312 440.558594 260.59375 439.640625 260.167969 Z M 448.90625 204.300781 C 448.519531 204.15625 448.339844 203.734375 448.484375 203.378906 C 448.625 203.027344 449.011719 202.847656 449.367188 202.957031 C 457.570312 205.960938 465 210.386719 472.460938 214.878906 C 477.339844 217.816406 482.257812 220.753906 487.351562 223.335938 C 492.726562 226.058594 498.3125 228.394531 504.398438 229.738281 C 506.730469 230.304688 509.101562 230.765625 511.507812 231.121094 C 513.875 231.507812 516.28125 231.828125 518.683594 232.039062 L 523.53125 232.429688 C 523.601562 232.429688 524.589844 232.429688 525.191406 232.429688 C 527.597656 229.773438 529.4375 226.769531 530.816406 223.476562 C 533.609375 216.753906 534.671875 208.96875 535.875 201.363281 C 536.6875 196.160156 537.605469 191.03125 539.019531 186.289062 C 539.765625 183.917969 540.613281 181.511719 541.53125 179.144531 C 542.488281 176.808594 543.582031 174.507812 544.820312 172.277344 C 544.925781 172.101562 546.378906 169.484375 547.121094 168.597656 C 547.296875 168.386719 547.4375 168.28125 547.542969 168.210938 C 547.792969 168.101562 547.96875 168.101562 548.109375 168.175781 C 548.394531 168.28125 548.5 168.597656 548.394531 168.882812 C 548.324219 168.988281 548.214844 169.128906 548.109375 169.164062 C 548.109375 169.164062 548.109375 169.164062 548.074219 169.128906 C 548.074219 169.128906 548.039062 169.164062 548.039062 169.199219 C 547.96875 169.199219 547.863281 169.199219 547.792969 169.199219 C 547.863281 169.199219 547.933594 169.234375 548.003906 169.234375 C 547.96875 169.234375 547.96875 169.269531 547.96875 169.269531 C 547.261719 170.121094 545.988281 172.667969 545.882812 172.878906 C 544.714844 175.074219 543.761719 177.339844 542.875 179.671875 C 541.992188 182.007812 541.25 184.378906 540.578125 186.75 C 539.234375 191.421875 538.457031 196.515625 537.675781 201.644531 C 536.476562 209.394531 535.238281 217.285156 532.335938 224.113281 C 530.144531 229.210938 526.960938 233.738281 522.117188 237.136719 C 521.796875 237.382812 521.375 237.3125 521.125 236.992188 C 520.914062 236.675781 520.984375 236.25 521.300781 236.003906 C 522.363281 235.257812 523.28125 234.410156 524.203125 233.527344 C 523.847656 233.527344 523.53125 233.527344 523.496094 233.527344 L 518.578125 233.3125 C 516.175781 233.136719 513.699219 232.890625 511.292969 232.570312 C 508.851562 232.214844 506.449219 231.828125 504.042969 231.332031 C 497.820312 229.988281 492.054688 227.722656 486.535156 224.964844 C 481.410156 222.378906 476.492188 219.335938 471.578125 216.328125 C 464.257812 211.835938 456.933594 207.378906 448.90625 204.300781 Z M 548.039062 169.199219 L 548.003906 169.234375 C 548.074219 169.234375 548.109375 169.199219 548.109375 169.164062 L 548.039062 169.199219 " fill-opacity="1" fill-rule="evenodd"/><path fill="rgb(98.81897%, 90.979004%, 80.778503%)" d="M 460.402344 682.921875 C 460.824219 683.523438 461.25 684.160156 461.640625 684.832031 C 462.027344 685.503906 462.417969 686.175781 462.734375 686.8125 C 463.65625 688.476562 464.328125 689.785156 464.328125 689.785156 C 464.539062 690.105469 464.433594 690.5625 464.078125 690.742188 C 463.761719 690.953125 463.335938 690.847656 463.125 690.492188 C 463.125 690.492188 462.3125 689.289062 461.285156 687.664062 C 460.894531 687.0625 460.472656 686.425781 460.082031 685.753906 C 459.695312 685.113281 459.304688 684.40625 458.988281 683.769531 C 458.101562 682.109375 457.5 680.726562 457.5 680.726562 C 457.359375 680.480469 457.429688 680.160156 457.679688 679.984375 C 457.960938 679.84375 458.277344 679.914062 458.421875 680.195312 C 458.421875 680.195312 459.339844 681.363281 460.402344 682.921875 Z M 448.445312 696.191406 C 449.933594 695.976562 451.488281 695.730469 453.117188 695.519531 C 454.707031 695.269531 456.332031 695.09375 457.820312 694.917969 C 461.78125 694.492188 464.894531 694.242188 464.894531 694.242188 C 465.175781 694.207031 465.457031 694.421875 465.492188 694.703125 C 465.527344 694.988281 465.316406 695.269531 465.035156 695.304688 C 465.035156 695.304688 461.992188 695.90625 458.03125 696.578125 C 456.582031 696.828125 454.953125 697.074219 453.363281 697.285156 C 451.773438 697.535156 450.144531 697.710938 448.660156 697.886719 C 444.699219 698.382812 441.621094 698.738281 441.621094 698.738281 C 441.230469 698.773438 440.878906 698.523438 440.808594 698.136719 C 440.773438 697.746094 441.019531 697.394531 441.410156 697.359375 C 441.410156 697.359375 444.484375 696.828125 448.445312 696.191406 Z M 429.703125 628.714844 C 429.703125 628.714844 430.621094 629.988281 431.753906 631.722656 C 432.179688 632.394531 432.636719 633.101562 433.0625 633.808594 C 433.488281 634.554688 433.875 635.296875 434.230469 635.96875 C 435.21875 637.773438 435.925781 639.222656 435.925781 639.222656 C 436.140625 639.542969 435.996094 639.96875 435.679688 640.179688 C 435.324219 640.355469 434.902344 640.25 434.726562 639.929688 C 434.726562 639.929688 433.839844 638.585938 432.746094 636.816406 C 432.355469 636.144531 431.894531 635.4375 431.472656 634.730469 C 431.082031 633.988281 430.691406 633.246094 430.339844 632.570312 C 429.417969 630.730469 428.746094 629.246094 428.746094 629.246094 C 428.605469 628.960938 428.710938 628.644531 428.960938 628.503906 C 429.207031 628.363281 429.5625 628.46875 429.703125 628.714844 Z M 402.292969 624.824219 C 402.292969 624.824219 405.265625 629.882812 408.941406 636.429688 C 410.355469 638.871094 411.808594 641.558594 413.292969 644.25 C 414.742188 646.902344 416.15625 649.625 417.5 652.101562 C 421.039062 658.71875 423.761719 663.957031 423.761719 663.957031 C 423.9375 664.273438 423.796875 664.699219 423.476562 664.875 C 423.125 665.089844 422.699219 664.945312 422.523438 664.628906 C 422.523438 664.628906 419.625 659.460938 416.015625 652.917969 C 414.636719 650.441406 413.152344 647.785156 411.699219 645.097656 C 410.25 642.410156 408.800781 639.71875 407.492188 637.207031 C 404.027344 630.554688 401.375 625.320312 401.375 625.320312 C 401.234375 625.070312 401.339844 624.753906 401.585938 624.609375 C 401.832031 624.46875 402.152344 624.539062 402.292969 624.824219 Z M 258.03125 636.464844 C 257.996094 636.394531 257.996094 636.324219 258.101562 636.359375 C 258.101562 636.359375 258.066406 636.394531 258.066406 636.429688 C 258.066406 636.429688 258.03125 636.429688 258.03125 636.464844 Z M 245.652344 637.773438 C 245.265625 637.703125 244.910156 637.949219 244.804688 638.339844 C 244.734375 638.691406 244.980469 639.082031 245.371094 639.152344 C 246.539062 639.4375 247.8125 639.507812 249.121094 639.4375 C 250.214844 639.402344 251.3125 639.257812 252.410156 639.082031 C 253.117188 638.941406 253.824219 638.765625 254.496094 638.585938 C 255.132812 638.410156 256.15625 637.949219 257.042969 637.527344 C 257.429688 637.347656 257.785156 637.171875 258.066406 637.066406 C 258.101562 637.101562 258.140625 637.136719 258.175781 637.171875 C 258.421875 637.3125 258.738281 637.277344 258.917969 637.03125 C 259.234375 636.675781 259.164062 636.359375 259.09375 636.179688 C 259.023438 636.003906 258.847656 635.828125 258.527344 635.792969 C 258.210938 635.722656 257.429688 635.933594 256.546875 636.179688 C 255.664062 636.464844 254.707031 636.816406 254.140625 636.925781 C 253.46875 637.066406 252.761719 637.171875 252.054688 637.3125 C 251.066406 637.488281 250.003906 637.667969 249.015625 637.773438 C 247.847656 637.914062 246.714844 637.949219 245.652344 637.773438 Z M 85.019531 719.542969 L 85.089844 719.542969 C 85.054688 719.578125 85.019531 719.578125 84.984375 719.542969 Z M 63.375 713.597656 C 63.550781 714.304688 64.046875 714.90625 64.71875 715.4375 C 65.636719 716.144531 66.910156 716.675781 68.289062 717.136719 C 70.234375 717.773438 72.429688 718.128906 74.335938 718.410156 C 76.105469 718.65625 77.589844 718.800781 78.441406 718.835938 C 79.324219 718.835938 80.171875 718.871094 81.058594 718.835938 C 81.625 718.800781 82.222656 718.765625 82.789062 718.730469 C 83.109375 718.695312 84.417969 718.480469 84.914062 718.445312 C 85.300781 718.445312 85.515625 718.585938 85.550781 718.621094 C 85.726562 718.800781 85.796875 719.011719 85.65625 719.257812 C 85.550781 719.472656 85.300781 719.578125 85.089844 719.542969 C 85.089844 719.542969 85.089844 719.542969 85.089844 719.507812 C 85.089844 719.507812 85.054688 719.542969 85.019531 719.542969 C 84.984375 719.507812 84.949219 719.507812 84.949219 719.507812 C 84.914062 719.507812 84.914062 719.472656 84.914062 719.472656 C 84.914062 719.507812 84.949219 719.507812 84.984375 719.542969 C 84.453125 719.613281 83.25 719.933594 82.96875 720.003906 C 82.222656 720.144531 81.445312 720.214844 80.703125 720.285156 C 79.960938 720.355469 79.183594 720.390625 78.441406 720.460938 C 77.554688 720.460938 75.964844 720.425781 74.089844 720.214844 C 72.109375 719.933594 69.777344 719.472656 67.722656 718.730469 C 66.167969 718.199219 64.789062 717.492188 63.761719 716.640625 C 62.808594 715.828125 62.171875 714.941406 61.996094 713.882812 C 61.925781 713.492188 62.171875 713.136719 62.5625 713.066406 C 62.949219 712.996094 63.304688 713.210938 63.375 713.597656 Z M 409.71875 411.183594 C 409.578125 411.570312 409.191406 411.75 408.835938 411.605469 C 408.449219 411.5 408.269531 411.078125 408.410156 410.722656 C 411.878906 400.992188 415.097656 391.121094 418.207031 381.214844 C 421.039062 372.296875 423.726562 363.34375 426.484375 354.464844 C 428.289062 348.484375 430.164062 342.539062 432 336.59375 L 439.214844 313.667969 C 439.78125 311.863281 440.347656 310.09375 440.878906 308.289062 C 441.230469 307.085938 441.585938 305.917969 441.941406 304.714844 C 441.976562 304.574219 442.648438 302.167969 443.035156 301.320312 C 443.210938 300.964844 443.390625 300.789062 443.460938 300.753906 C 443.707031 300.648438 443.921875 300.683594 444.097656 300.824219 C 444.308594 301 444.34375 301.355469 444.167969 301.566406 C 444.132812 301.601562 444.132812 301.601562 444.132812 301.601562 C 444.097656 301.601562 444.097656 301.601562 444.097656 301.601562 C 444.0625 301.566406 444.0625 301.636719 444.0625 301.671875 C 443.992188 301.707031 443.957031 301.707031 443.921875 301.742188 C 443.957031 301.707031 443.992188 301.707031 444.027344 301.707031 C 444.027344 301.707031 444.027344 301.707031 444.027344 301.742188 C 443.671875 302.558594 443.070312 304.894531 443.035156 305.035156 C 442.648438 306.519531 442.222656 308.042969 441.796875 309.527344 C 441.375 311.050781 440.949219 312.535156 440.488281 314.019531 C 439.359375 317.878906 438.226562 321.734375 437.09375 325.554688 C 435.960938 329.414062 434.796875 333.269531 433.628906 337.089844 C 431.824219 343.035156 430.019531 349.015625 428.21875 354.960938 C 425.457031 363.910156 422.699219 372.828125 419.800781 381.707031 C 416.617188 391.617188 413.292969 401.453125 409.71875 411.183594 Z M 444.097656 301.636719 L 444.132812 301.601562 C 444.132812 301.636719 444.097656 301.671875 444.027344 301.707031 Z M 461.710938 344.097656 C 460.117188 351.953125 458.667969 359.84375 457.183594 367.730469 C 454.953125 379.550781 452.726562 391.367188 450.320312 403.152344 C 448.625 411.570312 446.820312 419.957031 444.839844 428.34375 C 444.769531 428.730469 444.378906 428.945312 443.992188 428.875 C 443.636719 428.765625 443.390625 428.414062 443.496094 428.023438 C 445.40625 419.675781 447.101562 411.253906 448.765625 402.832031 C 451.0625 391.050781 453.1875 379.195312 455.414062 367.378906 C 456.863281 359.488281 458.421875 351.632812 460.046875 343.777344 L 465.847656 316.320312 C 465.917969 315.898438 467.6875 307.652344 468.429688 304.363281 C 468.570312 303.796875 468.675781 303.371094 468.746094 303.160156 C 468.78125 303.089844 468.78125 303.015625 468.816406 302.980469 C 468.996094 302.558594 469.382812 302.628906 469.453125 302.664062 C 469.738281 302.769531 469.914062 303.089844 469.808594 303.335938 C 469.808594 303.371094 469.773438 303.371094 469.773438 303.371094 L 469.492188 304.609375 C 468.816406 307.863281 467.191406 316.144531 467.121094 316.570312 C 466.414062 320.25 465.707031 323.929688 465 327.609375 C 463.902344 333.09375 462.769531 338.613281 461.710938 344.097656 Z M 495.414062 373.605469 C 495.449219 366.847656 495.449219 360.089844 495.414062 353.332031 C 495.414062 344.734375 496.441406 334.863281 496.15625 325.554688 C 496.015625 321.523438 495.625 317.558594 494.777344 313.878906 C 494.707031 313.597656 494.882812 313.3125 495.203125 313.242188 C 495.449219 313.171875 495.769531 313.347656 495.804688 313.632812 C 496.757812 317.382812 497.21875 321.382812 497.429688 325.519531 C 497.855469 334.828125 496.96875 344.699219 497.113281 353.296875 C 497.183594 358.957031 497.21875 364.617188 497.253906 370.246094 C 497.253906 378.699219 497.148438 387.15625 496.96875 395.648438 C 496.6875 409.730469 496.15625 423.8125 495.308594 437.933594 C 495.273438 438.320312 494.953125 438.640625 494.566406 438.605469 C 494.175781 438.605469 493.894531 438.25 493.894531 437.859375 C 494.496094 426.574219 494.847656 415.320312 495.097656 404.070312 C 495.308594 393.914062 495.378906 383.761719 495.414062 373.605469 Z M 531.804688 317.027344 C 531.804688 317.0625 531.878906 317.207031 531.914062 317.488281 C 532.019531 318.339844 532.335938 321.453125 532.476562 322.691406 L 533.46875 331.21875 C 534.070312 336.347656 534.636719 341.441406 535.203125 346.574219 C 535.730469 351.703125 536.226562 356.835938 536.722656 361.964844 C 537.429688 370.101562 538.03125 378.277344 538.597656 386.449219 C 539.375 398.691406 540.011719 410.933594 540.859375 423.175781 C 541.496094 431.882812 542.167969 440.621094 543.054688 449.324219 C 543.125 449.714844 542.839844 450.066406 542.453125 450.101562 C 542.0625 450.140625 541.710938 449.855469 541.671875 449.464844 C 540.71875 440.761719 539.941406 432.023438 539.269531 423.285156 C 538.347656 411.039062 537.570312 398.796875 536.792969 386.554688 C 536.226562 378.382812 535.695312 370.246094 535.023438 362.105469 C 534.601562 356.976562 534.140625 351.84375 533.644531 346.714844 C 533.1875 341.621094 532.691406 336.488281 532.160156 331.359375 L 531.3125 322.832031 C 531.207031 321.699219 530.992188 319.082031 530.886719 317.949219 C 530.851562 317.878906 530.816406 317.773438 530.816406 317.703125 C 530.816406 317.488281 530.816406 317.382812 530.816406 317.3125 C 530.816406 316.957031 531.0625 316.851562 531.097656 316.851562 C 531.277344 316.746094 531.558594 316.710938 531.804688 317.027344 Z M 211.949219 278.53125 C 211.914062 281.433594 212.125 284.371094 212.585938 287.238281 C 212.832031 288.792969 213.222656 291.800781 214.035156 294.3125 C 214.601562 295.976562 215.308594 297.425781 216.441406 297.957031 C 216.6875 298.0625 216.832031 298.382812 216.6875 298.628906 C 216.582031 298.914062 216.265625 299.054688 215.980469 298.914062 C 214.921875 298.453125 214.035156 297.355469 213.328125 295.941406 C 212.019531 293.25 211.417969 289.359375 211.03125 287.519531 C 210.464844 284.546875 210.144531 281.539062 210.144531 278.53125 C 210.144531 275.488281 210.429688 272.480469 211.066406 269.546875 C 212.339844 263.636719 214.886719 258.082031 218.953125 253.375 C 219.199219 253.09375 219.660156 253.058594 219.941406 253.304688 C 220.261719 253.550781 220.296875 253.976562 220.011719 254.296875 C 216.230469 258.859375 213.929688 264.238281 212.796875 269.898438 C 212.234375 272.730469 211.949219 275.632812 211.949219 278.53125 Z M 238.511719 282.425781 C 238.332031 285.253906 238.4375 288.085938 239.074219 290.847656 C 239.359375 292.15625 239.855469 294.84375 240.703125 297.109375 C 241.234375 298.59375 241.90625 299.902344 242.824219 300.398438 C 243.074219 300.539062 243.179688 300.859375 243.035156 301.105469 C 242.929688 301.390625 242.613281 301.496094 242.328125 301.355469 C 241.410156 300.929688 240.632812 299.902344 239.996094 298.628906 C 238.722656 296.1875 237.945312 292.757812 237.554688 291.199219 C 236.8125 288.296875 236.566406 285.289062 236.707031 282.320312 C 236.882812 279.382812 237.484375 276.410156 238.367188 273.542969 C 240.101562 267.882812 243.074219 262.46875 246.433594 257.90625 C 246.644531 257.585938 247.070312 257.515625 247.421875 257.726562 C 247.707031 257.941406 247.777344 258.398438 247.5625 258.71875 C 244.417969 263.246094 241.691406 268.519531 240.066406 274.074219 C 239.253906 276.800781 238.6875 279.628906 238.511719 282.425781 Z M 190.164062 302.59375 C 192.003906 304.46875 194.691406 305.707031 197.625 306.589844 C 202.011719 307.863281 206.964844 308.359375 210.640625 308.890625 C 215.523438 309.597656 220.402344 310.09375 225.320312 310.339844 C 228.570312 310.519531 231.824219 310.554688 235.113281 310.484375 C 238.367188 310.414062 241.621094 310.164062 244.875 309.8125 C 249.6875 309.246094 254.496094 308.324219 259.234375 306.945312 C 260.613281 306.519531 261.992188 306.058594 263.300781 305.53125 C 264.644531 305 265.953125 304.398438 267.191406 303.691406 C 267.6875 303.40625 268.359375 302.628906 268.925781 302.203125 C 269.171875 302.027344 269.386719 301.886719 269.5625 301.8125 C 269.84375 301.707031 270.164062 301.8125 270.269531 302.097656 C 270.375 302.378906 270.234375 302.699219 269.953125 302.804688 C 269.84375 302.839844 269.738281 302.910156 269.597656 303.054688 C 269.03125 303.546875 268.289062 304.363281 267.757812 304.679688 C 266.484375 305.421875 265.175781 306.097656 263.796875 306.695312 C 262.453125 307.296875 261.039062 307.792969 259.660156 308.253906 C 254.847656 309.738281 249.96875 310.800781 245.089844 311.472656 C 241.800781 311.898438 238.476562 312.179688 235.148438 312.289062 C 231.824219 312.394531 228.535156 312.324219 225.210938 312.144531 C 220.261719 311.863281 215.308594 311.296875 210.394531 310.554688 C 206.679688 309.953125 201.621094 309.421875 197.167969 308.042969 C 194.019531 307.050781 191.117188 305.636719 189.136719 303.546875 C 188.890625 303.265625 188.890625 302.839844 189.171875 302.558594 C 189.457031 302.308594 189.882812 302.308594 190.164062 302.59375 Z M 216.300781 323.222656 C 216.832031 323.292969 217.359375 323.433594 217.890625 323.574219 C 218.457031 323.75 219.941406 324 220.367188 324.105469 C 220.578125 324.175781 220.71875 324.210938 220.71875 324.210938 C 220.792969 324.28125 221.074219 325.308594 220.332031 325.238281 C 220.296875 325.238281 220.296875 325.238281 220.261719 325.238281 C 219.976562 325.238281 219.304688 325.308594 218.667969 325.308594 C 218.246094 325.308594 217.820312 325.273438 217.539062 325.238281 C 217.253906 325.203125 216.972656 325.167969 216.6875 325.132812 C 216.265625 325.0625 215.839844 324.953125 215.414062 324.847656 C 214.355469 324.636719 213.292969 324.316406 212.234375 324 C 211.878906 323.929688 211.632812 323.539062 211.738281 323.148438 C 211.808594 322.796875 212.199219 322.546875 212.585938 322.65625 C 213.789062 322.867188 215.0625 323.007812 216.300781 323.222656 Z M 253.257812 322.832031 C 252.761719 323.007812 252.269531 323.1875 251.773438 323.363281 C 250.996094 323.609375 250.214844 323.859375 249.472656 324.070312 C 248.09375 324.460938 246.785156 324.742188 245.832031 324.742188 C 245.441406 324.777344 245.089844 324.460938 245.089844 324.105469 C 245.054688 323.714844 245.335938 323.363281 245.726562 323.363281 C 246.398438 323.292969 247.210938 323.042969 248.09375 322.761719 C 248.835938 322.476562 249.652344 322.195312 250.464844 321.875 C 251.03125 321.699219 251.558594 321.488281 252.125 321.308594 C 252.691406 321.167969 253.292969 320.992188 253.824219 320.886719 C 255.484375 320.53125 256.9375 320.460938 257.855469 320.816406 C 258.140625 320.886719 258.316406 321.203125 258.210938 321.488281 C 258.140625 321.769531 257.820312 321.910156 257.574219 321.839844 C 256.972656 321.699219 256.265625 321.875 255.414062 322.125 C 254.742188 322.300781 254 322.585938 253.257812 322.832031 Z M 63.515625 219.265625 C 67.335938 210.351562 69.953125 200.867188 71.933594 191.101562 C 74.550781 178.398438 76.140625 165.484375 76.636719 152.570312 C 77.132812 139.621094 76.53125 126.671875 74.621094 113.789062 C 73.914062 108.941406 72.851562 104.058594 71.4375 99.320312 C 70.023438 94.542969 68.253906 89.871094 66.167969 85.449219 C 65.496094 84.035156 64.789062 82.617188 64.082031 81.238281 C 63.339844 79.859375 62.5625 78.480469 61.746094 77.132812 C 61.605469 76.957031 60.507812 75.578125 60.191406 74.941406 C 60.015625 74.621094 60.015625 74.375 60.015625 74.269531 C 60.085938 73.984375 60.402344 73.84375 60.6875 73.914062 C 60.898438 73.949219 61.039062 74.125 61.074219 74.339844 C 61.074219 74.375 61.074219 74.410156 61.109375 74.445312 C 61.464844 75.011719 62.5625 76.390625 62.667969 76.566406 C 63.515625 77.914062 64.328125 79.292969 65.070312 80.671875 C 65.851562 82.085938 66.59375 83.503906 67.265625 84.917969 C 69.457031 89.375 71.261719 94.082031 72.78125 98.894531 C 74.265625 103.707031 75.398438 108.625 76.175781 113.542969 C 78.191406 126.527344 78.898438 139.585938 78.441406 152.605469 C 77.945312 165.660156 76.28125 178.648438 73.628906 191.457031 C 71.578125 201.328125 68.890625 210.917969 64.964844 219.902344 C 61.003906 228.925781 55.804688 237.347656 48.769531 244.777344 C 48.484375 245.0625 48.058594 245.097656 47.777344 244.8125 C 47.496094 244.566406 47.460938 244.105469 47.742188 243.820312 C 54.601562 236.460938 59.660156 228.183594 63.515625 219.265625 Z M 157.625 177.550781 C 158.050781 172.878906 158.371094 168.101562 158.476562 163.113281 C 158.617188 158.265625 158.828125 153.382812 158.828125 148.535156 C 158.828125 145.316406 158.757812 142.097656 158.511719 138.878906 C 158.371094 137.320312 158.226562 135.726562 158.085938 134.171875 C 157.980469 133.144531 157.839844 132.117188 157.695312 131.09375 C 157.554688 130.207031 157.023438 128.050781 156.882812 127.414062 C 156.882812 127.378906 156.847656 127.308594 156.847656 127.273438 C 156.28125 125.148438 156.351562 124.371094 156.671875 124.511719 C 156.882812 124.230469 157.308594 124.867188 157.875 126.953125 C 157.875 127.023438 157.910156 127.09375 157.910156 127.164062 C 158.085938 127.765625 158.6875 129.996094 158.828125 130.878906 C 159.003906 131.941406 159.148438 133.003906 159.289062 134.066406 C 159.464844 135.621094 159.640625 137.179688 159.820312 138.769531 C 160.101562 141.992188 160.277344 145.28125 160.3125 148.535156 C 160.386719 153.417969 160.277344 158.300781 160.207031 163.148438 C 160.101562 168.175781 159.855469 173.019531 159.464844 177.726562 C 158.792969 185.191406 157.769531 192.339844 156.425781 199.417969 C 154.195312 211.023438 151.082031 222.449219 147.371094 234.730469 C 147.265625 235.082031 146.875 235.296875 146.519531 235.1875 C 146.132812 235.082031 145.921875 234.65625 146.027344 234.304688 C 149.632812 222.0625 152.570312 210.667969 154.726562 199.097656 C 156 192.058594 156.988281 184.980469 157.625 177.550781 Z M 387.933594 214.277344 C 386.554688 213.394531 384.859375 212.226562 383.089844 210.882812 C 380.824219 209.148438 378.492188 207.09375 376.441406 204.9375 C 373.859375 202.175781 371.773438 199.238281 371.066406 196.445312 C 370.957031 196.089844 371.171875 195.703125 371.523438 195.59375 C 371.914062 195.488281 372.300781 195.703125 372.410156 196.089844 C 373.152344 198.636719 375.203125 201.257812 377.644531 203.769531 C 379.695312 205.820312 382.027344 207.765625 384.1875 209.464844 C 385.917969 210.773438 387.511719 211.976562 388.855469 212.898438 C 389.878906 213.640625 390.941406 214.3125 392.039062 214.949219 C 393.132812 215.585938 394.265625 216.1875 395.433594 216.683594 C 395.609375 216.753906 397.519531 217.355469 398.121094 217.53125 C 398.121094 217.53125 398.15625 217.53125 398.191406 217.53125 C 407.175781 220.007812 409.15625 220.824219 405.902344 220.257812 C 408.484375 221.496094 406.253906 221.425781 398.085938 218.628906 L 397.871094 218.59375 C 397.269531 218.453125 395.148438 217.921875 394.9375 217.851562 C 393.734375 217.425781 392.496094 216.859375 391.328125 216.257812 C 390.164062 215.65625 389.03125 214.984375 387.933594 214.277344 Z M 353.804688 214.066406 C 353.628906 213.710938 353.734375 213.285156 354.054688 213.109375 C 354.40625 212.898438 354.832031 213.003906 355.007812 213.359375 C 357.695312 217.710938 361.761719 221.566406 366.324219 224.679688 C 368.589844 226.167969 370.957031 227.476562 373.363281 228.609375 C 375.910156 229.738281 378.457031 230.695312 380.96875 231.296875 C 381.605469 231.472656 385.566406 231.828125 388.925781 231.757812 C 390.339844 231.6875 391.683594 231.578125 392.53125 231.296875 C 392.78125 231.191406 392.992188 231.121094 393.132812 231.011719 C 393.238281 230.941406 393.308594 230.871094 393.308594 230.800781 C 393.308594 230.484375 393.558594 230.234375 393.839844 230.234375 C 394.125 230.234375 394.371094 230.449219 394.371094 230.765625 C 394.40625 231.191406 394.195312 231.578125 393.804688 231.898438 C 393.167969 232.394531 391.929688 232.746094 390.375 232.925781 C 386.695312 233.382812 381.355469 233.066406 380.578125 232.890625 C 377.960938 232.324219 375.273438 231.4375 372.621094 230.234375 C 370.109375 229.101562 367.667969 227.722656 365.335938 226.128906 C 360.632812 222.839844 356.492188 218.664062 353.804688 214.066406 Z M 347.933594 212.261719 C 347.863281 212.367188 347.792969 212.542969 347.792969 212.757812 C 347.757812 213.039062 348.003906 213.285156 348.324219 213.285156 C 348.394531 213.285156 348.5 213.25 348.570312 213.214844 C 349.773438 214.03125 352.636719 217.320312 352.710938 217.460938 C 353.984375 219.445312 355.042969 221.601562 355.925781 223.832031 C 356.8125 226.023438 357.519531 228.324219 358.085938 230.625 C 358.757812 233.277344 359.179688 236.109375 359.429688 239.046875 C 359.78125 243.21875 359.746094 247.539062 359.21875 251.820312 C 358.332031 259.070312 356.175781 266.148438 352.53125 271.917969 C 352.320312 272.234375 352.425781 272.660156 352.746094 272.871094 C 353.0625 273.082031 353.523438 272.976562 353.734375 272.660156 C 357.554688 266.785156 359.960938 259.53125 360.949219 252.03125 C 361.515625 247.644531 361.621094 243.183594 361.234375 238.902344 C 360.984375 235.859375 360.453125 232.960938 359.746094 230.199219 C 359.109375 227.828125 358.332031 225.492188 357.34375 223.230469 C 356.351562 220.964844 355.183594 218.769531 353.804688 216.71875 C 353.699219 216.613281 350.480469 213.109375 349.136719 212.296875 C 348.855469 212.121094 348.605469 212.046875 348.429688 212.046875 C 348.21875 212.046875 348.078125 212.15625 347.933594 212.261719 " fill-opacity="1" fill-rule="evenodd"/></svg>