<svg xmlns="http://www.w3.org/2000/svg" width="48" viewBox="0 0 48 48" height="48" version="1.0"><defs><clipPath id="a"><path d="M 0.488281 27 L 42.1875 27 L 42.1875 43.164062 L 0.488281 43.164062 Z M 0.488281 27"/></clipPath><clipPath id="b"><path d="M 7 14.496094 L 28 14.496094 L 28 32 L 7 32 Z M 7 14.496094"/></clipPath><clipPath id="c"><path d="M 21.128906 4.648438 L 47 4.648438 L 47 30.707031 L 21.128906 30.707031 Z M 21.128906 4.648438"/></clipPath></defs><g clip-path="url(#a)"><path fill="#2196F3" d="M 1.792969 39.269531 C 2.007812 39.199219 2.222656 39.125 2.4375 39.054688 L 2.757812 38.945312 L 3.078125 38.839844 C 3.292969 38.765625 3.503906 38.695312 3.71875 38.621094 L 4.355469 38.414062 L 4.671875 38.304688 C 4.777344 38.269531 4.886719 38.238281 4.992188 38.203125 C 5.203125 38.136719 5.414062 38.066406 5.628906 38 C 6.472656 37.738281 7.316406 37.480469 8.15625 37.257812 C 8.578125 37.152344 8.996094 37.039062 9.414062 36.949219 C 9.519531 36.925781 9.621094 36.902344 9.726562 36.878906 L 10.039062 36.816406 L 10.351562 36.75 C 10.457031 36.730469 10.558594 36.714844 10.664062 36.695312 L 10.972656 36.640625 C 11.027344 36.632812 11.078125 36.625 11.128906 36.617188 L 11.285156 36.59375 L 11.59375 36.550781 C 11.644531 36.542969 11.695312 36.535156 11.746094 36.53125 L 11.898438 36.511719 L 12.207031 36.476562 C 12.308594 36.46875 12.410156 36.460938 12.511719 36.453125 C 12.613281 36.445312 12.714844 36.4375 12.816406 36.429688 L 13.117188 36.417969 C 13.316406 36.40625 13.515625 36.410156 13.714844 36.40625 L 13.863281 36.40625 L 14.011719 36.414062 L 14.304688 36.421875 L 14.597656 36.441406 L 14.742188 36.453125 C 14.792969 36.457031 14.839844 36.464844 14.886719 36.46875 L 15.175781 36.503906 C 15.222656 36.507812 15.269531 36.515625 15.320312 36.523438 L 15.460938 36.546875 C 15.652344 36.570312 15.839844 36.617188 16.027344 36.648438 C 16.050781 36.652344 16.074219 36.660156 16.097656 36.664062 L 16.167969 36.683594 L 16.304688 36.714844 L 16.445312 36.75 C 16.492188 36.761719 16.539062 36.777344 16.585938 36.789062 L 16.863281 36.867188 L 17.136719 36.957031 C 17.183594 36.972656 17.230469 36.984375 17.273438 37 L 17.414062 37.050781 L 17.550781 37.101562 L 17.617188 37.125 C 17.640625 37.132812 17.664062 37.144531 17.6875 37.152344 L 17.960938 37.261719 C 18.007812 37.277344 18.054688 37.300781 18.097656 37.320312 L 18.371094 37.4375 C 18.417969 37.457031 18.464844 37.480469 18.511719 37.5 L 18.785156 37.628906 C 18.96875 37.71875 19.152344 37.804688 19.335938 37.902344 C 19.429688 37.953125 19.519531 37.996094 19.613281 38.046875 L 19.890625 38.199219 C 21.378906 39.007812 22.941406 39.988281 24.640625 40.804688 C 25.488281 41.21875 26.367188 41.59375 27.265625 41.90625 C 28.164062 42.222656 29.085938 42.480469 30.011719 42.675781 C 30.246094 42.722656 30.476562 42.773438 30.707031 42.808594 L 31.058594 42.871094 C 31.117188 42.878906 31.175781 42.890625 31.234375 42.898438 L 31.40625 42.921875 L 31.933594 42.992188 C 31.992188 43 32.050781 43.003906 32.109375 43.011719 C 32.222656 43.023438 32.339844 43.035156 32.457031 43.046875 L 32.632812 43.066406 C 32.691406 43.070312 32.75 43.078125 32.808594 43.078125 L 33.15625 43.105469 L 33.507812 43.125 C 33.742188 43.136719 33.972656 43.140625 34.207031 43.148438 L 34.378906 43.152344 L 34.554688 43.152344 C 34.671875 43.152344 34.785156 43.152344 34.902344 43.148438 L 35.25 43.148438 L 35.945312 43.117188 L 36.117188 43.109375 C 36.175781 43.109375 36.230469 43.101562 36.289062 43.097656 C 36.519531 43.078125 36.75 43.0625 36.980469 43.042969 C 37.207031 43.019531 37.4375 42.992188 37.664062 42.964844 C 37.777344 42.953125 37.890625 42.9375 38.007812 42.925781 L 38.347656 42.871094 L 38.6875 42.820312 C 38.800781 42.800781 38.914062 42.785156 39.023438 42.761719 C 39.25 42.71875 39.476562 42.675781 39.699219 42.628906 C 39.8125 42.605469 39.921875 42.585938 40.035156 42.558594 L 40.367188 42.480469 C 40.59375 42.425781 40.8125 42.367188 41.035156 42.308594 C 40.808594 42.265625 40.582031 42.230469 40.359375 42.199219 L 40.019531 42.148438 L 39.683594 42.097656 C 39.460938 42.0625 39.238281 42.027344 39.015625 41.996094 L 38.019531 41.832031 C 37.910156 41.8125 37.800781 41.792969 37.691406 41.773438 L 37.359375 41.71875 L 37.195312 41.691406 L 37.03125 41.660156 C 36.816406 41.617188 36.597656 41.578125 36.378906 41.535156 L 36.21875 41.503906 L 36.054688 41.472656 L 35.734375 41.402344 L 35.410156 41.335938 L 35.089844 41.261719 C 34.984375 41.238281 34.875 41.214844 34.769531 41.191406 L 34.609375 41.15625 L 34.449219 41.117188 C 34.238281 41.0625 34.027344 41.011719 33.816406 40.957031 L 33.503906 40.871094 L 33.191406 40.789062 C 32.984375 40.730469 32.777344 40.667969 32.570312 40.609375 C 32.519531 40.59375 32.464844 40.578125 32.414062 40.5625 L 32.261719 40.515625 L 31.957031 40.417969 L 31.800781 40.367188 C 31.75 40.351562 31.699219 40.335938 31.648438 40.316406 L 31.347656 40.214844 C 31.144531 40.144531 30.945312 40.070312 30.746094 40 C 29.949219 39.703125 29.167969 39.375 28.402344 39.011719 C 27.640625 38.648438 26.890625 38.25 26.148438 37.824219 C 25.773438 37.613281 25.402344 37.390625 25.027344 37.167969 C 24.65625 36.941406 24.28125 36.714844 23.898438 36.480469 C 23.140625 36.015625 22.355469 35.535156 21.519531 35.082031 C 21.101562 34.855469 20.667969 34.636719 20.222656 34.429688 L 19.882812 34.28125 C 19.828125 34.257812 19.769531 34.230469 19.710938 34.207031 L 19.539062 34.136719 L 19.363281 34.066406 C 19.304688 34.042969 19.25 34.019531 19.1875 34 L 18.832031 33.871094 C 18.804688 33.859375 18.773438 33.847656 18.746094 33.839844 L 18.652344 33.808594 L 18.472656 33.753906 L 18.289062 33.695312 C 18.230469 33.675781 18.167969 33.660156 18.105469 33.640625 L 17.738281 33.542969 L 17.363281 33.457031 C 17.300781 33.441406 17.238281 33.425781 17.175781 33.414062 L 16.984375 33.378906 L 16.796875 33.34375 L 16.699219 33.328125 C 16.667969 33.320312 16.636719 33.316406 16.605469 33.3125 C 16.351562 33.277344 16.097656 33.242188 15.839844 33.222656 C 15.332031 33.171875 14.820312 33.171875 14.316406 33.179688 L 13.9375 33.203125 L 13.75 33.214844 L 13.5625 33.230469 C 13.316406 33.257812 13.066406 33.28125 12.824219 33.320312 L 12.457031 33.378906 C 12.335938 33.398438 12.214844 33.425781 12.09375 33.449219 C 11.976562 33.472656 11.855469 33.496094 11.734375 33.523438 L 11.378906 33.609375 L 11.203125 33.652344 C 11.144531 33.664062 11.085938 33.679688 11.027344 33.695312 L 10.679688 33.796875 L 10.507812 33.847656 C 10.449219 33.863281 10.390625 33.878906 10.335938 33.898438 L 9.992188 34.011719 C 9.878906 34.050781 9.765625 34.085938 9.652344 34.125 L 9.320312 34.25 L 8.988281 34.378906 C 8.933594 34.398438 8.878906 34.421875 8.824219 34.445312 L 8.660156 34.511719 L 8.335938 34.648438 C 8.28125 34.671875 8.226562 34.695312 8.171875 34.71875 L 8.011719 34.789062 C 7.90625 34.839844 7.796875 34.886719 7.691406 34.9375 C 7.585938 34.988281 7.480469 35.035156 7.375 35.085938 C 6.535156 35.496094 5.722656 35.945312 4.933594 36.425781 C 4.738281 36.546875 4.542969 36.667969 4.347656 36.792969 C 4.25 36.855469 4.152344 36.914062 4.058594 36.980469 L 3.769531 37.171875 C 3.578125 37.300781 3.390625 37.429688 3.199219 37.5625 C 3.011719 37.695312 2.828125 37.828125 2.640625 37.964844 L 2.363281 38.167969 C 2.269531 38.234375 2.179688 38.304688 2.089844 38.375 C 1.90625 38.515625 1.726562 38.660156 1.546875 38.800781 C 1.457031 38.871094 1.367188 38.945312 1.277344 39.019531 L 1.011719 39.238281 C 0.835938 39.386719 0.664062 39.539062 0.488281 39.691406 C 0.929688 39.558594 1.359375 39.414062 1.792969 39.269531 Z M 42.1875 36.945312 C 41.96875 37.003906 41.746094 37.0625 41.523438 37.117188 L 41.1875 37.199219 C 41.078125 37.222656 40.964844 37.246094 40.851562 37.269531 C 40.628906 37.3125 40.402344 37.359375 40.179688 37.402344 C 40.066406 37.421875 39.953125 37.4375 39.839844 37.457031 L 39.5 37.511719 L 39.160156 37.5625 C 39.046875 37.578125 38.933594 37.589844 38.816406 37.605469 C 38.589844 37.632812 38.363281 37.660156 38.132812 37.679688 C 37.902344 37.703125 37.671875 37.71875 37.441406 37.734375 C 37.386719 37.742188 37.328125 37.746094 37.269531 37.75 L 37.097656 37.757812 L 36.75 37.769531 L 36.402344 37.785156 L 36.054688 37.789062 C 35.941406 37.789062 35.824219 37.789062 35.707031 37.789062 L 35.535156 37.789062 L 35.359375 37.785156 C 35.125 37.78125 34.894531 37.773438 34.660156 37.761719 L 34.3125 37.742188 L 33.960938 37.71875 C 33.902344 37.714844 33.84375 37.707031 33.785156 37.703125 L 33.613281 37.6875 C 33.496094 37.675781 33.378906 37.664062 33.261719 37.652344 C 33.203125 37.644531 33.144531 37.640625 33.085938 37.632812 L 32.910156 37.609375 L 32.5625 37.5625 L 32.386719 37.535156 C 32.328125 37.527344 32.269531 37.515625 32.210938 37.507812 L 31.863281 37.449219 C 31.628906 37.414062 31.398438 37.359375 31.164062 37.3125 C 30.238281 37.121094 29.316406 36.859375 28.417969 36.546875 C 27.519531 36.230469 26.644531 35.855469 25.796875 35.445312 C 24.667969 34.902344 23.601562 34.289062 22.574219 33.699219 C 22.054688 33.402344 21.546875 33.109375 21.046875 32.835938 L 20.765625 32.6875 C 20.675781 32.636719 20.582031 32.589844 20.488281 32.542969 C 20.304688 32.445312 20.121094 32.359375 19.9375 32.265625 L 19.664062 32.136719 C 19.617188 32.117188 19.570312 32.09375 19.527344 32.074219 L 19.390625 32.015625 L 19.25 31.957031 C 19.207031 31.9375 19.160156 31.917969 19.113281 31.898438 L 18.839844 31.789062 C 18.816406 31.78125 18.792969 31.769531 18.773438 31.761719 L 18.703125 31.738281 L 18.566406 31.6875 L 18.429688 31.640625 C 18.382812 31.621094 18.335938 31.609375 18.289062 31.59375 L 18.015625 31.503906 L 17.738281 31.425781 C 17.691406 31.414062 17.644531 31.398438 17.597656 31.386719 L 17.460938 31.355469 L 17.320312 31.320312 L 17.25 31.304688 C 17.226562 31.296875 17.203125 31.292969 17.179688 31.289062 C 16.992188 31.253906 16.804688 31.207031 16.613281 31.183594 L 16.472656 31.160156 C 16.425781 31.152344 16.378906 31.144531 16.328125 31.140625 L 16.039062 31.109375 C 15.992188 31.101562 15.945312 31.09375 15.894531 31.089844 L 15.75 31.082031 L 15.460938 31.058594 L 15.015625 31.046875 L 14.980469 31.042969 L 14.867188 31.042969 C 14.667969 31.046875 14.472656 31.042969 14.269531 31.054688 L 13.96875 31.066406 C 13.867188 31.074219 13.765625 31.085938 13.664062 31.09375 C 13.5625 31.101562 13.460938 31.105469 13.359375 31.117188 L 13.054688 31.152344 L 12.898438 31.167969 C 12.847656 31.175781 12.796875 31.179688 12.746094 31.1875 L 12.4375 31.234375 L 12.28125 31.257812 C 12.230469 31.265625 12.179688 31.269531 12.128906 31.28125 L 11.816406 31.335938 C 11.714844 31.351562 11.609375 31.371094 11.503906 31.390625 L 10.878906 31.515625 C 10.777344 31.539062 10.671875 31.566406 10.566406 31.589844 C 10.265625 31.652344 9.964844 31.730469 9.660156 31.808594 C 9.542969 31.835938 9.425781 31.867188 9.308594 31.898438 C 8.46875 32.121094 7.628906 32.375 6.78125 32.636719 C 6.570312 32.707031 6.359375 32.777344 6.144531 32.84375 C 6.039062 32.875 5.933594 32.90625 5.828125 32.945312 L 5.507812 33.050781 L 4.871094 33.261719 C 4.660156 33.332031 4.445312 33.40625 4.230469 33.476562 L 3.910156 33.582031 L 3.589844 33.691406 C 3.375 33.765625 3.160156 33.835938 2.945312 33.90625 C 2.515625 34.050781 2.085938 34.199219 1.644531 34.328125 C 1.816406 34.175781 1.988281 34.027344 2.167969 33.878906 L 2.429688 33.65625 C 2.519531 33.582031 2.609375 33.511719 2.699219 33.4375 C 2.878906 33.296875 3.0625 33.15625 3.242188 33.015625 C 3.332031 32.945312 3.425781 32.875 3.515625 32.804688 L 3.792969 32.601562 C 3.980469 32.46875 4.167969 32.332031 4.355469 32.199219 C 4.542969 32.066406 4.734375 31.9375 4.921875 31.808594 L 5.210938 31.617188 C 5.304688 31.554688 5.402344 31.492188 5.5 31.429688 C 5.695312 31.304688 5.890625 31.1875 6.085938 31.0625 C 6.804688 30.628906 7.539062 30.21875 8.296875 29.839844 C 8.371094 29.800781 8.449219 29.761719 8.527344 29.726562 C 8.632812 29.671875 8.738281 29.625 8.84375 29.578125 C 8.953125 29.527344 9.058594 29.476562 9.164062 29.429688 L 9.324219 29.355469 C 9.378906 29.332031 9.433594 29.308594 9.488281 29.285156 L 9.8125 29.148438 L 9.976562 29.082031 C 10.03125 29.058594 10.085938 29.035156 10.140625 29.015625 L 10.472656 28.890625 L 10.808594 28.765625 C 10.917969 28.726562 11.035156 28.6875 11.148438 28.652344 L 11.488281 28.539062 C 11.542969 28.519531 11.601562 28.503906 11.660156 28.484375 L 11.832031 28.433594 L 12.179688 28.335938 C 12.238281 28.316406 12.296875 28.304688 12.355469 28.289062 L 12.535156 28.246094 L 12.886719 28.160156 C 13.007812 28.132812 13.128906 28.109375 13.25 28.085938 C 13.367188 28.0625 13.488281 28.039062 13.609375 28.015625 L 13.976562 27.960938 C 14.21875 27.917969 14.46875 27.894531 14.71875 27.871094 L 14.8125 27.859375 L 14.855469 27.855469 L 14.902344 27.851562 L 15.09375 27.839844 L 15.46875 27.820312 C 15.972656 27.808594 16.484375 27.808594 16.996094 27.859375 C 17.25 27.878906 17.503906 27.917969 17.757812 27.953125 C 17.789062 27.957031 17.820312 27.960938 17.855469 27.964844 L 17.949219 27.984375 L 18.136719 28.015625 L 18.328125 28.050781 C 18.390625 28.066406 18.453125 28.078125 18.515625 28.09375 L 18.890625 28.179688 L 19.257812 28.28125 C 19.320312 28.296875 19.382812 28.3125 19.445312 28.332031 L 19.625 28.390625 L 19.808594 28.449219 L 19.898438 28.476562 C 19.929688 28.488281 19.957031 28.5 19.988281 28.507812 L 20.34375 28.636719 C 20.402344 28.660156 20.460938 28.683594 20.519531 28.707031 L 20.691406 28.773438 L 20.867188 28.84375 C 20.921875 28.867188 20.980469 28.894531 21.035156 28.917969 L 21.375 29.070312 C 21.820312 29.273438 22.253906 29.492188 22.671875 29.71875 C 23.507812 30.175781 24.292969 30.652344 25.050781 31.117188 C 25.121094 31.160156 25.1875 31.203125 25.253906 31.242188 C 25.566406 31.433594 25.875 31.621094 26.183594 31.808594 C 26.554688 32.03125 26.925781 32.253906 27.300781 32.464844 C 28.042969 32.890625 28.792969 33.289062 29.558594 33.648438 C 30.320312 34.011719 31.101562 34.339844 31.898438 34.636719 C 32.097656 34.710938 32.296875 34.785156 32.5 34.851562 L 32.804688 34.957031 C 32.855469 34.972656 32.902344 34.992188 32.957031 35.007812 L 33.109375 35.054688 L 33.414062 35.152344 L 33.570312 35.203125 C 33.621094 35.21875 33.671875 35.230469 33.722656 35.246094 C 33.929688 35.304688 34.136719 35.371094 34.34375 35.425781 L 34.65625 35.511719 L 34.972656 35.597656 C 35.179688 35.652344 35.394531 35.699219 35.605469 35.753906 L 35.761719 35.792969 L 35.921875 35.828125 C 36.03125 35.851562 36.136719 35.878906 36.242188 35.902344 L 36.5625 35.976562 L 37.210938 36.109375 L 37.371094 36.144531 L 37.535156 36.171875 C 37.75 36.214844 37.96875 36.253906 38.1875 36.296875 L 38.351562 36.328125 L 38.515625 36.355469 L 38.84375 36.414062 C 38.953125 36.433594 39.0625 36.453125 39.171875 36.472656 L 39.503906 36.523438 L 40.167969 36.632812 C 40.390625 36.664062 40.613281 36.699219 40.839844 36.734375 L 41.175781 36.789062 L 41.511719 36.835938 C 41.734375 36.867188 41.960938 36.90625 42.1875 36.945312"/></g><g clip-path="url(#b)"><path fill="#FFC105" d="M 27.398438 24.878906 C 27.398438 27.277344 26.597656 29.488281 25.257812 31.242188 C 25.1875 31.203125 25.121094 31.160156 25.050781 31.117188 C 24.292969 30.652344 23.507812 30.175781 22.671875 29.71875 C 22.253906 29.492188 21.820312 29.273438 21.375 29.070312 L 21.035156 28.917969 C 20.980469 28.894531 20.921875 28.867188 20.867188 28.84375 L 20.691406 28.773438 L 20.519531 28.707031 C 20.460938 28.683594 20.402344 28.660156 20.34375 28.636719 L 19.988281 28.507812 C 19.957031 28.5 19.925781 28.488281 19.898438 28.476562 L 19.808594 28.449219 L 19.625 28.390625 L 19.445312 28.332031 C 19.382812 28.3125 19.320312 28.296875 19.257812 28.28125 L 18.890625 28.179688 L 18.515625 28.09375 C 18.453125 28.078125 18.390625 28.066406 18.328125 28.050781 L 18.136719 28.015625 L 17.949219 27.984375 L 17.855469 27.964844 C 17.820312 27.960938 17.789062 27.957031 17.757812 27.953125 C 17.503906 27.917969 17.25 27.878906 16.996094 27.859375 C 16.484375 27.808594 15.972656 27.808594 15.46875 27.820312 L 15.09375 27.839844 L 14.902344 27.851562 L 14.808594 27.859375 L 14.71875 27.871094 C 14.46875 27.894531 14.21875 27.917969 13.976562 27.960938 L 13.609375 28.015625 C 13.488281 28.039062 13.367188 28.0625 13.25 28.085938 C 13.128906 28.109375 13.007812 28.132812 12.886719 28.160156 L 12.535156 28.246094 L 12.355469 28.289062 C 12.296875 28.304688 12.238281 28.316406 12.179688 28.335938 L 11.832031 28.433594 L 11.660156 28.484375 C 11.601562 28.503906 11.542969 28.519531 11.488281 28.539062 L 11.148438 28.652344 C 11.035156 28.6875 10.917969 28.726562 10.808594 28.765625 L 10.472656 28.890625 L 10.140625 29.015625 C 10.085938 29.035156 10.03125 29.058594 9.976562 29.082031 L 9.8125 29.148438 L 9.488281 29.285156 C 9.433594 29.308594 9.378906 29.332031 9.324219 29.355469 L 9.164062 29.429688 C 9.058594 29.476562 8.953125 29.527344 8.84375 29.578125 C 8.738281 29.625 8.632812 29.675781 8.527344 29.726562 C 8.449219 29.761719 8.371094 29.800781 8.296875 29.839844 C 7.507812 28.367188 7.058594 26.675781 7.058594 24.878906 C 7.058594 19.152344 11.609375 14.507812 17.226562 14.507812 C 22.84375 14.507812 27.398438 19.152344 27.398438 24.878906"/></g><g clip-path="url(#c)"><path fill="#737373" d="M 43.761719 9.964844 C 42.328125 10.0625 41.640625 10.589844 40.390625 11.179688 C 39.679688 10.699219 38.972656 10.199219 38.195312 9.695312 L 38.390625 9.511719 C 38.710938 9.199219 38.71875 8.695312 38.402344 8.378906 C 38.085938 8.0625 37.566406 8.058594 37.246094 8.367188 L 36.773438 8.820312 C 36.035156 8.390625 35.210938 7.960938 34.261719 7.535156 L 34.429688 7.375 C 34.753906 7.066406 34.757812 6.558594 34.441406 6.242188 C 34.125 5.925781 33.609375 5.921875 33.285156 6.230469 L 32.632812 6.859375 C 31.054688 6.257812 29.167969 5.675781 26.835938 5.125 C 24.824219 4.652344 24.691406 5.355469 26.101562 6.386719 C 27.421875 7.359375 33.207031 12.164062 34.066406 14.5625 C 31.421875 16.070312 28.835938 17.605469 27.707031 18.332031 C 27.511719 18.453125 27.320312 18.585938 27.128906 18.722656 C 26.339844 18.429688 25.539062 18.085938 24.71875 17.9375 C 24.007812 17.8125 21.132812 16.941406 21.375 17.621094 C 21.582031 18.222656 24.035156 19.265625 25.066406 20.53125 C 24.335938 21.289062 23.890625 21.914062 23.949219 22.027344 C 24.011719 22.140625 24.804688 22.140625 25.871094 21.984375 C 26.289062 23.175781 26.0625 25.039062 26.128906 26.058594 L 26.980469 26.058594 C 27.347656 25.308594 27.722656 24.183594 27.890625 23.804688 C 28.238281 23.027344 28.398438 22.15625 28.605469 21.328125 C 28.808594 21.257812 29.007812 21.183594 29.203125 21.101562 C 30.445312 20.59375 33.175781 19.375 35.921875 18.085938 C 36.859375 20.875 36.738281 27.15625 36.621094 28.625 C 36.484375 30.339844 37.109375 30.707031 38.074219 28.917969 C 39.128906 26.96875 39.898438 25.285156 40.46875 23.796875 L 42.566406 23.382812 C 43.007812 23.292969 43.292969 22.871094 43.207031 22.4375 C 43.117188 22.007812 42.683594 21.726562 42.242188 21.8125 L 41.078125 22.042969 C 41.402344 21.011719 41.632812 20.078125 41.800781 19.207031 L 42.984375 18.976562 C 43.429688 18.886719 43.714844 18.464844 43.625 18.035156 C 43.535156 17.601562 43.105469 17.320312 42.664062 17.40625 L 42.078125 17.523438 C 42.207031 16.585938 42.292969 15.707031 42.402344 14.835938 C 43.472656 14.222656 44.46875 13.703125 45.285156 12.757812 C 45.671875 12.3125 47.195312 10.816406 46.847656 10.179688 C 46.425781 9.398438 44.445312 9.914062 43.761719 9.964844"/></g></svg>