<svg xmlns="http://www.w3.org/2000/svg" width="262.5" viewBox="0 0 262.5 75" height="75" version="1.0"><defs><clipPath id="a"><path d="M 0 50 L 64.703125 50 L 64.703125 74.066406 L 0 74.066406 Z M 0 50"/></clipPath><clipPath id="b"><path d="M 10 30.160156 L 42 30.160156 L 42 56 L 10 56 Z M 10 30.160156"/></clipPath><clipPath id="c"><path d="M 32.484375 15 L 74 15 L 74 56 L 32.484375 56 Z M 32.484375 15"/></clipPath><clipPath id="d"><path d="M 227 22 L 262 22 L 262 43 L 227 43 Z M 227 22"/></clipPath></defs><g clip-path="url(#a)"><path fill="#2196F3" d="M 2.019531 68.117188 C 2.355469 68.007812 2.6875 67.898438 3.019531 67.785156 L 3.519531 67.617188 L 4.015625 67.453125 C 4.347656 67.34375 4.679688 67.234375 5.007812 67.121094 L 6 66.800781 L 6.492188 66.636719 C 6.65625 66.582031 6.820312 66.535156 6.988281 66.480469 C 7.316406 66.378906 7.644531 66.273438 7.972656 66.167969 C 9.285156 65.765625 10.59375 65.375 11.898438 65.03125 C 12.550781 64.871094 13.199219 64.699219 13.847656 64.5625 C 14.011719 64.527344 14.171875 64.484375 14.332031 64.449219 L 14.820312 64.355469 L 15.304688 64.257812 C 15.464844 64.226562 15.625 64.199219 15.785156 64.171875 L 16.269531 64.085938 C 16.347656 64.070312 16.429688 64.0625 16.507812 64.050781 L 16.75 64.015625 L 17.226562 63.945312 C 17.308594 63.933594 17.386719 63.925781 17.46875 63.917969 L 17.707031 63.890625 L 18.179688 63.835938 C 18.339844 63.824219 18.496094 63.8125 18.652344 63.800781 C 18.8125 63.789062 18.96875 63.773438 19.125 63.761719 L 19.59375 63.742188 C 19.90625 63.722656 20.214844 63.730469 20.523438 63.726562 L 20.753906 63.726562 L 20.980469 63.734375 L 21.4375 63.75 L 21.890625 63.785156 L 22.117188 63.800781 C 22.191406 63.804688 22.265625 63.816406 22.339844 63.824219 L 22.789062 63.875 C 22.863281 63.878906 22.9375 63.894531 23.011719 63.90625 L 23.230469 63.941406 C 23.527344 63.976562 23.816406 64.046875 24.109375 64.101562 C 24.144531 64.105469 24.179688 64.113281 24.21875 64.125 L 24.324219 64.148438 L 24.542969 64.203125 L 24.757812 64.253906 C 24.832031 64.269531 24.902344 64.292969 24.976562 64.3125 L 25.40625 64.433594 L 25.832031 64.570312 C 25.902344 64.59375 25.976562 64.613281 26.046875 64.636719 L 26.257812 64.714844 L 26.472656 64.789062 L 26.578125 64.828125 C 26.613281 64.839844 26.648438 64.855469 26.683594 64.871094 L 27.109375 65.035156 C 27.183594 65.0625 27.253906 65.09375 27.324219 65.125 L 27.535156 65.214844 L 27.75 65.308594 C 27.820312 65.335938 27.890625 65.371094 27.960938 65.402344 L 28.386719 65.597656 C 28.671875 65.738281 28.957031 65.871094 29.246094 66.023438 C 29.386719 66.097656 29.53125 66.164062 29.675781 66.242188 L 30.109375 66.472656 C 32.417969 67.71875 34.839844 69.214844 37.476562 70.472656 C 38.792969 71.101562 40.152344 71.675781 41.550781 72.15625 C 42.945312 72.640625 44.371094 73.039062 45.8125 73.335938 C 46.171875 73.40625 46.527344 73.488281 46.890625 73.542969 L 47.433594 73.632812 C 47.523438 73.648438 47.613281 73.664062 47.703125 73.675781 L 47.976562 73.714844 L 48.519531 73.789062 L 48.789062 73.824219 C 48.882812 73.832031 48.972656 73.84375 49.0625 73.851562 C 49.242188 73.871094 49.425781 73.890625 49.605469 73.90625 L 49.878906 73.933594 C 49.96875 73.941406 50.058594 73.949219 50.148438 73.957031 L 50.691406 73.992188 L 51.234375 74.023438 C 51.597656 74.039062 51.957031 74.050781 52.320312 74.058594 L 52.589844 74.066406 L 52.859375 74.066406 C 53.039062 74.066406 53.21875 74.066406 53.398438 74.0625 L 53.9375 74.058594 L 54.476562 74.039062 L 55.285156 74.003906 C 55.371094 74 55.460938 73.988281 55.550781 73.984375 C 55.910156 73.957031 56.265625 73.929688 56.621094 73.898438 C 56.976562 73.867188 57.332031 73.820312 57.683594 73.78125 C 57.863281 73.757812 58.039062 73.738281 58.214844 73.71875 L 59.269531 73.554688 C 59.445312 73.527344 59.621094 73.503906 59.796875 73.46875 C 60.144531 73.40625 60.496094 73.335938 60.84375 73.265625 C 61.015625 73.230469 61.191406 73.199219 61.363281 73.160156 L 61.882812 73.035156 C 62.226562 72.953125 62.570312 72.863281 62.914062 72.769531 C 62.5625 72.710938 62.210938 72.65625 61.863281 72.601562 L 61.339844 72.527344 L 60.820312 72.449219 C 60.472656 72.394531 60.128906 72.339844 59.78125 72.292969 L 58.75 72.125 L 58.238281 72.046875 C 58.066406 72.015625 57.894531 71.984375 57.722656 71.957031 L 57.214844 71.867188 L 56.960938 71.824219 L 56.832031 71.804688 L 56.707031 71.78125 C 56.367188 71.710938 56.03125 71.652344 55.691406 71.589844 L 55.441406 71.542969 L 55.1875 71.488281 L 54.1875 71.285156 L 53.6875 71.171875 C 53.523438 71.132812 53.359375 71.097656 53.191406 71.0625 L 52.945312 71.007812 L 52.699219 70.945312 C 52.371094 70.863281 52.042969 70.785156 51.714844 70.703125 L 51.230469 70.574219 L 50.742188 70.445312 C 50.417969 70.355469 50.101562 70.257812 49.78125 70.167969 C 49.699219 70.144531 49.621094 70.125 49.539062 70.097656 L 49.300781 70.023438 L 48.824219 69.871094 L 48.585938 69.800781 C 48.507812 69.777344 48.429688 69.746094 48.351562 69.722656 L 47.882812 69.5625 C 47.566406 69.457031 47.257812 69.34375 46.949219 69.234375 C 45.710938 68.777344 44.5 68.273438 43.316406 67.71875 C 42.128906 67.164062 40.96875 66.554688 39.8125 65.902344 C 39.234375 65.578125 38.65625 65.238281 38.078125 64.898438 C 37.496094 64.550781 36.917969 64.199219 36.324219 63.839844 C 35.144531 63.128906 33.925781 62.394531 32.632812 61.699219 C 31.980469 61.351562 31.3125 61.015625 30.621094 60.699219 L 30.09375 60.46875 C 30.003906 60.429688 29.917969 60.390625 29.828125 60.355469 L 29.558594 60.246094 L 29.289062 60.140625 C 29.199219 60.105469 29.109375 60.070312 29.015625 60.039062 L 28.464844 59.839844 C 28.417969 59.824219 28.371094 59.808594 28.324219 59.792969 L 28.183594 59.746094 L 27.902344 59.660156 L 27.621094 59.570312 C 27.527344 59.539062 27.429688 59.515625 27.335938 59.492188 L 26.761719 59.335938 L 26.179688 59.203125 C 26.082031 59.183594 25.988281 59.160156 25.890625 59.140625 L 25.59375 59.085938 L 25.300781 59.035156 L 25.152344 59.007812 C 25.105469 59 25.054688 58.992188 25.007812 58.984375 C 24.613281 58.933594 24.21875 58.875 23.820312 58.847656 C 23.03125 58.769531 22.238281 58.765625 21.453125 58.78125 L 20.871094 58.816406 L 20.578125 58.832031 L 20.503906 58.839844 L 20.433594 58.84375 L 20.289062 58.859375 C 19.902344 58.902344 19.515625 58.933594 19.136719 59 L 18.570312 59.085938 C 18.382812 59.117188 18.195312 59.15625 18.007812 59.191406 C 17.820312 59.230469 17.632812 59.265625 17.449219 59.304688 L 16.898438 59.4375 L 16.625 59.503906 C 16.535156 59.527344 16.441406 59.546875 16.351562 59.574219 L 15.8125 59.726562 L 15.542969 59.804688 C 15.453125 59.832031 15.363281 59.855469 15.277344 59.886719 L 14.746094 60.058594 C 14.570312 60.117188 14.394531 60.171875 14.21875 60.234375 L 13.1875 60.617188 C 13.101562 60.648438 13.015625 60.683594 12.929688 60.71875 L 12.675781 60.824219 L 12.171875 61.03125 C 12.089844 61.070312 12.003906 61.101562 11.921875 61.140625 L 11.671875 61.25 C 11.503906 61.324219 11.339844 61.398438 11.175781 61.476562 C 11.011719 61.550781 10.84375 61.625 10.683594 61.703125 C 9.378906 62.328125 8.121094 63.023438 6.894531 63.753906 C 6.589844 63.941406 6.289062 64.128906 5.988281 64.320312 C 5.835938 64.414062 5.683594 64.507812 5.535156 64.605469 L 5.089844 64.898438 C 4.792969 65.097656 4.5 65.292969 4.207031 65.496094 C 3.914062 65.699219 3.628906 65.90625 3.339844 66.113281 L 2.90625 66.425781 C 2.765625 66.53125 2.625 66.640625 2.480469 66.746094 C 2.199219 66.960938 1.917969 67.179688 1.640625 67.398438 C 1.5 67.503906 1.359375 67.617188 1.222656 67.730469 L 0.8125 68.070312 C 0.539062 68.296875 0.269531 68.527344 0 68.761719 C 0.683594 68.5625 1.351562 68.335938 2.019531 68.117188 Z M 64.703125 64.550781 C 64.359375 64.644531 64.015625 64.734375 63.671875 64.816406 L 63.152344 64.941406 C 62.980469 64.980469 62.804688 65.011719 62.632812 65.046875 C 62.285156 65.117188 61.9375 65.1875 61.585938 65.253906 C 61.410156 65.285156 61.234375 65.308594 61.058594 65.339844 L 60.53125 65.421875 L 60.003906 65.5 C 59.828125 65.523438 59.652344 65.542969 59.472656 65.5625 C 59.121094 65.605469 58.765625 65.648438 58.410156 65.679688 C 58.054688 65.710938 57.699219 65.738281 57.339844 65.765625 C 57.25 65.769531 57.164062 65.78125 57.074219 65.785156 L 56.265625 65.820312 L 55.726562 65.839844 L 55.191406 65.84375 C 55.007812 65.847656 54.828125 65.847656 54.648438 65.847656 L 54.378906 65.847656 L 54.109375 65.839844 C 53.746094 65.832031 53.386719 65.820312 53.023438 65.808594 L 51.9375 65.738281 C 51.847656 65.730469 51.757812 65.722656 51.667969 65.714844 L 51.394531 65.6875 C 51.214844 65.671875 51.03125 65.652344 50.851562 65.632812 C 50.761719 65.625 50.671875 65.617188 50.578125 65.605469 L 50.308594 65.570312 L 49.765625 65.496094 L 49.492188 65.460938 C 49.402344 65.445312 49.3125 65.429688 49.222656 65.414062 L 48.679688 65.324219 C 48.320312 65.269531 47.960938 65.1875 47.601562 65.117188 C 46.160156 64.820312 44.734375 64.421875 43.339844 63.941406 C 41.941406 63.457031 40.582031 62.882812 39.265625 62.253906 C 37.515625 61.421875 35.859375 60.480469 34.269531 59.578125 C 33.464844 59.121094 32.675781 58.671875 31.898438 58.253906 L 31.464844 58.023438 C 31.320312 57.945312 31.175781 57.878906 31.035156 57.804688 C 30.75 57.652344 30.460938 57.523438 30.179688 57.382812 L 29.753906 57.183594 C 29.679688 57.152344 29.609375 57.117188 29.539062 57.089844 L 29.324219 57 L 29.113281 56.90625 C 29.042969 56.875 28.972656 56.84375 28.902344 56.820312 L 28.476562 56.652344 C 28.441406 56.636719 28.402344 56.621094 28.367188 56.609375 L 28.261719 56.570312 L 28.046875 56.496094 L 27.835938 56.417969 C 27.765625 56.394531 27.695312 56.375 27.621094 56.351562 L 27.195312 56.214844 L 26.765625 56.09375 C 26.691406 56.074219 26.621094 56.050781 26.550781 56.035156 L 26.332031 55.984375 L 26.117188 55.933594 L 26.007812 55.90625 C 25.972656 55.898438 25.933594 55.886719 25.898438 55.882812 C 25.605469 55.828125 25.316406 55.761719 25.019531 55.722656 L 24.800781 55.6875 C 24.726562 55.675781 24.652344 55.660156 24.578125 55.65625 L 24.128906 55.605469 C 24.054688 55.597656 23.984375 55.585938 23.90625 55.582031 L 23.679688 55.566406 L 23.226562 55.53125 L 22.769531 55.515625 L 22.542969 55.507812 L 22.3125 55.507812 C 22.003906 55.511719 21.695312 55.503906 21.382812 55.527344 L 20.914062 55.542969 C 20.757812 55.554688 20.601562 55.570312 20.445312 55.582031 C 20.285156 55.59375 20.128906 55.605469 19.96875 55.617188 L 19.496094 55.671875 L 19.257812 55.699219 C 19.175781 55.710938 19.097656 55.714844 19.015625 55.730469 L 18.539062 55.796875 L 18.296875 55.832031 C 18.21875 55.84375 18.136719 55.855469 18.058594 55.867188 L 17.574219 55.953125 C 17.414062 55.980469 17.253906 56.007812 17.09375 56.039062 L 16.125 56.234375 C 15.960938 56.265625 15.800781 56.308594 15.636719 56.34375 C 15.167969 56.441406 14.703125 56.558594 14.230469 56.675781 C 14.050781 56.722656 13.867188 56.769531 13.6875 56.816406 C 12.382812 57.15625 11.074219 57.546875 9.761719 57.949219 C 9.433594 58.054688 9.105469 58.160156 8.777344 58.265625 C 8.613281 58.316406 8.445312 58.363281 8.28125 58.421875 L 7.789062 58.582031 L 6.796875 58.902344 C 6.46875 59.015625 6.136719 59.125 5.804688 59.234375 L 5.308594 59.398438 L 4.8125 59.566406 C 4.480469 59.679688 4.144531 59.789062 3.808594 59.898438 C 3.140625 60.117188 2.472656 60.34375 1.789062 60.542969 C 2.058594 60.308594 2.328125 60.078125 2.601562 59.851562 L 3.011719 59.511719 C 3.148438 59.398438 3.289062 59.289062 3.429688 59.179688 C 3.707031 58.960938 3.988281 58.742188 4.273438 58.527344 C 4.414062 58.421875 4.554688 58.3125 4.695312 58.207031 L 5.128906 57.894531 C 5.417969 57.691406 5.703125 57.480469 5.996094 57.277344 C 6.289062 57.074219 6.585938 56.878906 6.878906 56.683594 L 7.324219 56.386719 C 7.472656 56.289062 7.625 56.195312 7.777344 56.101562 C 8.078125 55.910156 8.382812 55.726562 8.683594 55.535156 C 9.796875 54.871094 10.9375 54.238281 12.113281 53.660156 C 12.230469 53.601562 12.351562 53.542969 12.472656 53.484375 C 12.636719 53.40625 12.800781 53.335938 12.964844 53.257812 C 13.128906 53.179688 13.296875 53.105469 13.460938 53.03125 L 13.710938 52.921875 C 13.792969 52.882812 13.878906 52.851562 13.960938 52.816406 L 14.46875 52.605469 L 14.71875 52.5 C 14.804688 52.464844 14.890625 52.429688 14.976562 52.398438 L 15.492188 52.207031 L 16.011719 52.015625 C 16.183594 51.953125 16.359375 51.898438 16.535156 51.839844 L 17.066406 51.667969 C 17.152344 51.636719 17.242188 51.613281 17.332031 51.585938 L 17.601562 51.507812 L 18.140625 51.355469 C 18.230469 51.328125 18.324219 51.308594 18.414062 51.285156 L 18.6875 51.21875 L 19.238281 51.085938 C 19.425781 51.046875 19.609375 51.011719 19.796875 50.972656 C 19.984375 50.9375 20.171875 50.898438 20.359375 50.867188 L 20.925781 50.78125 C 21.304688 50.71875 21.691406 50.683594 22.078125 50.640625 L 22.222656 50.628906 L 22.292969 50.621094 L 22.367188 50.617188 L 22.660156 50.597656 L 23.242188 50.566406 C 24.027344 50.546875 24.820312 50.550781 25.609375 50.628906 C 26.007812 50.65625 26.402344 50.714844 26.796875 50.765625 C 26.84375 50.773438 26.894531 50.78125 26.945312 50.789062 L 27.089844 50.816406 L 27.382812 50.867188 L 27.679688 50.921875 C 27.777344 50.941406 27.875 50.964844 27.96875 50.984375 L 28.550781 51.117188 L 29.125 51.273438 C 29.21875 51.296875 29.316406 51.320312 29.410156 51.351562 L 29.691406 51.441406 L 29.976562 51.53125 L 30.113281 51.574219 C 30.164062 51.589844 30.207031 51.605469 30.253906 51.621094 L 30.804688 51.820312 C 30.898438 51.851562 30.988281 51.886719 31.078125 51.921875 L 31.347656 52.03125 L 31.617188 52.136719 C 31.707031 52.171875 31.792969 52.210938 31.882812 52.25 L 32.410156 52.480469 C 33.101562 52.796875 33.773438 53.132812 34.421875 53.480469 C 35.714844 54.175781 36.933594 54.910156 38.113281 55.621094 C 38.21875 55.6875 38.324219 55.75 38.429688 55.8125 C 38.914062 56.105469 39.390625 56.394531 39.867188 56.679688 C 40.449219 57.019531 41.023438 57.359375 41.601562 57.683594 C 42.757812 58.335938 43.917969 58.949219 45.105469 59.5 C 46.289062 60.054688 47.5 60.558594 48.738281 61.015625 C 49.046875 61.125 49.355469 61.242188 49.671875 61.34375 L 50.140625 61.503906 C 50.21875 61.527344 50.296875 61.558594 50.378906 61.582031 L 50.617188 61.65625 L 51.089844 61.804688 L 51.328125 61.878906 C 51.410156 61.90625 51.488281 61.925781 51.570312 61.949219 C 51.890625 62.039062 52.210938 62.140625 52.53125 62.226562 L 53.507812 62.484375 C 53.832031 62.566406 54.160156 62.644531 54.488281 62.726562 L 54.734375 62.789062 L 54.980469 62.84375 C 55.148438 62.878906 55.3125 62.914062 55.480469 62.953125 L 55.976562 63.066406 L 56.476562 63.167969 L 56.980469 63.273438 L 57.230469 63.324219 L 57.480469 63.371094 C 57.820312 63.433594 58.15625 63.496094 58.496094 63.5625 L 58.621094 63.585938 L 58.75 63.605469 L 59.003906 63.648438 L 59.515625 63.738281 C 59.683594 63.769531 59.855469 63.796875 60.027344 63.828125 L 60.539062 63.90625 L 61.570312 64.074219 C 61.917969 64.125 62.261719 64.175781 62.609375 64.230469 L 63.132812 64.3125 L 63.652344 64.386719 C 64.003906 64.4375 64.351562 64.492188 64.703125 64.550781"/></g><g clip-path="url(#b)"><path fill="#FFC105" d="M 41.753906 46.054688 C 41.753906 49.734375 40.511719 53.121094 38.429688 55.8125 C 38.324219 55.75 38.21875 55.6875 38.113281 55.621094 C 36.933594 54.910156 35.714844 54.175781 34.421875 53.480469 C 33.773438 53.132812 33.101562 52.796875 32.410156 52.480469 L 31.882812 52.25 C 31.792969 52.210938 31.707031 52.171875 31.617188 52.136719 L 31.347656 52.03125 L 31.078125 51.921875 C 30.988281 51.886719 30.898438 51.851562 30.804688 51.820312 L 30.253906 51.621094 C 30.207031 51.605469 30.160156 51.589844 30.113281 51.574219 L 29.972656 51.53125 L 29.410156 51.351562 C 29.316406 51.320312 29.21875 51.300781 29.125 51.273438 L 28.550781 51.117188 L 27.96875 50.984375 C 27.871094 50.964844 27.777344 50.941406 27.679688 50.921875 L 27.382812 50.867188 L 27.089844 50.816406 L 26.945312 50.789062 C 26.894531 50.78125 26.84375 50.773438 26.796875 50.765625 C 26.402344 50.714844 26.007812 50.65625 25.609375 50.628906 C 24.820312 50.550781 24.027344 50.546875 23.242188 50.5625 L 22.660156 50.597656 L 22.367188 50.617188 L 22.292969 50.621094 L 22.222656 50.628906 L 22.078125 50.640625 C 21.691406 50.683594 21.304688 50.71875 20.925781 50.78125 L 20.359375 50.867188 C 20.171875 50.898438 19.984375 50.9375 19.796875 50.972656 C 19.609375 51.011719 19.425781 51.046875 19.238281 51.085938 L 18.6875 51.21875 L 18.414062 51.285156 C 18.324219 51.308594 18.230469 51.328125 18.140625 51.355469 L 17.601562 51.507812 L 17.332031 51.585938 C 17.242188 51.613281 17.152344 51.636719 17.066406 51.667969 L 16.535156 51.839844 C 16.359375 51.898438 16.183594 51.953125 16.011719 52.015625 L 15.492188 52.207031 L 14.976562 52.398438 C 14.890625 52.429688 14.804688 52.464844 14.71875 52.5 L 14.46875 52.605469 L 13.960938 52.816406 C 13.878906 52.851562 13.792969 52.882812 13.710938 52.921875 L 13.460938 53.03125 C 13.296875 53.105469 13.128906 53.183594 12.964844 53.257812 C 12.800781 53.335938 12.636719 53.40625 12.472656 53.484375 C 12.351562 53.542969 12.230469 53.601562 12.113281 53.660156 C 10.886719 51.402344 10.191406 48.8125 10.191406 46.054688 C 10.191406 37.277344 17.257812 30.160156 25.972656 30.160156 C 34.6875 30.160156 41.753906 37.277344 41.753906 46.054688"/></g><g clip-path="url(#c)"><path fill="#737373" d="M 68.601562 23.140625 C 66.3125 23.296875 65.21875 24.140625 63.222656 25.078125 C 62.089844 24.3125 60.960938 23.515625 59.722656 22.710938 L 60.03125 22.414062 C 60.542969 21.921875 60.550781 21.113281 60.046875 20.609375 C 59.546875 20.105469 58.71875 20.097656 58.203125 20.589844 L 57.453125 21.3125 C 56.269531 20.625 54.957031 19.9375 53.445312 19.261719 L 53.710938 19.003906 C 54.226562 18.511719 54.234375 17.703125 53.730469 17.199219 C 53.226562 16.695312 52.402344 16.6875 51.886719 17.179688 L 50.84375 18.183594 C 48.324219 17.222656 45.3125 16.289062 41.589844 15.414062 C 38.386719 14.660156 38.171875 15.78125 40.417969 17.429688 C 42.53125 18.980469 51.757812 26.65625 53.132812 30.484375 C 48.910156 32.890625 44.789062 35.34375 42.980469 36.5 C 42.671875 36.699219 42.363281 36.910156 42.0625 37.128906 C 40.804688 36.65625 39.523438 36.113281 38.214844 35.875 C 37.082031 35.671875 32.496094 34.28125 32.875 35.371094 C 33.210938 36.328125 37.125 37.992188 38.769531 40.011719 C 37.601562 41.226562 36.890625 42.222656 36.988281 42.40625 C 37.089844 42.585938 38.351562 42.585938 40.050781 42.335938 C 40.71875 44.234375 40.363281 47.214844 40.464844 48.839844 L 41.820312 48.839844 C 42.410156 47.644531 43.003906 45.84375 43.277344 45.238281 C 43.832031 44.003906 44.089844 42.609375 44.414062 41.285156 C 44.738281 41.171875 45.058594 41.054688 45.375 40.925781 C 47.355469 40.113281 51.710938 38.167969 56.09375 36.109375 C 57.585938 40.5625 57.394531 50.59375 57.207031 52.9375 C 56.988281 55.679688 57.988281 56.261719 59.527344 53.40625 C 61.207031 50.292969 62.433594 47.601562 63.34375 45.226562 L 66.695312 44.566406 C 67.398438 44.425781 67.855469 43.753906 67.714844 43.0625 C 67.570312 42.371094 66.882812 41.921875 66.179688 42.0625 L 64.324219 42.429688 C 64.839844 40.78125 65.203125 39.289062 65.472656 37.902344 L 67.363281 37.53125 C 68.070312 37.390625 68.527344 36.71875 68.382812 36.027344 C 68.242188 35.332031 67.554688 34.886719 66.847656 35.023438 L 65.917969 35.210938 C 66.121094 33.710938 66.257812 32.308594 66.429688 30.917969 C 68.140625 29.9375 69.726562 29.109375 71.035156 27.601562 C 71.652344 26.890625 74.082031 24.503906 73.527344 23.484375 C 72.851562 22.238281 69.691406 23.0625 68.601562 23.140625"/></g><g fill="#FFC105"><g><g><path d="M 33.4375 -30.507812 C 31.949219 -26.992188 29.605469 -19.421875 22.574219 -17.078125 C 24.289062 -22.980469 25.371094 -26.449219 26.675781 -30.144531 C 26.722656 -31.316406 22.351562 -31.769531 21.628906 -30.371094 C 16.449219 -24.0625 6.894531 -26.046875 5.40625 -19.78125 C 4.640625 -16.71875 6.941406 -13.5625 11.128906 -13.699219 C 12.347656 -13.878906 12.617188 -16.042969 11.941406 -16.265625 C 10.230469 -16.628906 9.957031 -17.800781 10.320312 -19.285156 C 11.085938 -22.621094 16.628906 -22.394531 20.277344 -26.316406 C 18.878906 -21.945312 17.933594 -17.980469 15.636719 -10.140625 C 14.464844 -6.21875 13.339844 -2.839844 10.949219 -2.792969 C 8.066406 -2.75 7.253906 -6.261719 9.507812 -9.011719 C 9.6875 -10.230469 7.707031 -11.402344 6.757812 -10.996094 C 1.261719 -7.886719 2.703125 0.496094 10.320312 0.449219 C 17.167969 0.40625 18.878906 -4.144531 21.402344 -13.382812 C 23.65625 -13.382812 24.828125 -11.851562 25.371094 -8.785156 C 26.269531 -3.921875 26.269531 4.191406 32.21875 5.09375 C 34.515625 5.273438 35.824219 2.433594 35.011719 1.621094 C 30.777344 0.40625 30.6875 -5.679688 29.695312 -9.914062 C 29.246094 -12.121094 28.34375 -14.195312 26.359375 -15.09375 C 32.039062 -17.167969 36.09375 -23.566406 38.210938 -29.964844 C 38.121094 -31.003906 34.472656 -31.8125 33.4375 -30.507812 Z M 33.4375 -30.507812" transform="translate(84.611 41.75)"/></g></g></g><g fill="#FFC105"><g><g><path d="M 6.261719 -21.808594 C 8.066406 -21.808594 9.328125 -22.9375 9.507812 -24.558594 C 9.734375 -26.136719 8.742188 -27.261719 7.121094 -27.261719 C 5.453125 -27.308594 4.191406 -26.179688 3.921875 -24.558594 C 3.695312 -22.980469 4.777344 -21.808594 6.261719 -21.808594 Z M 2.839844 0.40625 C 7.523438 0.316406 10.90625 -4.957031 12.796875 -9.011719 C 13.066406 -9.597656 11.492188 -10.542969 11.21875 -9.957031 C 9.6875 -6.261719 6.714844 -2.75 4.640625 -2.75 C 3.695312 -2.703125 3.738281 -3.921875 4.101562 -5.722656 C 4.777344 -8.785156 5.722656 -11.714844 7.480469 -17.980469 C 7.164062 -19.0625 3.46875 -19.601562 2.75 -18.566406 C 1.171875 -13.113281 0.0898438 -9.464844 -0.902344 -5.226562 C -1.710938 -1.757812 -0.902344 0.496094 2.839844 0.40625 Z M 2.839844 0.40625" transform="translate(121.922 41.75)"/></g></g></g><g fill="#FFC105"><g><g><path d="M 2.882812 -18.386719 C 1.667969 -14.375 0 -10.046875 -0.632812 -5.542969 C -1.171875 -1.488281 0.40625 0.316406 3.648438 0.40625 C 6.847656 0.539062 9.464844 -0.8125 11.625 -2.792969 C 15.277344 -1.894531 19.917969 -2.074219 23.160156 -9.058594 C 23.433594 -9.644531 21.855469 -10.5 21.585938 -9.957031 C 19.601562 -5.316406 16.671875 -3.964844 13.429688 -4.597656 C 16.222656 -7.929688 17.890625 -12.664062 18.429688 -17.84375 C 18.160156 -19.511719 14.148438 -19.421875 13.652344 -18.429688 C 13.429688 -14.554688 11.988281 -10.003906 10.140625 -6.984375 C 8.785156 -7.707031 7.121094 -5.902344 8.246094 -4.417969 C 7.164062 -3.289062 6.171875 -2.792969 5.183594 -2.882812 C 2.433594 -3.15625 6.039062 -12.707031 7.617188 -17.890625 C 7.433594 -19.195312 3.695312 -19.511719 2.882812 -18.386719 Z M 2.882812 -18.386719" transform="translate(132.827 41.75)"/></g></g></g><g fill="#FFC105"><g><g><path d="M 6.261719 -21.808594 C 8.066406 -21.808594 9.328125 -22.9375 9.507812 -24.558594 C 9.734375 -26.136719 8.742188 -27.261719 7.121094 -27.261719 C 5.453125 -27.308594 4.191406 -26.179688 3.921875 -24.558594 C 3.695312 -22.980469 4.777344 -21.808594 6.261719 -21.808594 Z M 2.839844 0.40625 C 7.523438 0.316406 10.90625 -4.957031 12.796875 -9.011719 C 13.066406 -9.597656 11.492188 -10.542969 11.21875 -9.957031 C 9.6875 -6.261719 6.714844 -2.75 4.640625 -2.75 C 3.695312 -2.703125 3.738281 -3.921875 4.101562 -5.722656 C 4.777344 -8.785156 5.722656 -11.714844 7.480469 -17.980469 C 7.164062 -19.0625 3.46875 -19.601562 2.75 -18.566406 C 1.171875 -13.113281 0.0898438 -9.464844 -0.902344 -5.226562 C -1.710938 -1.757812 -0.902344 0.496094 2.839844 0.40625 Z M 2.839844 0.40625" transform="translate(154.096 41.75)"/></g></g></g><g fill="#FFC105"><g><g><path d="M 10.726562 -19.0625 C 5.632812 -18.203125 0.359375 -13.023438 -0.632812 -6.984375 C -1.441406 -1.9375 1.082031 0.449219 4.371094 0.40625 C 8.019531 0.316406 10.003906 -2.476562 11.582031 -5.226562 C 11.039062 -1.894531 12.257812 0.179688 14.417969 0.179688 C 18.65625 0.179688 22.171875 -4.144531 24.511719 -9.058594 C 24.785156 -9.597656 23.160156 -10.5 22.9375 -9.957031 C 21.3125 -6.039062 18.25 -2.972656 16.582031 -2.929688 C 15.546875 -2.929688 15.277344 -3.964844 15.773438 -6.21875 C 16.175781 -8.425781 16.988281 -11.128906 17.484375 -12.84375 C 17.304688 -13.789062 13.96875 -14.734375 13.15625 -13.699219 C 11.625 -7.929688 7.121094 -1.082031 4.910156 -3.246094 C 3.875 -4.28125 4.144531 -7.34375 5.542969 -10.273438 C 6.941406 -13.25 9.417969 -15.546875 12.03125 -15.90625 C 14.105469 -16.175781 16.628906 -15.546875 18.476562 -14.058594 C 19.195312 -13.699219 21.042969 -15.773438 20.59375 -16.492188 C 18.070312 -19.0625 13.699219 -19.558594 10.726562 -19.0625 Z M 10.726562 -19.0625" transform="translate(165.001 41.75)"/></g></g></g><g fill="#FFC105"><g><g><path d="M 11.175781 -19.105469 C 8.019531 -18.699219 4.460938 -16.71875 2.027344 -13.203125 C -2.074219 -7.433594 -1.9375 0.539062 4.371094 0.40625 C 7.886719 0.316406 10.09375 -2.570312 11.492188 -5.09375 C 10.816406 -2.839844 10.046875 -0.40625 9.507812 1.214844 C 5.046875 2.660156 0.226562 4.460938 -0.316406 8.785156 C -0.675781 11.761719 1.398438 13.429688 4.417969 13.339844 C 9.417969 13.292969 11.402344 10.183594 13.472656 2.613281 C 18.386719 0.496094 21.179688 -2.660156 24.242188 -9.058594 C 24.511719 -9.597656 22.890625 -10.5 22.664062 -10.003906 C 20.367188 -4.867188 17.664062 -1.710938 14.238281 -0.316406 C 15.636719 -5.273438 16.402344 -8.605469 17.617188 -12.84375 C 17.527344 -13.742188 13.96875 -14.691406 13.339844 -13.742188 C 12.753906 -11.894531 11.941406 -9.914062 11.21875 -8.425781 C 9.101562 -4.101562 6.355469 -1.984375 4.957031 -3.199219 C 3.875 -4.234375 4.101562 -7.253906 5.585938 -10.273438 C 7.164062 -13.429688 9.644531 -15.726562 12.4375 -15.953125 C 14.417969 -16.132812 16.761719 -15.546875 18.566406 -14.105469 C 19.285156 -13.609375 21.132812 -15.773438 20.726562 -16.492188 C 18.023438 -18.878906 14.148438 -19.464844 11.175781 -19.105469 Z M 8.785156 4.101562 C 8.515625 5.046875 8.292969 5.949219 8.019531 6.804688 C 6.535156 11.355469 2.703125 10.632812 4.101562 7.75 C 4.730469 6.445312 6.667969 5 8.785156 4.101562 Z M 8.785156 4.101562" transform="translate(187.667 41.75)"/></g></g></g><g fill="#FFC105"><g><g><path d="M 11.445312 -19.105469 C 6.171875 -19.285156 1.441406 -15.589844 0.226562 -9.6875 C -0.902344 -4.640625 1.53125 0.226562 8.382812 0.449219 C 12.664062 0.585938 18.070312 -0.902344 21.71875 -9.058594 C 21.945312 -9.597656 20.367188 -10.5 20.097656 -9.957031 C 17.484375 -4.011719 12.707031 -2.433594 9.644531 -2.75 C 6.488281 -3.0625 4.820312 -4.910156 5.09375 -7.796875 C 10.320312 -6.578125 14.601562 -8.15625 16.265625 -11.535156 C 17.980469 -14.824219 16.492188 -18.925781 11.445312 -19.105469 Z M 10.859375 -15.90625 C 12.570312 -15.863281 12.617188 -14.238281 11.894531 -12.753906 C 10.996094 -10.769531 8.742188 -9.597656 5.40625 -10.09375 C 6.21875 -13.339844 8.742188 -16.042969 10.859375 -15.90625 Z M 10.859375 -15.90625" transform="translate(210.018 41.75)"/></g></g></g><g clip-path="url(#d)"><g fill="#FFC105"><g><g><path d="M 23.972656 0.40625 C 28.34375 0.269531 31.632812 -5.09375 33.480469 -9.058594 C 33.75 -9.597656 32.128906 -10.5 31.902344 -9.957031 C 30.28125 -6.128906 27.488281 -2.75 25.773438 -2.75 C 23.433594 -2.703125 26.449219 -10.046875 27.21875 -13.292969 C 28.074219 -16.988281 27.128906 -19.195312 23.703125 -19.195312 C 20.773438 -19.242188 18.296875 -16.898438 16.582031 -14.691406 C 17.078125 -17.394531 15.816406 -19.195312 13.429688 -19.195312 C 10.726562 -19.242188 7.886719 -16.582031 6.308594 -14.375 L 7.300781 -17.933594 C 7.074219 -19.242188 3.335938 -19.601562 2.613281 -18.609375 C 0.855469 -11.988281 -0.539062 -6.984375 -2.117188 -0.992188 C -2.296875 0.585938 2.476562 0.539062 2.882812 -0.496094 C 3.695312 -4.011719 4.417969 -7.074219 5.453125 -10.542969 C 6.984375 -13.203125 9.191406 -15.5 10.589844 -15.5 C 11.894531 -15.546875 11.804688 -14.058594 11.492188 -12.886719 C 10.320312 -8.15625 9.417969 -4.507812 8.515625 -0.722656 C 8.695312 0.585938 12.976562 0.449219 13.472656 -0.539062 C 14.148438 -3.109375 15.09375 -7.480469 15.90625 -10.410156 C 16.898438 -12.84375 19.558594 -15.546875 21.132812 -15.589844 C 22.574219 -15.589844 22.304688 -14.015625 21.988281 -12.707031 C 21.402344 -10.320312 20.324219 -6.398438 20.007812 -4.597656 C 19.421875 -1.53125 20.457031 0.539062 23.972656 0.40625 Z M 23.972656 0.40625" transform="translate(229.845 41.75)"/></g></g></g></g><g fill="#2196F3"><g><g><path d="M 5.015625 0 L 6.054688 0 L 3.550781 -6.238281 L 2.480469 -6.238281 L -0.0234375 0 L 1.015625 0 L 1.53125 -1.339844 L 4.5 -1.339844 Z M 1.863281 -2.195312 L 3.019531 -5.207031 L 4.175781 -2.195312 Z M 1.863281 -2.195312" transform="translate(88.973 65.205)"/></g></g></g><g fill="#2196F3"><g><g><path d="M 3.777344 -3.519531 L 3.777344 -2.621094 L 5.242188 -2.621094 L 5.242188 -1.515625 C 4.832031 -1.082031 4.300781 -0.863281 3.644531 -0.863281 C 3.011719 -0.863281 2.480469 -1.082031 2.054688 -1.515625 C 1.628906 -1.945312 1.421875 -2.480469 1.421875 -3.121094 C 1.421875 -3.75 1.640625 -4.285156 2.070312 -4.71875 C 2.503906 -5.148438 3.042969 -5.375 3.675781 -5.375 C 4.335938 -5.375 4.882812 -5.132812 5.316406 -4.660156 L 6.03125 -5.28125 C 5.738281 -5.597656 5.382812 -5.847656 4.964844 -6.039062 C 4.542969 -6.222656 4.109375 -6.324219 3.675781 -6.324219 C 2.785156 -6.324219 2.03125 -6.007812 1.40625 -5.390625 C 0.78125 -4.765625 0.472656 -4.011719 0.472656 -3.121094 C 0.472656 -2.222656 0.773438 -1.464844 1.390625 -0.847656 C 1.996094 -0.226562 2.746094 0.0820312 3.644531 0.0820312 C 4.308594 0.0820312 4.859375 -0.101562 5.308594 -0.484375 L 5.359375 0 L 6.1875 0 L 6.1875 -3.519531 Z M 3.777344 -3.519531" transform="translate(97.966 65.205)"/></g></g></g><g fill="#2196F3"><g><g><path d="M 4.351562 -5.359375 L 4.351562 -6.238281 L 0.75 -6.238281 L 0.75 0 L 4.351562 0 L 4.351562 -0.882812 L 1.707031 -0.882812 L 1.707031 -2.679688 L 4 -2.679688 L 4 -3.5625 L 1.707031 -3.5625 L 1.707031 -5.359375 Z M 4.351562 -5.359375" transform="translate(107.708 65.205)"/></g></g></g><g fill="#2196F3"><g><g><path d="M 5.175781 -6.238281 L 5.175781 -1.503906 L 1.648438 -6.238281 L 0.699219 -6.238281 L 0.699219 0 L 1.65625 0 L 1.65625 -4.75 L 5.175781 0 L 6.132812 0 L 6.132812 -6.238281 Z M 5.175781 -6.238281" transform="translate(115.395 65.205)"/></g></g></g><g fill="#2196F3"><g><g><path d="M 3.761719 0.0820312 C 4.191406 0.0820312 4.625 -0.0078125 5.050781 -0.199219 C 5.464844 -0.382812 5.824219 -0.640625 6.113281 -0.957031 L 5.398438 -1.582031 C 4.949219 -1.097656 4.410156 -0.863281 3.761719 -0.863281 C 3.128906 -0.863281 2.585938 -1.082031 2.15625 -1.515625 C 1.722656 -1.945312 1.503906 -2.488281 1.503906 -3.121094 C 1.503906 -3.75 1.722656 -4.285156 2.15625 -4.71875 C 2.585938 -5.148438 3.128906 -5.375 3.761719 -5.375 C 4.417969 -5.375 4.964844 -5.132812 5.398438 -4.660156 L 6.113281 -5.28125 C 5.824219 -5.597656 5.464844 -5.847656 5.050781 -6.039062 C 4.625 -6.222656 4.191406 -6.324219 3.761719 -6.324219 C 2.871094 -6.324219 2.113281 -6.007812 1.488281 -5.390625 C 0.863281 -4.765625 0.558594 -4.011719 0.558594 -3.121094 C 0.558594 -2.222656 0.863281 -1.464844 1.488281 -0.847656 C 2.113281 -0.226562 2.871094 0.0820312 3.761719 0.0820312 Z M 3.761719 0.0820312" transform="translate(125.186 65.205)"/></g></g></g><g fill="#2196F3"><g><g><path d="M 0.75 0 L 1.707031 0 L 1.707031 -6.238281 L 0.75 -6.238281 Z M 0.75 0" transform="translate(134.545 65.205)"/></g></g></g><g fill="#2196F3"><g><g><path d="M 5.015625 0 L 6.054688 0 L 3.550781 -6.238281 L 2.480469 -6.238281 L -0.0234375 0 L 1.015625 0 L 1.53125 -1.339844 L 4.5 -1.339844 Z M 1.863281 -2.195312 L 3.019531 -5.207031 L 4.175781 -2.195312 Z M 1.863281 -2.195312" transform="translate(139.953 65.205)"/></g></g></g><g fill="#2196F3"><g><g><path d="M 0.699219 0 L 2.546875 0 C 3.453125 0 4.199219 -0.300781 4.800781 -0.898438 C 5.390625 -1.496094 5.691406 -2.238281 5.691406 -3.121094 C 5.691406 -3.992188 5.390625 -4.734375 4.800781 -5.332031 C 4.199219 -5.929688 3.453125 -6.238281 2.546875 -6.238281 L 0.699219 -6.238281 Z M 1.65625 -0.898438 L 1.65625 -5.339844 L 2.511719 -5.339844 C 3.152344 -5.339844 3.675781 -5.125 4.09375 -4.707031 C 4.5 -4.285156 4.707031 -3.75 4.707031 -3.121094 C 4.707031 -2.480469 4.5 -1.945312 4.09375 -1.53125 C 3.675781 -1.105469 3.152344 -0.898438 2.511719 -0.898438 Z M 1.65625 -0.898438" transform="translate(154.187 65.205)"/></g></g></g><g fill="#2196F3"><g><g><path d="M 4.351562 -5.359375 L 4.351562 -6.238281 L 0.75 -6.238281 L 0.75 0 L 4.351562 0 L 4.351562 -0.882812 L 1.707031 -0.882812 L 1.707031 -2.679688 L 4 -2.679688 L 4 -3.5625 L 1.707031 -3.5625 L 1.707031 -5.359375 Z M 4.351562 -5.359375" transform="translate(163.313 65.205)"/></g></g></g><g fill="#2196F3"><g><g><path d="M 4.964844 -6.238281 L 2.996094 -1.046875 L 1.023438 -6.238281 L -0.0507812 -6.238281 L 2.453125 0 L 3.527344 0 L 6.03125 -6.238281 Z M 4.964844 -6.238281" transform="translate(176.241 65.205)"/></g></g></g><g fill="#2196F3"><g><g><path d="M 0.75 0 L 1.707031 0 L 1.707031 -6.238281 L 0.75 -6.238281 Z M 0.75 0" transform="translate(185.184 65.205)"/></g></g></g><g fill="#2196F3"><g><g><path d="M 5.015625 0 L 6.054688 0 L 3.550781 -6.238281 L 2.480469 -6.238281 L -0.0234375 0 L 1.015625 0 L 1.53125 -1.339844 L 4.5 -1.339844 Z M 1.863281 -2.195312 L 3.019531 -5.207031 L 4.175781 -2.195312 Z M 1.863281 -2.195312" transform="translate(190.592 65.205)"/></g></g></g><g fill="#2196F3"><g><g><path d="M 3.777344 -3.519531 L 3.777344 -2.621094 L 5.242188 -2.621094 L 5.242188 -1.515625 C 4.832031 -1.082031 4.300781 -0.863281 3.644531 -0.863281 C 3.011719 -0.863281 2.480469 -1.082031 2.054688 -1.515625 C 1.628906 -1.945312 1.421875 -2.480469 1.421875 -3.121094 C 1.421875 -3.75 1.640625 -4.285156 2.070312 -4.71875 C 2.503906 -5.148438 3.042969 -5.375 3.675781 -5.375 C 4.335938 -5.375 4.882812 -5.132812 5.316406 -4.660156 L 6.03125 -5.28125 C 5.738281 -5.597656 5.382812 -5.847656 4.964844 -6.039062 C 4.542969 -6.222656 4.109375 -6.324219 3.675781 -6.324219 C 2.785156 -6.324219 2.03125 -6.007812 1.40625 -5.390625 C 0.78125 -4.765625 0.472656 -4.011719 0.472656 -3.121094 C 0.472656 -2.222656 0.773438 -1.464844 1.390625 -0.847656 C 1.996094 -0.226562 2.746094 0.0820312 3.644531 0.0820312 C 4.308594 0.0820312 4.859375 -0.101562 5.308594 -0.484375 L 5.359375 0 L 6.1875 0 L 6.1875 -3.519531 Z M 3.777344 -3.519531" transform="translate(199.585 65.205)"/></g></g></g><g fill="#2196F3"><g><g><path d="M 4.351562 -5.359375 L 4.351562 -6.238281 L 0.75 -6.238281 L 0.75 0 L 4.351562 0 L 4.351562 -0.882812 L 1.707031 -0.882812 L 1.707031 -2.679688 L 4 -2.679688 L 4 -3.5625 L 1.707031 -3.5625 L 1.707031 -5.359375 Z M 4.351562 -5.359375" transform="translate(209.327 65.205)"/></g></g></g><g fill="#2196F3"><g><g><path d="M 5.175781 -6.238281 L 5.175781 -1.503906 L 1.648438 -6.238281 L 0.699219 -6.238281 L 0.699219 0 L 1.65625 0 L 1.65625 -4.75 L 5.175781 0 L 6.132812 0 L 6.132812 -6.238281 Z M 5.175781 -6.238281" transform="translate(217.014 65.205)"/></g></g></g><g fill="#2196F3"><g><g><path d="M 2.402344 0.0820312 C 2.96875 0.0820312 3.453125 -0.0742188 3.835938 -0.398438 C 4.21875 -0.714844 4.410156 -1.148438 4.410156 -1.695312 C 4.410156 -1.996094 4.351562 -2.253906 4.242188 -2.480469 C 4.132812 -2.703125 3.992188 -2.886719 3.820312 -3.019531 C 3.644531 -3.152344 3.453125 -3.269531 3.246094 -3.371094 C 3.027344 -3.46875 2.820312 -3.5625 2.613281 -3.644531 C 2.394531 -3.71875 2.203125 -3.800781 2.03125 -3.886719 C 1.855469 -3.96875 1.714844 -4.078125 1.605469 -4.210938 C 1.496094 -4.34375 1.449219 -4.492188 1.449219 -4.675781 C 1.449219 -4.917969 1.53125 -5.097656 1.695312 -5.234375 C 1.863281 -5.367188 2.078125 -5.433594 2.335938 -5.433594 C 2.769531 -5.433594 3.136719 -5.25 3.417969 -4.882812 L 4.09375 -5.5 C 3.894531 -5.75 3.636719 -5.949219 3.328125 -6.097656 C 3.019531 -6.246094 2.6875 -6.324219 2.335938 -6.324219 C 1.820312 -6.324219 1.382812 -6.164062 1.03125 -5.855469 C 0.675781 -5.539062 0.5 -5.125 0.5 -4.601562 C 0.5 -4.316406 0.550781 -4.078125 0.65625 -3.867188 C 0.765625 -3.652344 0.90625 -3.484375 1.082031 -3.359375 C 1.257812 -3.234375 1.449219 -3.128906 1.664062 -3.027344 C 1.871094 -2.929688 2.078125 -2.84375 2.296875 -2.761719 C 2.503906 -2.679688 2.695312 -2.59375 2.871094 -2.511719 C 3.042969 -2.421875 3.1875 -2.304688 3.292969 -2.171875 C 3.402344 -2.03125 3.460938 -1.871094 3.460938 -1.6875 C 3.460938 -1.421875 3.359375 -1.207031 3.167969 -1.054688 C 2.96875 -0.90625 2.71875 -0.832031 2.414062 -0.832031 C 2.097656 -0.832031 1.8125 -0.90625 1.582031 -1.074219 C 1.347656 -1.230469 1.171875 -1.449219 1.054688 -1.730469 L 0.242188 -1.230469 C 0.425781 -0.832031 0.707031 -0.515625 1.089844 -0.273438 C 1.472656 -0.0351562 1.914062 0.0820312 2.402344 0.0820312 Z M 2.402344 0.0820312" transform="translate(226.805 65.205)"/></g></g></g></svg>